<?xml version="1.0" encoding="UTF-8" standalone="no"?>
<!-- Created with Inkscape (http://www.inkscape.org/) -->

<svg
   width="210mm"
   height="297mm"
   viewBox="0 0 210 297"
   version="1.1"
   id="svg1"
   inkscape:version="1.4.2 (ebf0e940d0, 2025-05-08)"
   sodipodi:docname="posterX1CollecteCaddieA4.svg"
   xml:space="preserve"
   inkscape:export-filename="../exports/afficheCollecteCaddieA4-fondTransparent.pdf"
   inkscape:export-xdpi="96"
   inkscape:export-ydpi="96"
   xmlns:inkscape="http://www.inkscape.org/namespaces/inkscape"
   xmlns:sodipodi="http://sodipodi.sourceforge.net/DTD/sodipodi-0.dtd"
   xmlns="http://www.w3.org/2000/svg"
   xmlns:svg="http://www.w3.org/2000/svg"><sodipodi:namedview
     id="namedview1"
     pagecolor="#505050"
     bordercolor="#eeeeee"
     borderopacity="1"
     inkscape:showpageshadow="0"
     inkscape:pageopacity="0"
     inkscape:pagecheckerboard="0"
     inkscape:deskcolor="#505050"
     inkscape:document-units="mm"
     inkscape:zoom="0.6727633"
     inkscape:cx="113.71013"
     inkscape:cy="613.88604"
     inkscape:window-width="2560"
     inkscape:window-height="1259"
     inkscape:window-x="2560"
     inkscape:window-y="181"
     inkscape:window-maximized="1"
     inkscape:current-layer="g11"
     showguides="true" /><defs
     id="defs1" /><rect
     style="display:none;fill:#0aa549;fill-opacity:1;stroke-width:0;stroke-linecap:round;stroke-linejoin:round"
     id="rect12"
     width="420.15842"
     height="594.224"
     x="-202.5654"
     y="-6.7717752"
     transform="matrix(0.49981152,0,0,0.49981152,101.24452,3.3846111)"
     inkscape:label="cadre" /><g
     id="g12"
     inkscape:label="contact"
     transform="matrix(0.49981152,0,0,0.49981152,101.24452,3.3846111)"
     style="display:none"><text
       xml:space="preserve"
       style="font-style:normal;font-variant:normal;font-weight:800;font-stretch:semi-condensed;font-size:22.5863px;font-family:'Noto Sans';-inkscape-font-specification:'Noto Sans, Ultra-Bold Semi-Condensed';font-variant-ligatures:normal;font-variant-caps:normal;font-variant-numeric:normal;font-variant-east-asian:normal;text-align:start;writing-mode:lr-tb;direction:ltr;text-anchor:start;fill:#000000;stroke-width:0;stroke-linecap:round;stroke-linejoin:round"
       x="-155.78963"
       y="534.99622"
       id="text10"><tspan
         sodipodi:role="line"
         id="tspan10"
         style="font-style:normal;font-variant:normal;font-weight:800;font-stretch:semi-condensed;font-size:22.5863px;font-family:'Noto Sans';-inkscape-font-specification:'Noto Sans, Ultra-Bold Semi-Condensed';font-variant-ligatures:normal;font-variant-caps:normal;font-variant-numeric:normal;font-variant-east-asian:normal;stroke-width:0"
         x="-155.78963"
         y="534.99622">Autre: s'adresser aux bénévoles</tspan></text><text
       xml:space="preserve"
       style="font-style:normal;font-variant:normal;font-weight:800;font-stretch:normal;font-size:22.5863px;font-family:'Noto Sans';-inkscape-font-specification:'Noto Sans, Ultra-Bold';font-variant-ligatures:normal;font-variant-caps:normal;font-variant-numeric:normal;font-variant-east-asian:normal;text-align:start;writing-mode:lr-tb;direction:ltr;text-anchor:start;fill:#000000;stroke-width:0;stroke-linecap:round;stroke-linejoin:round"
       x="-83.679947"
       y="568.26233"
       id="text11"
       inkscape:label="text11"><tspan
         sodipodi:role="line"
         id="tspan11"
         style="font-style:normal;font-variant:normal;font-weight:800;font-stretch:normal;font-size:22.5863px;font-family:'Noto Sans';-inkscape-font-specification:'Noto Sans, Ultra-Bold';font-variant-ligatures:normal;font-variant-caps:normal;font-variant-numeric:normal;font-variant-east-asian:normal;stroke-width:0"
         x="-83.679947"
         y="568.26233">06 35 97 84 06 </tspan></text></g><g
     id="g11"
     inkscape:label="list"
     transform="matrix(0.49981152,0,0,0.49981152,101.24452,4.4429445)"><text
       xml:space="preserve"
       style="font-style:normal;font-variant:normal;font-weight:800;font-stretch:semi-condensed;font-size:21.1746px;font-family:'Noto Sans';-inkscape-font-specification:'Noto Sans, Ultra-Bold Semi-Condensed';font-variant-ligatures:normal;font-variant-caps:normal;font-variant-numeric:normal;font-variant-east-asian:normal;text-align:start;writing-mode:lr-tb;direction:ltr;text-anchor:start;fill:#000000;stroke-width:0;stroke-linecap:round;stroke-linejoin:round"
       x="-178.82217"
       y="515.53778"
       id="text6"
       inkscape:label="text6"><tspan
         sodipodi:role="line"
         id="tspan6"
         style="font-style:normal;font-variant:normal;font-weight:800;font-stretch:semi-condensed;font-size:21.1746px;font-family:'Noto Sans';-inkscape-font-specification:'Noto Sans, Ultra-Bold Semi-Condensed';font-variant-ligatures:normal;font-variant-caps:normal;font-variant-numeric:normal;font-variant-east-asian:normal;stroke-width:0"
         x="-178.82217"
         y="515.53778">Points de nourrissage</tspan></text><text
       xml:space="preserve"
       style="font-style:normal;font-variant:normal;font-weight:800;font-stretch:semi-condensed;font-size:21.1746px;font-family:'Noto Sans';-inkscape-font-specification:'Noto Sans, Ultra-Bold Semi-Condensed';font-variant-ligatures:normal;font-variant-caps:normal;font-variant-numeric:normal;font-variant-east-asian:normal;text-align:start;writing-mode:lr-tb;direction:ltr;text-anchor:start;fill:#000000;stroke-width:0;stroke-linecap:round;stroke-linejoin:round"
       x="-178.70596"
       y="483.04172"
       id="text7"><tspan
         sodipodi:role="line"
         id="tspan7"
         style="font-style:normal;font-variant:normal;font-weight:800;font-stretch:semi-condensed;font-size:21.1746px;font-family:'Noto Sans';-inkscape-font-specification:'Noto Sans, Ultra-Bold Semi-Condensed';font-variant-ligatures:normal;font-variant-caps:normal;font-variant-numeric:normal;font-variant-east-asian:normal;stroke-width:0"
         x="-178.70596"
         y="483.04172">Instalation de chalets</tspan></text><text
       xml:space="preserve"
       style="font-style:normal;font-variant:normal;font-weight:800;font-stretch:semi-condensed;font-size:21.1746px;font-family:'Noto Sans';-inkscape-font-specification:'Noto Sans, Ultra-Bold Semi-Condensed';font-variant-ligatures:normal;font-variant-caps:normal;font-variant-numeric:normal;font-variant-east-asian:normal;text-align:start;writing-mode:lr-tb;direction:ltr;text-anchor:start;fill:#000000;stroke-width:0;stroke-linecap:round;stroke-linejoin:round"
       x="-177.94366"
       y="450.54565"
       id="text8"><tspan
         sodipodi:role="line"
         id="tspan8"
         style="font-style:normal;font-variant:normal;font-weight:800;font-stretch:semi-condensed;font-size:21.1746px;font-family:'Noto Sans';-inkscape-font-specification:'Noto Sans, Ultra-Bold Semi-Condensed';font-variant-ligatures:normal;font-variant-caps:normal;font-variant-numeric:normal;font-variant-east-asian:normal;stroke-width:0"
         x="-177.94366"
         y="450.54565">Veiller à leur santé</tspan></text><text
       xml:space="preserve"
       style="font-style:normal;font-variant:normal;font-weight:800;font-stretch:semi-condensed;font-size:21.1746px;font-family:'Noto Sans';-inkscape-font-specification:'Noto Sans, Ultra-Bold Semi-Condensed';font-variant-ligatures:normal;font-variant-caps:normal;font-variant-numeric:normal;font-variant-east-asian:normal;text-align:start;writing-mode:lr-tb;direction:ltr;text-anchor:start;fill:#000000;stroke-width:0;stroke-linecap:round;stroke-linejoin:round"
       x="-179.82396"
       y="552.90399"
       id="text9"><tspan
         sodipodi:role="line"
         id="tspan9"
         style="font-style:normal;font-variant:normal;font-weight:800;font-stretch:semi-condensed;font-size:21.1746px;font-family:'Noto Sans';-inkscape-font-specification:'Noto Sans, Ultra-Bold Semi-Condensed';font-variant-ligatures:normal;font-variant-caps:normal;font-variant-numeric:normal;font-variant-east-asian:normal;stroke-width:0"
         x="-179.82396"
         y="552.90399">Réguler le nombre par la stérilisation</tspan></text></g><g
     id="g13"
     inkscape:label="logo"
     transform="matrix(0.49981152,0,0,0.49981152,104.50057,-21.313411)"><path
       style="fill:#000000;stroke-width:1.05442"
       d="m 167.21982,567.98861 c 0,-0.89969 -3.79195,-5.95239 -6.54014,-8.71461 -3.11166,-3.12754 -5.48018,-4.35422 -10.90756,-5.64912 -6.45468,-1.54002 -15.48461,-4.72724 -25.14344,-8.87471 -2.8642,-1.22987 -6.96522,-2.89766 -9.11338,-3.70618 -4.90348,-1.84558 -6.4597,-2.53297 -12.46115,-5.50427 -7.481423,-3.70403 -10.692817,-6.22822 -20.408368,-16.04117 -4.699597,-4.74672 -8.886796,-9.18251 -9.304852,-9.85734 -0.418084,-0.67483 -0.933971,-1.34937 -1.146419,-1.49899 -0.472108,-0.33249 -1.316205,0.72251 -1.316205,1.64505 0,1.03307 -0.521501,0.8267 -2.863499,-1.1332 -7.046093,-5.89654 -11.243905,-12.79305 -12.911307,-21.2118 -0.501649,-2.53279 -1.102436,-4.79255 -1.335091,-5.02166 -0.635653,-0.62598 -1.315478,0.5153 -1.802766,3.02643 -0.228039,1.17514 -0.673225,3.47143 -0.989318,5.10286 -1.140088,5.88436 -1.298166,4.81011 -2.036638,-13.8396 -0.180094,-4.54824 -0.41621,-8.41316 -0.524709,-8.58871 -0.108486,-0.17555 -0.373306,-4.74 -0.588471,-10.14323 -0.329211,-8.2672 -0.51754,-10.22728 -1.18836,-12.36862 -0.438437,-1.39951 -1.021097,-2.63049 -1.294803,-2.73552 -0.579497,-0.22237 -8.747129,4.3796 -10.297544,5.80206 -1.925292,1.7664 -3.108707,5.35749 -3.995745,12.12518 -0.582513,4.44425 -0.912673,5.31469 -1.284575,3.38664 -0.463987,-2.40544 0.06611,-7.61184 1.110416,-10.90526 0.775355,-2.44535 0.882273,-3.19325 0.535824,-3.748 -0.371261,-0.59447 -0.185736,-0.95352 1.304609,-2.52468 3.227033,-3.40205 8.060755,-9.59103 7.948017,-10.17645 -0.158395,-0.82249 -2.747188,-1.94953 -4.540289,-1.97665 -2.242322,-0.0339 -3.325484,0.70494 -7.896951,5.3866 -4.281272,4.38448 -6.448584,7.36193 -8.872014,12.18837 -3.536442,7.04309 -3.89022,9.34399 -3.946346,25.66627 -0.0427,12.40639 -0.07592,13.02512 -0.549152,10.22931 -0.640572,-3.78413 -1.637419,-15.47436 -1.637419,-19.20237 0,-5.20849 1.504226,-11.44729 4.090911,-16.96713 2.331265,-4.97479 5.360108,-9.22535 9.555508,-13.40982 2.110026,-2.10452 3.836402,-4.06703 3.836402,-4.36115 0,-1.37446 -5.16018,-2.59639 -8.741413,-2.06998 -3.233118,0.47525 -5.000837,1.18138 -8.57711,3.4262 -2.82706,1.77452 -10.8401889,7.50832 -11.3235479,8.10254 -0.1022863,0.12576 -0.7718481,0.70836 -1.48790002,1.29468 -5.95584298,4.87665 -13.13763208,12.42326 -18.95306408,19.91584 -1.998067,2.57431 -3.933326,4.92981 -4.300573,5.23447 -0.637108,0.5285 -0.640775,0.50178 -0.08,-0.58293 0.7862,-1.52076 7.87202,-10.94409 10.333341,-13.74217 5.6458507,-6.4183 13.22746288,-13.1877 20.5327932,-18.33314 4.1447348,-2.91929 5.0373918,-3.93886 3.8481278,-4.39523 -0.683656,-0.26234 -10.3122142,2.50748 -14.3437869,4.12624 -3.3072025,1.32791 -4.1602229,1.37715 -2.6109034,0.1507 3.125304,-2.47402 9.3469985,-4.56907 15.8033793,-5.32155 7.375192,-0.85956 8.908547,-1.61543 7.302153,-3.59967 l -0.726557,-0.89745 -9.3215108,-0.0643 c -5.1268335,-0.0353 -9.4694958,-0.15577 -9.6503615,-0.26757 -0.1808644,-0.11173 -0.6948848,-1.20712 -1.1422658,-2.4341 -0.4473796,-1.22699 -0.9899113,-2.33997 -1.2056268,-2.47328 -0.7051161,-0.43579 -1.5022885,0.83424 -1.7509327,2.78951 -0.1340745,1.05432 -0.4046243,1.93006 -0.6012192,1.9461 -0.1965963,0.0161 -1.0997421,-1.3706 -2.0069904,-3.08139 -1.9909368,-3.75427 -3.9124928,-6.62994 -5.9311308,-8.87613 -1.440615,-1.60299 -1.532715,-1.64614 -2.174927,-1.0187 -0.629121,0.61463 -0.635069,0.79157 -0.09614,2.86012 l 0.574466,2.20496 -0.999745,-0.71187 c -1.536104,-1.09381 -4.965781,-4.88591 -9.503392,-10.50764 -1.433915,-1.7765 -5.110141,-7.52226 -5.776077,-9.02771 -1.143977,-2.58615 -2.536764,-2.62604 -2.55098,-0.073 -0.0031,0.5626 -0.171217,1.02293 -0.37352,1.02293 -0.739466,0 -5.621401,-10.66376 -7.918607,-17.29684 -2.22312,-6.41917 -5.476643,-20.72845 -5.476643,-24.08676 0,-0.99135 -0.27062,-2.33814 -0.601374,-2.9929 -0.698743,-1.38319 -4.496221,-6.45408 -6.486945,-8.66222 -1.547795,-1.71683 -5.043795,-6.44911 -6.017001,-8.14475 -2.864903,-4.99162 -4.55819,-9.51895 -6.262804,-16.74481 -0.701129,-2.97209 -1.208273,-4.20256 -2.524427,-6.12502 -2.14353,-3.13097 -2.412063,-3.82295 -3.542488,-9.12871 -0.522798,-2.4538 -1.383296,-6.47013 -1.912217,-8.92516 -2.347297,-10.89519 -5.760594,-28.62724 -6.65995,-34.59839 -0.89834,-5.9644 0.02814,-10.79783 2.627674,-13.70853 1.941116,-2.17347 2.816665,-2.66223 6.461659,-3.60706 3.552403,-0.92082 6.014442,-0.83582 12.456706,0.43008 5.6639,1.11295 19.510829,4.65293 26.038249,6.65671 1.227517,0.37682 3.738348,1.13359 5.579625,1.68169 1.841276,0.54812 6.779244,2.0894 10.973261,3.4251 4.194018,1.33569 8.344548,2.65329 9.2233971,2.92801 l 1.5979078,0.49949 2.1486148,-1.9402 c 1.1817422,-1.06716 2.5295547,-2.19132 2.9951434,-2.4982 0.4655901,-0.30689 1.83369918,-1.34353 3.04024298,-2.30365 6.59058812,-5.24456 28.04283092,-14.21187 43.34559792,-18.11901 1.661362,-0.42418 5.51125,-1.19866 8.555309,-1.72106 3.044059,-0.52241 6.455287,-1.19254 7.580519,-1.48917 1.125217,-0.29664 5.226248,-0.96669 9.113387,-1.489 3.887125,-0.52232 7.653379,-1.13496 8.369438,-1.36142 1.344069,-0.42509 3.177783,-1.65411 4.885884,-3.2747 1.071288,-1.01639 5.953672,-6.90265 8.319215,-10.02974 0.818345,-1.0818 2.35035,-3.03526 3.404472,-4.34101 1.05409,-1.30577 3.14646,-4.0746 4.64967,-6.15298 6.516452,-9.00972 14.474002,-18.72695 16.754112,-20.459 4.66322,-3.54235 8.92181,-4.99822 13.3192,-4.55341 11.35037,1.14815 21.06351,14.22356 25.12258,33.81893 0.55093,2.65962 1.6633,6.92804 2.47197,9.48537 2.84077,8.98368 3.22017,10.36112 3.65208,13.25859 0.23959,1.60728 0.67955,4.09404 0.97769,5.52614 1.47284,7.07493 2.4127,13.61091 2.78142,19.3427 0.22373,3.47797 0.61896,6.83527 0.87829,7.46068 0.34681,0.83631 1.14866,1.4898 3.03135,2.47043 3.19437,1.66385 7.65479,3.274 9.0696,3.274 1.48194,0 1.77937,0.70014 0.49874,1.17403 -0.5813,0.21512 -2.47791,0.91776 -4.21468,1.56142 -2.11814,0.78501 -3.19867,1.3846 -3.28204,1.82125 -0.0809,0.42392 0.10805,0.65095 0.54187,0.65095 0.3664,0 2.03433,0.34897 3.7065,0.77549 l 3.04032,0.77548 3.85327,-0.76499 c 4.5877,-0.9108 7.759,-1.33549 7.759,-1.03905 0,0.50753 -1.79202,2.06956 -3.18755,2.77847 -1.80017,0.91445 -5.36787,3.67419 -5.36787,4.15224 0,0.76627 1.25694,1.50581 2.55929,1.50581 0.9246,0 2.10245,-0.42888 3.51679,-1.28056 1.16962,-0.7043 4.00538,-2.22859 6.30169,-3.38731 4.42115,-2.23091 6.72558,-3.51641 8.78372,-4.89989 0.69345,-0.46615 1.42578,-0.84754 1.6274,-0.84754 0.67846,0 -0.0769,2.28116 -2.33057,7.03851 -2.69648,5.69199 -2.86248,7.22585 -1.1303,10.44432 0.6056,1.12522 1.10772,2.16178 1.11584,2.30346 0.008,0.14167 -0.69353,0.30906 -1.55923,0.37198 -1.38476,0.10059 -1.61457,0.24852 -1.91154,1.2303 -0.18567,0.61375 -0.91224,2.66183 -1.61459,4.55129 -0.76233,2.05078 -1.18205,3.73459 -1.04138,4.17781 0.12958,0.40834 0.90442,1.62434 1.72181,2.70221 1.60325,2.11422 3.03383,4.95058 3.99026,7.91138 0.74579,2.30872 0.81176,13.57846 0.0944,16.12101 -0.62191,2.20413 -0.5715,5.40559 0.1681,10.67922 0.96385,6.87259 0.29701,14.15473 -1.83012,19.98548 -1.27271,3.48869 -2.45743,5.38673 -4.86509,7.79438 -1.57521,1.57522 -2.06523,2.32643 -2.06523,3.16608 0,2.37175 -2.16838,6.44416 -4.61821,8.67347 -1.77843,1.61833 -2.68623,4.22567 -3.57356,10.26378 -1.25606,8.5474 -0.90225,12.91105 1.40669,17.34837 0.50998,0.98009 0.84374,1.86549 0.74168,1.96756 -0.10206,0.10205 -0.98503,-0.23952 -1.96215,-0.75906 -0.97714,-0.51956 -2.33753,-0.94463 -3.02311,-0.94463 -1.89695,0 -1.78292,0.81167 0.95881,6.82488 0.93841,2.05816 0.85319,2.5449 -0.60445,3.45249 -2.09248,1.30289 -2.35733,1.65139 -1.9018,2.50253 0.23049,0.43068 0.81096,1.09131 1.28993,1.46808 1.30429,1.02594 1.06596,1.37496 -0.93884,1.37496 -3.48338,0 -5.08692,2.69432 -2.54667,4.27899 0.85611,0.53406 1.72156,1.78709 3.05446,4.42233 1.68774,3.33682 1.9976,3.72947 3.34779,4.24254 4.07817,1.54967 10.05669,6.32758 13.12667,10.49058 2.86317,3.88254 3.14338,5.06425 3.43987,14.50702 0.22562,7.18593 0.37528,8.68169 1.05836,10.57773 2.44234,6.77933 0.66388,16.60107 -4.48672,24.77821 -1.0872,1.72603 -1.92853,3.58941 -2.1834,4.83566 -1.405,6.87076 -5.86844,14.87057 -13.82554,24.77953 -4.73529,5.89684 -8.99988,9.7208 -12.8452,11.518 -0.38384,0.1794 -0.68687,1.53473 -0.37198,1.6637 0.0511,0.021 2.72112,0.15219 5.93327,0.29164 3.21216,0.13945 5.95232,0.3656 6.08927,0.50255 1.00318,1.00319 -4.06329,6.67278 -7.72909,8.64913 -1.08271,0.58373 -2.08985,1.24191 -2.23806,1.4626 -0.14819,0.22067 -0.16391,2.87021 -0.0349,5.88787 l 0.23454,5.48662 h -1.17401 c -0.73465,0 -1.174,-0.18697 -1.174,-0.49962 z m -4.40912,-31.10478 c 1.72347,-0.65487 4.03715,-2.37157 4.03715,-2.99549 0,-0.13149 -1.29726,-1.5767 -2.88281,-3.21165 -3.17434,-3.27327 -5.19731,-6.32217 -3.95185,-5.95597 1.63744,0.48144 5.25405,0.99038 7.0378,0.99038 1.29995,0 2.82,-0.36934 4.67437,-1.13579 1.51139,-0.62467 4.49898,-1.71666 6.63912,-2.42663 2.14012,-0.70998 4.297,-1.66353 4.79309,-2.119 1.07494,-0.98696 3.03298,-3.59882 3.03298,-4.04574 0,-0.17389 -0.7114,-0.31984 -1.5809,-0.32434 -2.51985,-0.0136 -4.36592,-1.09517 -6.6211,-3.88125 -4.36365,-5.39089 -4.92834,-6.19136 -4.5964,-6.51551 0.18549,-0.18112 2.24399,-0.37153 4.57448,-0.42313 7.05448,-0.15621 12.16402,-1.39476 14.06075,-3.40832 2.04158,-2.16734 5.32242,-9.56702 5.32242,-12.00431 0,-2.12338 -0.96504,-2.28344 -5.39364,-0.89462 -2.88624,0.90512 -4.65744,1.21204 -7.90446,1.36966 -6.22694,0.30229 -5.8047,-0.13699 3.31474,-3.44854 2.5903,-0.94061 5.44799,-2.17844 6.35039,-2.75072 2.57702,-1.63431 3.52528,-4.49948 2.06961,-6.25343 -0.58699,-0.70729 -1.02152,-0.56534 -1.4118,0.46121 -0.60715,1.59693 -4.78323,3.97095 -10.81956,6.15069 -1.60985,0.58133 -3.67243,1.56982 -4.58349,2.19666 -0.91107,0.62682 -1.79427,1.13969 -1.96267,1.13969 -0.16837,0 -0.76425,-0.48536 -1.32413,-1.07857 -0.64904,-0.68765 -1.92934,-1.36034 -3.53255,-1.85606 -2.56329,-0.79256 -3.74766,-1.36144 -3.43374,-1.64928 0.0963,-0.0884 2.43562,-0.41359 5.19834,-0.72271 4.19129,-0.46897 5.42326,-0.75724 7.43949,-1.74079 1.32901,-0.64831 3.83919,-1.59009 5.57817,-2.09281 4.36428,-1.26173 7.57728,-2.88305 8.13378,-4.10442 0.24687,-0.54183 0.54736,-1.70377 0.66774,-2.58207 0.18912,-1.37984 0.0884,-1.72737 -0.74065,-2.55646 -1.54319,-1.54321 -3.51597,-1.35349 -11.96661,1.15074 -2.2465,0.66571 2.83526,-2.9022 7.76795,-5.45391 0.58884,-0.30459 1.81098,-1.20552 2.71588,-2.00204 1.27997,-1.12668 1.62019,-1.66445 1.53232,-2.42198 -0.0918,-0.79184 -0.28668,-0.95604 -1.04289,-0.87895 -2.96583,0.30233 -15.62856,8.02225 -16.22115,9.88932 -0.27515,0.86694 -1.04354,1.73309 -1.53748,1.73309 -0.18093,0 -0.81006,-0.50217 -1.39807,-1.11593 -0.58803,-0.61374 -1.41444,-1.11849 -1.83648,-1.12162 -0.42205,-0.003 -0.99447,-0.14959 -1.27204,-0.32549 -0.5753,-0.36452 -0.56342,-0.37463 2.11476,-1.79862 2.21255,-1.17643 4.9805,-3.4962 7.92041,-6.63797 2.95813,-3.16123 3.39851,-3.91686 3.06936,-5.26665 -0.33924,-1.3912 -2.03343,-3.8193 -3.66356,-5.25057 -1.81878,-1.59692 -3.53165,-1.5575 -7.63437,0.17569 -4.44835,1.87919 -9.06219,3.32006 -12.29769,3.84047 -1.52202,0.24481 -3.01838,0.51255 -3.32526,0.59497 -0.30688,0.0824 -0.80462,-0.005 -1.10611,-0.19398 -0.44458,-0.2789 -0.25874,-0.61106 0.98374,-1.75839 1.04507,-0.96502 1.67426,-1.94649 1.97996,-3.08844 0.24645,-0.92063 0.88028,-2.55913 1.4085,-3.64109 0.87066,-1.78344 1.51689,-2.46783 6.08622,-6.44586 0.38006,-0.33088 0.69102,-0.87071 0.69102,-1.19963 0,-0.77555 -1.4159,-0.52726 -5.20765,0.91322 -8.0066,3.04172 -16.04607,10.12183 -18.28187,16.10032 -0.46507,1.24354 -2.23311,4.55433 -3.929,7.35731 -1.69589,2.80299 -3.08343,5.19718 -3.08343,5.32047 0,0.12331 -0.33189,0.67769 -0.73753,1.23201 -0.40561,0.55433 -1.0737,1.99223 -1.48459,3.19538 -1.7343,5.07807 -3.40046,22.33844 -3.48728,36.12591 l -0.0561,8.9274 1.0395,2.21999 c 2.15245,4.59687 7.04072,9.87868 11.79364,12.74309 3.17867,1.91569 7.45378,3.79199 9.49641,4.16789 1.22144,0.22478 2.97406,0.64611 3.89469,0.93629 2.24828,0.70863 2.65593,0.69585 4.89026,-0.15312 z m -54.80182,-4.73594 c -0.0669,-0.34689 -1.37635,-1.51342 -2.91007,-2.59228 -4.87452,-3.42881 -7.767213,-6.15385 -20.381726,-19.2005 -2.515696,-2.60185 -4.787155,-4.73066 -5.047701,-4.73066 -0.260546,0 -1.158178,-0.58587 -1.994713,-1.30191 -1.750503,-1.49835 -2.704653,-1.67478 -2.704653,-0.50007 0,1.1383 1.402196,2.88467 6.110282,7.61006 2.265464,2.27381 5.374453,5.42844 6.908857,7.01029 4.157781,4.28635 13.560534,11.84173 16.802274,13.50111 1.97958,1.0133 3.39055,1.10275 3.21745,0.20396 z m 17.4538,-2.81003 c 0.20191,-0.25574 0.45928,-1.40698 0.57193,-2.55832 0.11268,-1.15134 0.4228,-2.44239 0.68922,-2.86899 0.69101,-1.10648 -0.0515,-3.63117 -2.09603,-7.12685 -2.41101,-4.12229 -3.6259,-6.97878 -3.66913,-8.62701 -0.0338,-1.29227 0.14992,-1.62132 1.55982,-2.79247 l 1.59823,-1.32759 -0.0946,-4.5711 -0.0947,-4.57111 1.74552,-2.82846 c 0.96003,-1.55564 1.74552,-3.183 1.74552,-3.61633 0,-0.7477 -0.13176,-0.77683 -2.5838,-0.57126 l -2.58381,0.21662 1.29981,-2.85226 c 0.71491,-1.56876 2.30016,-4.69679 3.52278,-6.95122 4.95865,-9.14331 8.52848,-16.63534 8.52848,-17.89881 0,-1.01653 -0.14598,-1.26512 -0.74289,-1.26512 -1.03375,0 -3.47585,2.2932 -5.84289,5.48664 -1.09942,1.48324 -2.07924,2.69682 -2.17737,2.69682 -0.68372,0 2.17727,-6.28322 4.27896,-9.39732 1.55876,-2.30966 1.49861,-2.87787 -0.30472,-2.87787 -1.8733,0 -4.04794,0.78495 -7.18427,2.59318 -1.39361,0.80347 -2.53386,1.36965 -2.53386,1.25815 0,-0.26 1.55175,-2.48829 1.90902,-2.74133 0.14904,-0.1056 0.78728,-1.17344 1.41833,-2.37308 0.87907,-1.67112 1.04942,-2.29921 0.72846,-2.68593 -0.3447,-0.41535 -0.82343,-0.27945 -2.70233,0.76707 -1.25588,0.69952 -3.20405,1.61012 -4.32928,2.02359 -2.56029,0.94078 -8.9382,2.27428 -10.87752,2.27428 -2.17579,0 -1.58736,-0.78956 1.28275,-1.72119 4.14858,-1.34661 6.97097,-3.07856 9.96676,-6.11606 3.00992,-3.05183 3.94359,-4.43399 3.60002,-5.32929 -0.32249,-0.84041 -2.00552,-0.1501 -5.54645,2.27493 -1.61475,1.10587 -3.08556,1.95836 -3.2685,1.89444 -0.45708,-0.1597 0.884,-3.05394 2.5134,-5.42431 1.00727,-1.4653 1.24063,-2.0672 0.92422,-2.38361 -0.6284,-0.62839 -4.81506,1.55305 -7.53761,3.92747 -1.22846,1.07137 -3.64022,2.64848 -5.3595,3.50468 -3.01149,1.49974 -7.202453,2.87104 -7.590003,2.48349 -0.10301,-0.103 0.17751,-0.68055 0.62329,-1.28351 1.50276,-2.03259 0.88317,-2.32797 -2.56274,-1.2218 -1.642916,0.52742 -3.410275,0.64904 -9.459882,0.65097 -8.821013,0.003 -9.692252,-0.20148 -18.57447,-4.35548 -9.795124,-4.58095 -11.260828,-5.117 -14.008675,-5.12348 -1.261496,-0.003 -1.892416,0.19839 -2.408522,0.76868 -0.685719,0.75772 -0.682535,0.81727 0.163835,3.0688 0.474721,1.26285 1.023313,2.95905 1.219086,3.76936 0.735403,3.04379 1.432911,9.78419 1.432911,13.84705 0,2.31459 0.100596,4.20836 0.22361,4.20836 0.122983,0 1.398784,-1.08802 2.835098,-2.41784 2.631921,-2.43675 3.55649,-2.96504 3.092257,-1.76687 -0.653954,1.68781 -0.945512,4.59321 -1.16653,11.62421 -0.266215,8.46917 -0.0068,10.52172 2.131634,16.91299 1.253774,3.74597 4.512956,10.66649 5.350786,11.36183 0.750177,0.62259 1.668192,0.18542 1.668192,-0.79442 0,-1.52819 -1.89165,-10.72575 -3.030602,-14.73534 -1.36012,-4.78823 -1.640151,-7.78886 -1.553929,-16.65079 0.03583,-3.68255 0.07766,-8.43918 0.09306,-10.57029 0.01526,-2.13112 0.109685,-3.79286 0.209832,-3.69277 0.100011,0.10001 0.615258,2.01112 1.144825,4.24673 0.762903,3.22066 1.020724,5.53232 1.241565,11.13224 0.297676,7.54834 0.623528,8.96674 2.147795,9.3493 1.372601,0.34451 2.431517,-0.64905 4.206465,-3.9468 2.040221,-3.79067 4.148311,-5.96677 7.162617,-7.39371 2.400778,-1.13651 11.391305,-3.576 11.772859,-3.19445 0.118133,0.11814 -0.136268,0.49637 -0.565457,0.84041 -0.429188,0.34403 -2.958345,2.33247 -5.620365,4.41875 -6.661582,5.22085 -7.710074,6.64825 -8.844394,12.04061 -1.051245,4.99742 -0.478253,7.90616 1.83535,9.31698 2.402631,1.46513 3.375039,1.01597 8.02722,-3.70785 1.943576,-1.97352 3.939379,-3.9043 4.435114,-4.29065 1.303752,-1.01608 8.928165,-4.76244 9.383435,-4.61069 0.21181,0.0707 -1.4055,2.54812 -3.59402,5.50561 -6.214488,8.39805 -7.117366,10.64203 -7.467022,18.55838 l -0.223322,5.05556 3.343116,5.07197 c 4.988688,7.56853 10.069451,12.60126 11.512551,11.4037 0.67594,-0.56093 0.57934,-4.26362 -0.16547,-6.34165 -0.56431,-1.57442 -0.58483,-2.21252 -0.18638,-5.79583 0.24625,-2.21465 0.72456,-5.4068 1.06291,-7.09368 0.67929,-3.38682 0.43684,-5.42413 -0.73014,-6.13546 -0.55878,-0.34061 -0.85046,-0.19228 -1.75686,0.89349 -0.59778,0.71606 -1.091363,1.17133 -1.096873,1.01172 -0.0253,-0.73388 2.067303,-5.09696 3.418863,-7.12827 1.72591,-2.59399 18.59049,-19.5172 18.80582,-18.87122 0.0786,0.23614 -0.81025,2.2306 -1.97549,4.43212 -5.9278,11.19959 -6.91864,13.17215 -8.08319,16.09195 -1.11734,2.80142 -1.67427,4.93676 -2.27988,8.74141 -0.21459,1.34806 0.36975,7.83437 0.93827,10.4153 0.77552,3.52062 2.39205,6.12937 6.85458,11.06206 2.35776,2.60616 4.74057,4.98474 5.29512,5.28575 1.24984,0.67837 2.47445,0.72478 2.95821,0.11214 z m 62.79099,-16.71397 c 0.94085,-1.04141 1.29546,-1.75153 1.21389,-2.43091 -0.18722,-1.55943 -1.0134,-1.79926 -3.81593,-1.10766 -3.27756,0.80882 -4.45956,1.40657 -4.59121,2.32186 -0.22269,1.54826 2.80318,3.25763 5.03217,2.84273 0.45759,-0.0852 1.43008,-0.81689 2.16108,-1.62602 z M 170.7157,446.92327 c 2.0802,-1.02892 4.25228,-2.34084 4.82684,-2.9154 0.90515,-0.90514 1.01369,-1.23824 0.81282,-2.49441 -0.66157,-4.1372 -2.11414,-3.89319 -10.54622,1.77158 -3.53288,2.37342 -4.1896,3.59385 -2.77498,5.15696 0.99721,1.10192 3.30619,0.6454 7.68154,-1.51873 z M 41.662058,442.48092 c 1.9801,-1.39747 2.391533,-2.15401 1.601216,-2.94433 -0.502135,-0.50214 -0.68049,-0.50162 -1.659716,0.005 -1.14904,0.59419 -3.831034,3.34782 -3.831034,3.93336 0,0.47685 0.812923,0.70753 1.552723,0.44062 0.342527,-0.12358 1.394087,-0.76906 2.336811,-1.43441 z m 48.158155,-0.086 c 1.723143,-0.19811 4.233974,-0.71831 5.579624,-1.15601 3.6071,-1.17329 11.698723,-5.20558 14.995443,-7.47266 1.58259,-1.08832 5.78321,-3.94057 9.33472,-6.33834 7.34046,-4.95582 9.23191,-6.76102 10.08144,-9.62168 0.98539,-3.31817 0.92133,-3.37777 -3.07097,-2.85708 -1.49815,0.1954 -2.837,0.24218 -2.97522,0.10396 -0.45945,-0.45945 1.02526,-1.19982 3.3765,-1.68373 2.74355,-0.56463 3.25256,-0.89492 3.25256,-2.11052 0,-2.75887 -2.12481,-3.07835 -6.88262,-1.03484 -1.68134,0.72214 -3.5936,1.46691 -4.24948,1.655 -1.81642,0.52095 -1.27192,-0.33336 1.11419,-1.74809 3.36728,-1.99649 3.23537,-1.85925 2.41241,-2.51006 -0.87439,-0.69148 -0.55321,-1.05954 1.4679,-1.68217 2.52233,-0.77705 3.16179,-1.35162 3.16179,-2.84094 0,-1.32337 -0.01,-1.3312 -1.3949,-1.15417 -2.53293,0.32363 -6.55865,2.04815 -8.42053,3.60712 -0.9999,0.83722 -1.90319,1.43703 -2.00732,1.3329 -0.1041,-0.1041 0.24713,-0.84882 0.78054,-1.65488 0.86253,-1.30336 3.37417,-3.61013 7.49147,-6.8804 1.78448,-1.41739 1.64128,-2.32836 -0.54098,-3.44152 l -1.67388,-0.85384 1.18469,-0.0109 c 0.65158,-0.005 1.65591,0.17131 2.23185,0.39353 0.57593,0.22222 2.03134,0.40634 3.23423,0.40917 1.72114,0.004 2.66103,-0.23928 4.41159,-1.1421 1.22345,-0.63099 3.4615,-1.43505 4.97342,-1.78679 1.51191,-0.35175 2.74895,-0.83668 2.74895,-1.07765 0,-0.50444 -1.85711,-1.9872 -3.63724,-2.90407 -0.67068,-0.34545 -2.30272,-0.72924 -3.62676,-0.85289 -5.20508,-0.48605 -1.67593,-1.2273 5.92101,-1.24362 4.47366,-0.01 5.0151,-0.0864 6.55064,-0.92829 3.86183,-2.11749 6.90977,-3.52493 7.63358,-3.52493 0.88165,0 1.66579,-0.65584 1.66579,-1.39322 0,-0.27526 -0.41087,-0.91134 -0.91303,-1.41351 -1.16438,-1.16437 -3.52326,-1.21521 -8.21919,-0.17711 -6.21282,1.3734 -10.15036,0.90395 -16.40158,-1.95549 -3.84476,-1.75866 -5.2382,-2.21656 -8.82067,-2.8986 -1.6489,-0.31393 -2.07411,-0.5194 -1.74879,-0.84512 0.30035,-0.30071 4.15389,-0.48636 12.7936,-0.61633 l 12.36378,-0.18599 1.42349,-1.17391 c 1.94696,-1.60557 4.31474,-4.53083 4.31474,-5.33061 0,-1.73421 -2.63171,-1.88092 -5.69617,-0.31757 -0.84489,0.43104 -2.01497,0.92103 -2.60017,1.08887 -1.1891,0.34103 -9.18616,-0.25525 -9.65048,-0.71956 -0.16352,-0.16352 1.1668,-1.03828 2.95625,-1.94392 3.92359,-1.98573 4.92104,-2.82308 8.07254,-6.77681 2.48899,-3.12257 3.3327,-3.91242 6.6779,-6.25144 2.4122,-1.68663 3.47736,-3.37166 2.91356,-4.60909 -0.69032,-1.51507 -11.22431,-7.25771 -13.31317,-7.25771 -1.8368,0 -6.40852,2.37244 -6.63281,3.44203 -0.0963,0.45962 -0.25132,3.68128 -0.34431,7.15925 -0.18256,6.82866 -0.70591,9.35351 -2.61346,12.60849 -2.81456,4.8027 -11.19465,9.18284 -17.69034,9.24646 -2.41817,0.0237 -3.27623,-0.16277 -6.14538,-1.33535 -1.83413,-0.74959 -3.54623,-1.36289 -3.80469,-1.36289 -0.55166,0 -3.089853,5.23725 -3.089853,6.3755 0,0.75592 1.16271,2.05739 4.307463,4.82148 2.91319,2.56058 4.10781,4.75748 4.38872,8.07082 0.14836,1.74996 -0.29547,2.10708 -0.68583,0.55181 -0.49853,-1.98634 -3.62075,-5.31258 -4.98671,-5.31258 -0.16838,0 -0.48967,1.99599 -0.71397,4.43553 -0.48991,5.3282 -0.0882,10.21249 1.24148,15.09315 0.99072,3.63667 1.15358,6.09738 0.48783,7.37097 -0.23359,0.44687 -1.49193,2.03842 -2.7963,3.5368 -1.304383,1.49838 -2.616493,3.25595 -2.915833,3.90574 -0.29933,0.64978 -1.13553,1.99799 -1.85826,2.996 -1.53313,2.11715 -1.91166,3.32212 -1.45068,4.61811 0.49302,1.3861 2.61813,1.96813 8.059843,2.20742 4.5934,0.20198 4.7309,0.23185 4.12895,0.89699 -0.79801,0.8818 -2.79166,1.43146 -5.20148,1.43409 -1.600633,0.003 -2.154283,0.20287 -3.508683,1.27466 -1.54624,1.22358 -2.1465,1.44478 -6.67999,2.46145 -1.125218,0.25235 -3.614793,0.93823 -5.532372,1.52417 -5.036405,1.53896 -8.876945,1.33717 -4.18852,-0.22009 3.055482,-1.01486 5.216466,-2.6196 6.042591,-4.4872 0.405521,-0.91676 0.974751,-1.66684 1.264933,-1.66684 0.932349,0 3.157332,-2.24856 3.157332,-3.19077 0,-1.11718 -1.243419,-1.78317 -4.868554,-2.60768 -3.96122,-0.90097 -9.12689,-3.77837 -12.222294,-6.80814 -4.075279,-3.98885 -5.227652,-5.62922 -5.227652,-7.44134 0,-1.24541 -0.303085,-1.95997 -1.508529,-3.55656 -1.70896,-2.26351 -2.192991,-2.54068 -3.883106,-2.22361 -1.511309,0.28352 -1.497193,0.31969 -2.44904,-6.2746 -0.797362,-5.52406 -1.421939,-7.32665 -2.538627,-7.32665 -0.966767,0 -1.50297,0.77592 -1.836262,2.65715 -0.27101,1.52968 -0.301736,1.44324 -0.547866,-1.54123 -0.382957,-4.64349 -0.465146,-4.8358 -2.065974,-4.83497 -0.963767,5.2e-4 -2.25411,0.54358 -4.497551,1.89285 -11.23704,6.75835 -23.442277,5.59963 -31.574502,-2.99754 -2.131567,-2.25345 -3.45715,-4.44423 -4.474677,-7.39536 l -0.98125,-2.84589 -1.618772,-0.11636 c -2.2016988,-0.15819 -4.0137348,1.07649 -5.4157658,3.69017 -0.591761,1.10317 -1.622882,2.46774 -2.291376,3.03238 -0.6684968,0.56464 -2.1310861,2.32223 -3.25019812,3.90574 -1.11911478,1.58351 -2.80577478,3.62537 -3.74813188,4.53747 -2.0774381,2.01069 -2.2410009,2.80912 -0.5044594,2.46249 4.04625408,-0.80772 10.1135674,-0.53153 16.4598932,0.74925 3.256831,0.65727 5.612493,1.64314 4.942274,2.06837 -0.263214,0.16702 -4.429046,0.30622 -9.2573998,0.30935 l -8.77882562,0.005 -1.91247198,2.08802 c -1.9470534,2.12579 -2.9091797,4.35989 -2.4714932,5.73891 0.2330185,0.73418 2.788063,4.16861 3.8674173,5.19849 1.31738418434,1.25702 4.8645895,3.34147 5.6863025,3.34147 0.99858,0 2.068093,-0.65943 4.210079,-2.59582 0.821443,-0.74258 3.7507458,-2.83045 6.5095658,-4.63971 2.75881,-1.80926 5.099722,-3.40108 5.202011,-3.5374 0.642815,-0.85665 5.406956,-4.4381 5.506482,-4.13952 0.182499,0.54751 -2.089739,3.93488 -4.885146,7.28261 -3.504303,4.19669 -3.210963,5.19337 1.052551,3.57625 1.022932,-0.38798 3.317649,-0.88316 5.099382,-1.10038 1.781723,-0.21722 3.874087,-0.71869 4.649685,-1.11437 1.1936,-0.60894 9.216155,-6.74312 9.779625,-7.47768 0.464703,-0.6058 4.911043,-4.10878 5.215284,-4.10878 0.668512,0 -0.895917,2.99555 -2.816822,5.39363 -3.959337,4.9429 -9.624298,9.26909 -16.283165,12.43505 -1.409977,0.67036 -3.631276,2.19682 -4.994215,3.43198 -2.875754,2.60613 -8.127289,5.31864 -13.4410018,6.94254 l -3.491856,1.06711 5.0642618,0.21233 c 4.398862,0.18443 5.321972,0.33643 7.025615,1.15675 3.065434,1.47599 5.578268,2.37749 7.380352,2.64772 1.416989,0.21251 2.070812,0.0564 4.538991,-1.08367 3.064431,-1.41549 7.259346,-2.96566 12.742379,-4.70878 3.278489,-1.04227 3.383572,-1.1118 4.456822,-2.94945 0.604529,-1.0351 1.478871,-2.13082 1.942974,-2.43491 0.782894,-0.51297 0.843828,-0.4976 0.843828,0.21271 0,0.42109 -0.269424,1.1768 -0.598719,1.67938 -0.571156,0.87168 -0.559178,0.92838 0.260157,1.23148 0.527219,0.19502 1.871623,0.12454 3.481528,-0.18247 3.030315,-0.57791 5.040479,-0.64526 5.040479,-0.16888 0,0.41018 -0.923397,0.78375 -1.93724,0.78375 -0.418261,0 -2.232055,0.34549 -4.030632,0.76774 -3.348659,0.78618 -4.237502,1.46147 -3.238526,2.46046 0.408387,0.40838 0.73919,0.36639 1.941161,-0.2464 0.796887,-0.40629 1.530045,-0.65754 1.629243,-0.55833 0.09922,0.0992 0.110625,0.22918 0.02541,0.28883 -0.0852,0.0597 -0.866394,0.5642 -1.735888,1.1212 -1.717465,1.10023 -1.870272,1.41488 -1.027001,2.11472 0.810045,0.6723 2.70092,0.19772 5.194147,-1.30364 2.502629,-1.50699 2.653954,-1.53458 3.166271,-0.5773 0.636772,1.18981 0.466849,1.63477 -1.506976,3.94629 -2.217134,2.59645 -2.774606,3.75486 -2.162128,4.49285 0.23403,0.28199 0.562472,0.51272 0.729847,0.51272 0.167389,0 1.568045,-1.17172 3.112559,-2.60384 1.544541,-1.43209 2.893584,-2.60381 2.9979,-2.60381 0.627644,0 -0.06976,1.23296 -1.856196,3.28123 -1.125231,1.29021 -2.045862,2.50043 -2.045862,2.68942 0,0.79378 9.328901,5.67857 15.994925,8.37521 3.26902,1.32245 3.89605,1.44692 8.369424,1.66152 2.659635,0.12753 4.919376,0.2594 5.021662,0.29292 0.102327,0.0335 1.595841,-0.1011 3.318971,-0.29924 z m 64.645157,-5.62422 c 8.15158,-2.73617 9.33396,-3.26815 8.88359,-3.99685 -0.61863,-1.00097 -6.91573,-0.0869 -9.90392,1.43744 -0.81191,0.4142 -1.47619,0.65747 -1.47619,0.54059 0,-0.1169 0.62771,-0.80057 1.39492,-1.51932 4.15197,-3.88972 10.77283,-7.48032 14.45524,-7.83928 2.01619,-0.19654 3.49255,-0.89665 3.49255,-1.65624 0,-0.17031 -0.66956,-0.73233 -1.48791,-1.24893 -0.81835,-0.51661 -1.48443,-1.1464 -1.48018,-1.39958 0.004,-0.25316 0.96674,-1.07436 2.13886,-1.8249 3.29812,-2.11182 5.29292,-3.97066 5.29292,-4.93214 0,-0.46483 -0.48194,-1.49797 -1.07099,-2.29586 -3.07154,-4.16056 -7.62287,-6.79308 -13.05397,-7.55052 l -2.05596,-0.28674 1.78479,-0.79992 c 2.11805,-0.94927 5.73441,-1.92692 7.12777,-1.92692 1.17036,0 2.43268,-0.60493 2.43268,-1.1658 0,-0.21761 -0.26944,-0.96346 -0.59876,-1.65744 -0.99057,-2.08749 -3.45901,-2.3575 -8.32617,-0.91079 -1.77649,0.52804 -1.79741,0.52114 -1.93062,-0.63669 -0.14462,-1.25679 -0.3866,-1.23681 -4.20942,0.34758 -3.88684,1.6109 -4.05291,1.72373 -3.5063,2.38236 0.23958,0.28867 0.64024,0.52485 0.89036,0.52485 0.25011,0 0.75774,0.33478 1.12804,0.74395 0.83112,0.9184 0.60092,0.92065 -3.12611,0.0305 -2.64538,-0.63184 -3.20167,-0.65692 -4.86103,-0.21919 -2.34619,0.61892 -3.99325,1.57142 -4.95992,2.86836 -1.07737,1.44544 -0.42625,2.0172 2.63527,2.31407 5.64042,0.54691 8.33935,1.12598 13.47357,2.89076 2.9665,1.01968 6.93995,2.28449 8.82989,2.81067 2.63229,0.73288 3.34653,1.06483 3.05278,1.41878 -0.21092,0.25414 -0.27472,0.89548 -0.14176,1.4252 l 0.24174,0.96314 -1.30384,-0.54477 c -1.23951,-0.51791 -1.41125,-0.49087 -3.48049,0.54793 -2.96396,1.48796 -5.54008,3.70178 -7.7353,6.64747 -1.01139,1.35713 -2.50373,3.05338 -3.31632,3.76944 -10.48948,9.24314 -11.93778,10.69446 -11.36324,11.38673 0.23575,0.28406 0.63327,0.51647 0.88339,0.51647 0.25013,0 0.75774,0.33478 1.12803,0.74394 0.3703,0.40917 1.02395,0.74535 1.45257,0.74703 0.4286,0.003 4.32985,-1.1887 8.66944,-2.64535 z M 55.125968,426.63646 c 3.107422,-3.10744 2.55848,-3.6757 -1.594614,-1.65073 -2.74612,1.33896 -3.127673,1.85079 -2.169207,2.9099 1.002013,1.10719 1.596251,0.90839 3.763821,-1.25917 z m -11.806726,-0.53943 c 0.697961,-0.34822 1.605825,-1.08858 2.017481,-1.64528 0.638807,-0.86391 0.68303,-1.15579 0.301847,-1.99238 -0.403642,-0.8859 -0.579834,-0.95523 -1.831481,-0.72062 -1.72589,0.32351 -6.618829,1.95195 -7.987431,2.65835 -2.323272,1.19912 -0.672507,2.31492 3.440764,2.32569 1.894365,0.005 3.19713,-0.19588 4.05882,-0.62576 z m 98.272138,-5.37578 c 3.70938,-1.93596 3.77293,-1.95343 7.33861,-2.01707 1.97825,-0.0353 3.86674,-0.0771 4.19664,-0.0931 0.32988,-0.0158 1.25051,-0.55465 2.04586,-1.19734 0.79532,-0.64268 2.82701,-1.813 4.51484,-2.6007 1.68784,-0.78771 3.0688,-1.59668 3.0688,-1.79772 0,-0.91447 -4.36646,-2.35353 -13.62529,-4.49046 -5.5545,-1.28197 -8.1163,-1.46619 -8.93964,-0.64286 -0.30502,0.30503 -0.64595,1.23574 -0.75761,2.06826 -0.22526,1.67935 -0.50093,1.52583 3.74694,2.08645 1.63293,0.2155 1.89882,0.37695 1.5501,0.94119 -0.13489,0.2182 -1.1978,0.4004 -2.36209,0.40489 -3.37553,0.0136 -4.9504,0.93898 -6.3455,3.73082 -0.64078,1.28229 -1.16504,2.85708 -1.16504,3.49954 0,2.67282 1.76481,2.70112 6.73338,0.10805 z M 2.8899509,421.01698 c 3.1165823,-0.94574 6.6326763,-2.93542 9.4457351,-5.34512 4.353248,-3.72905 3.493888,-3.94984 -3.0868078,-0.79307 -2.08302,0.99922 -4.217226,1.92469 -4.742682,2.05657 -2.0963629,0.52615 -3.75368052,-0.61104 -5.9889041,-4.10941 -0.7810808,-1.22247 -1.488366,-2.01802 -1.5717429,-1.76789 -0.2360774,0.70823 2.52294698,8.93903 3.36386388,10.03517 0.4408749,0.57468 0.4348933,0.57485 2.58053782,-0.0762 z m 90.2425421,-1.23567 c 1.479264,-1.73098 4.900414,-7.83037 4.891814,-8.72138 -0.0123,-1.24422 -1.34921,-3.98203 -2.08233,-4.26335 -0.93139,-0.35741 -6.906713,1.09629 -10.946484,2.66308 -1.933753,0.75 -4.47798,1.58211 -5.653857,1.84911 -2.390437,0.54281 -3.25568,1.09519 -3.25568,2.07846 0,0.86408 1.807103,2.36904 4.015286,3.3439 0.962679,0.42501 2.810169,1.46245 4.105555,2.30544 3.635721,2.36597 7.280341,2.67007 8.925696,0.74474 z m -99.7672346,-6.63448 c 0.2968225,-1.18263 -0.4187648,-8.35449 -1.0243156,-10.26603 -0.6829433,-2.15586 -2.4437478,-4.07713 -3.6114548,-3.94062 -1.439359,0.16832 -1.966229,1.5077 -1.832373,4.65819 0.06273,1.47666 0.0083,2.56469 -0.120817,2.41784 -0.376532,-0.42802 -4.197279,-6.0483 -4.701544,-6.91593 -0.890617,-1.53237 -0.565016,-2.67078 1.306642,-4.56843 2.498263,-2.53295 4.002662,-3.78918 6.749781,-5.63629 3.279818,-2.20528 3.9345185,-2.74884 4.4331762,-3.68059 0.8278583,-1.54687 0.6598142,-1.59828 -5.2240672,-1.59828 h -5.655117 l 1.377404,-1.41059 c 1.434794,-1.46935 1.794718,-2.68113 0.796359,-2.68113 -0.319577,0 -2.160674,0.36284 -4.091332,0.80634 -1.930657,0.44348 -3.6065,0.71013 -3.724096,0.59253 -0.117587,-0.11759 0.06591,-0.75473 0.407798,-1.41587 0.483344,-0.93469 0.532587,-1.39742 0.221389,-2.08043 -0.52776,-1.15831 -1.69427,-1.1267 -3.28829,0.0891 -0.697654,0.53213 -1.337015,0.89896 -1.420802,0.81516 -0.08378,-0.0838 -0.263697,-1.35049 -0.399799,-2.81488 -0.402373,-4.32938 -2.198646,-6.32208 -3.307226,-3.66887 -0.668966,1.60106 -2.038723,10.8893 -2.041356,13.84233 -0.0033,3.6373 3.286643,11.93387 6.011936,15.16114 0.874619,1.03571 1.086298,1.12251 1.753457,0.71892 0.675706,-0.40873 1.075903,-0.20521 3.656193,1.8595 1.59359,1.27515 3.500284,2.90449 4.237099,3.62077 6.030913,5.86272 7.4496882,7.06791 8.3205226,7.06791 0.689147,0 0.9894957,-0.24929 1.1708328,-0.9718 z m 81.8386806,-4.80739 c 1.201152,-0.72352 3.142194,-1.66505 4.313438,-2.09229 1.60542,-0.58563 2.311804,-1.08579 2.870258,-2.03228 0.812254,-1.37668 1.650124,-1.58042 2.677089,-0.65103 0.881172,0.79746 1.971726,0.76243 4.833222,-0.15522 1.302894,-0.41781 3.359071,-0.94035 4.569261,-1.16115 2.94342,-0.53707 4.83739,-1.49652 4.98366,-2.52466 0.0642,-0.45029 -0.92482,-3.00448 -2.1975,-5.67597 -2.18693,-4.59051 -2.66399,-6.64248 -1.01943,-4.38487 0.40956,0.56224 0.97506,1.02225 1.25666,1.02225 0.73466,0 2.02978,-4.49078 2.02978,-7.03822 0,-2.07895 -0.0307,-2.14139 -1.43957,-2.93325 -2.41946,-1.35981 -2.41807,-1.3551 -2.52395,-8.56818 -0.0604,-4.11367 -0.38187,-8.5845 -0.8602,-11.9623 -3.018804,-21.31786 -2.760588,-18.07407 -2.812978,-35.33763 -0.03107,-10.2072 -0.192704,-16.32248 -0.456452,-17.25825 -0.855666,-3.03597 -2.290767,-2.32403 -2.682758,1.33089 -0.289268,2.69699 -0.316342,2.65438 -1.865339,-2.93348 -2.814433,-10.15288 -5.889958,-16.72278 -9.705509,-20.73281 -1.12132,-1.17849 -1.526977,-1.40505 -1.881307,-1.05072 -0.35433,0.35433 0.0041,1.40478 1.66285,4.87171 3.947445,8.2511 4.03969,8.65145 4.342488,18.84781 0.23801,8.01501 0.349998,9.13647 1.095596,10.97325 1.4201,3.49831 1.887085,6.83716 1.420032,10.15286 -0.335772,2.38364 -0.293016,3.72903 0.240298,7.56404 0.356783,2.56559 0.551995,4.7614 0.433808,4.87959 -0.118133,0.11813 -1.261759,-0.78751 -2.541284,-2.01265 -3.017535,-2.88932 -4.148135,-3.60988 -5.235719,-3.33693 -1.160249,0.29121 -1.722326,1.65195 -2.119004,5.13004 -0.344806,3.02321 -0.883515,5.35763 -1.432839,6.20892 -0.360952,0.55941 -0.598403,-0.46426 -0.979208,-4.22151 -0.51229,-5.05462 -1.208074,-6.99719 -3.579326,-9.99321 -0.787796,-0.99536 -1.340826,-1.95785 -1.228975,-2.13885 0.349888,-0.56611 1.949639,-0.36064 3.219301,0.41346 2.544581,1.55144 3.392752,0.27564 1.586384,-2.38621 -1.853048,-2.73061 -2.477258,-4.38139 -2.682403,-7.0937 -0.244672,-3.23523 0.264293,-3.87272 1.366702,-1.71182 1.526324,2.99185 6.181502,6.78366 7.640762,6.2237 1.399865,-0.53717 -0.289664,-5.35526 -3.996715,-11.39748 -2.019702,-3.29199 -4.000721,-8.30546 -3.485406,-8.82077 0.124128,-0.12419 0.874032,-0.0316 1.666285,0.20575 3.064174,0.91806 3.197949,0.57267 1.69126,-4.36697 -1.677771,-5.50058 -6.207282,-15.96495 -7.16725,-16.55824 -0.704832,-0.43561 -1.19449,0.8421 -1.007017,2.62771 0.104235,0.99232 0.369877,3.89658 0.590405,6.4539 0.372983,4.3249 0.825307,7.91939 1.334055,10.60129 0.199517,1.05175 0.180728,1.07314 -0.326671,0.37197 -0.296094,-0.40917 -1.302021,-2.50153 -2.235419,-4.64968 -0.933385,-2.14815 -2.164936,-4.74268 -2.736796,-5.76562 -1.810224,-3.23812 -6.071232,-9.48535 -6.469613,-9.48535 -0.920454,0 -0.597831,1.29824 1.711766,6.88794 1.351046,3.26985 3.038954,7.368 3.750857,9.10697 1.935142,4.72689 2.720582,8.6978 2.982082,15.07637 0.210826,5.14246 -0.04687,10.17204 -0.497902,9.72091 -0.103281,-0.10328 -0.347762,-1.49825 -0.543438,-3.1001 -0.377875,-3.09335 -2.529307,-10.87918 -3.622328,-13.10882 -0.359903,-0.73417 -1.440006,-2.679 -2.400192,-4.32187 -1.053493,-1.80246 -2.487477,-5.19529 -3.615992,-8.55542 -2.448492,-7.29036 -2.812814,-8.13335 -4.657221,-10.77605 -1.610824,-2.30802 -5.044943,-5.76561 -5.726467,-5.76561 -0.693289,0 -0.411528,1.46233 0.70975,3.68357 0.603706,1.19594 2.254133,5.58992 3.667611,9.76438 1.413478,4.17447 2.854666,8.14051 3.202645,8.81343 0.347978,0.6729 0.571926,1.40578 0.497652,1.62858 -0.196005,0.58803 -4.805612,-5.73492 -8.780257,-12.04381 -4.006427,-6.35933 -5.60718,-8.28068 -8.792987,-10.55402 -3.524083,-2.51473 -10.64279,-6.49978 -11.610904,-6.49978 -0.845853,0 -1.195804,0.86199 -0.519607,1.27991 0.184999,0.11433 1.554792,2.25841 3.043988,4.76462 1.489194,2.50622 3.940535,6.36578 5.447424,8.57682 2.914673,4.27669 6.96238,11.84521 6.721467,12.56797 -0.07982,0.2394 -1.304008,-0.58508 -2.732259,-1.84011 -2.437707,-2.14205 -3.889587,-2.83428 -3.889587,-1.85447 0,0.73792 3.471078,6.24848 5.125796,8.13756 1.085819,1.23959 3.592389,4.81531 5.204942,7.42507 3.676974,5.95079 8.907494,11.9032 10.459618,11.9032 1.870439,0 2.481173,-1.90381 2.843991,-8.86559 0.142182,-2.72791 0.375491,-4.82026 0.518476,-4.64967 0.226919,0.27071 1.799501,5.06032 2.45761,7.48509 0.127126,0.46825 0.352845,3.56495 0.501676,6.88154 0.22358,4.98186 0.407156,6.32104 1.055959,7.70338 0.431927,0.92027 0.712775,1.74576 0.624101,1.83445 -0.0887,0.0887 -0.737737,-0.39753 -1.442337,-1.08046 -1.80931,-1.75365 -2.270641,-1.22924 -2.530356,2.8763 -0.19231,3.03972 -1.074776,6.55001 -1.751839,6.96847 -0.163437,0.10096 -0.662136,-1.19606 -1.108217,-2.88237 -1.246554,-4.71225 -2.96344,-9.18074 -4.385322,-11.41353 -2.485619,-3.90322 -7.390778,-9.36693 -9.35132,-10.41619 -1.492854,-0.79895 -1.258236,0.52488 1.042217,5.88069 2.261631,5.26545 5.498291,13.50642 6.356481,16.18447 0.254083,0.79288 1.679085,3.80588 3.166679,6.69555 1.487592,2.88968 3.314856,6.84414 4.060589,8.78772 0.745735,1.94356 1.595446,4.03592 1.888257,4.64968 0.292811,0.61376 0.854848,1.95287 1.24895,2.9758 0.915795,2.37698 2.504891,6.01341 3.234943,7.40277 0.3119,0.59355 1.1636,2.68592 1.892685,4.64969 0.729085,1.96377 1.964696,4.74221 2.745816,6.17432 0.967448,1.77371 1.608022,3.61181 2.009305,5.76561 0.324,1.73899 0.770861,3.61008 0.99301,4.15799 0.886173,2.18568 2.124822,1.32966 2.967502,-2.05081 0.4655,-1.86729 1.275275,-2.59325 1.892263,-1.69641 0.21535,0.31302 0.294787,4.17495 0.200049,9.72555 -0.08638,5.06351 -0.03325,9.20638 0.118269,9.20638 0.151406,0 1.258066,-0.59198 2.459218,-1.3155 z M 136.0486,398.07788 c 3.32068,-0.70382 6.57136,-2.83102 6.60913,-4.32487 0.0394,-1.55576 -10.99127,1.08773 -12.59323,3.01797 -1.29545,1.56092 1.69963,2.21504 5.9841,1.3069 z m 15.1763,-0.72083 c 0.92064,-0.37718 3.43651,-1.2131 5.59082,-1.85761 6.85182,-2.04984 6.91453,-3.0736 0.17479,-2.85343 -4.05258,0.13244 -4.11842,0.14914 -6.88154,1.75049 -3.23602,1.87539 -4.09172,2.54453 -4.09172,3.19964 0,1.04736 2.32849,0.94047 5.20765,-0.23909 z M 41.309639,386.14577 c 1.54507,-0.79847 8.34625,-5.6049 10.668763,-7.53968 0.582428,-0.48519 0.527587,-0.72453 -0.743956,-3.24651 -0.755004,-1.49749 -1.740483,-3.56257 -2.18995,-4.58904 -1.118674,-2.55483 -3.630538,-5.26737 -4.335731,-4.68212 -0.439788,0.365 -0.370797,0.79068 0.445607,2.74946 1.360229,3.2636 1.31298,6.68131 -0.13462,9.73841 -2.692664,5.68648 -8.421683,8.30679 -13.258926,6.06434 -4.126958,-1.91319 -7.542964,-6.78266 -7.502938,-10.69532 0.02352,-2.29568 1.329356,-5.88768 2.879159,-7.91958 1.160629,-1.52165 1.21954,-2.12374 0.207805,-2.12374 -1.461876,0 -7.287183,3.36403 -9.654233,5.57518 -1.108973,1.03595 -1.112093,1.05032 -0.536551,2.47609 3.193693,7.91159 7.30574,12.60679 12.829854,14.64929 3.021347,1.11712 8.725333,0.88707 11.325717,-0.45678 z M 178.21295,385.4444 c 0.13737,-0.22228 -0.29304,-0.96416 -0.95647,-1.64864 -0.66342,-0.68448 -1.81212,-2.08479 -2.55265,-3.1118 -0.74054,-1.02703 -2.16534,-2.80006 -3.16622,-3.94007 -1.0009,-1.14002 -1.71665,-2.17593 -1.59057,-2.30202 0.12603,-0.12604 1.63798,0.49519 3.35975,1.3806 3.06556,1.57649 3.15059,1.59667 4.10137,0.9737 1.4149,-0.92708 1.24245,-1.95327 -0.47549,-2.8297 -3.4033,-1.73623 -9.94815,-7.81767 -11.56323,-10.74446 -0.83829,-1.51918 -0.7462,-7.31559 0.14261,-8.9732 0.70045,-1.30635 1.48358,-2.25002 1.86719,-2.25002 0.1169,0 0.21256,0.903 0.21256,2.00667 0,3.81534 2.58837,9.89653 4.21229,9.89653 0.77156,0 0.78067,0.43763 -0.14323,-6.88154 -0.29616,-2.34633 -0.35513,-4.40646 -0.15969,-5.57962 l 0.30984,-1.85988 0.3383,1.67389 c 0.53523,2.64835 1.77355,5.9654 2.91138,7.79864 1.49847,2.41429 6.1476,7.4494 8.41249,9.11089 1.06277,0.77964 2.02,1.64604 2.12718,1.92535 0.27942,0.72816 2.31718,0.64669 2.60531,-0.10424 0.1433,-0.37343 -0.40923,-1.74877 -1.41747,-3.52836 -0.90879,-1.60402 -1.85673,-3.54652 -2.10657,-4.31669 -0.5653,-1.74271 -1.27312,-2.78086 -4.72247,-6.9264 -1.50757,-1.81183 -2.66667,-3.36864 -2.57576,-3.45955 0.21708,-0.21708 5.74244,3.07658 8.7868,5.23781 1.31861,0.93608 2.60999,1.70199 2.86971,1.70199 0.72594,0 1.2024,-1.18571 1.59481,-3.96887 0.31419,-2.22827 0.24959,-2.92474 -0.5253,-5.66383 -0.48594,-1.71774 -1.2317,-3.60086 -1.65725,-4.18472 -0.42555,-0.58387 -1.13845,-1.56168 -1.58423,-2.17292 -0.4458,-0.61125 -0.73404,-1.18786 -0.64052,-1.28137 0.0935,-0.0935 0.81346,-0.0249 1.59991,0.15248 2.33603,0.52687 5.35914,3.91501 6.72371,7.53559 0.69289,1.83837 1.50981,2.81328 1.9708,2.35192 0.50265,-0.50309 0.10478,-4.47156 -0.70292,-7.01025 -0.94776,-2.97912 -2.57268,-4.81383 -5.35066,-6.04154 -4.64831,-2.05428 -12.74839,-2.95201 -16.87302,-1.87001 -1.3013,0.34136 -2.45126,0.5354 -2.55548,0.43118 -0.48238,-0.4824 0.42092,-2.93315 1.50464,-4.08224 1.70812,-1.81114 3.56399,-2.21584 8.69187,-1.89544 3.80465,0.23772 4.21033,0.20265 4.21033,-0.36395 0,-0.34485 -0.14419,-0.90893 -0.32045,-1.25352 -0.17623,-0.34457 -0.4241,-1.42159 -0.55083,-2.39337 -0.28593,-2.19268 0.29233,-2.33868 1.60873,-0.40619 0.94077,1.38107 5.17992,4.76209 7.33453,5.8498 1.58182,0.79855 3.08727,0.79066 3.08727,-0.0161 0,-0.69415 -2.0175,-3.39181 -4.82406,-6.45036 l -1.8773,-2.04586 1.02583,-0.1259 c 2.2666,-0.2782 2.57556,-1.91087 0.85294,-4.50746 -0.6048,-0.91167 -1.02005,-1.73717 -0.92277,-1.83445 0.26197,-0.26197 2.7043,2.19175 3.56839,3.585 0.84219,1.358 1.80499,1.59941 1.80499,0.45261 0,-1.02034 -1.55691,-4.02301 -2.75324,-5.30989 -0.53409,-0.5745 -1.93253,-1.48913 -3.10764,-2.03251 -1.91032,-0.88334 -2.67819,-1.00368 -7.25124,-1.13651 -2.81306,-0.0818 -5.11464,-0.22428 -5.11464,-0.3168 0,-0.53437 0.99034,-1.92971 1.9953,-2.81124 1.1197,-0.98217 3.92594,-2.12103 8.60597,-3.4926 1.41262,-0.41398 2.67561,-1.09205 3.44077,-1.84726 1.13183,-1.1171 1.20892,-1.35688 1.20892,-3.75982 0,-1.5003 -0.18544,-2.75207 -0.44637,-3.013 -0.84218,-0.84217 -2.70659,-0.50188 -4.42124,0.80699 -0.90307,0.68934 -2.43705,1.70959 -3.40883,2.2672 -2.52364,1.44807 -2.32819,0.54645 0.70067,-3.23208 1.35717,-1.69305 2.6313,-3.28539 2.83143,-3.53852 0.20014,-0.25313 0.26475,-0.71853 0.14361,-1.03423 -0.19317,-0.50338 -0.39281,-0.48447 -1.62251,0.15377 -3.60381,1.87043 -13.36827,10.90015 -16.02946,14.82327 -7.3175,10.78751 -12.88409,32.60034 -12.1748,47.70729 0.44457,9.46892 1.20406,15.58318 2.44756,19.70449 1.82011,6.03233 3.53162,7.81305 3.51592,3.65808 -0.004,-1.15431 0.12113,-2.01895 0.279,-1.92142 0.15778,0.0975 0.2869,0.50222 0.2869,0.8993 0,1.33655 2.79999,3.58646 7.11778,5.71947 4.24029,2.09471 5.28303,2.3976 5.73522,1.66595 z m -213.762352,-2.47869 c 0.22183,-0.97178 0.586638,-3.94295 0.810686,-6.60257 0.224049,-2.65961 0.574647,-5.50522 0.779106,-6.32356 0.204461,-0.81835 0.431256,-2.65963 0.503991,-4.09174 0.142751,-2.81069 0.709208,-7.51597 1.357898,-11.27939 0.478657,-2.77696 0.87298,-2.61626 1.639145,0.66799 0.67861,2.90894 1.217344,3.68208 6.112602,8.77231 2.175241,2.26187 4.362077,4.84992 4.859635,5.75122 1.411063,2.55604 2.628998,3.16219 7.475424,3.72041 6.2093865,0.71522 6.8398501,0.66313 9.9821151,-0.82469 4.254977,-2.01469 8.1692301,-3.56482 10.2293121,-4.05103 2.1523228,-0.50798 2.9498698,-0.94554 8.7414088,-4.79585 5.026091,-3.34142 6.945066,-4.27937 10.742044,-5.25048 5.23805,-1.33966 13.952544,-0.88436 18.365005,0.95951 0.905935,0.37856 0.827159,-0.22855 -0.32456,-2.50136 -1.281813,-2.52951 -3.386904,-5.34983 -5.245441,-7.02763 -2.121635,-1.91531 -8.025369,-5.79563 -10.447608,-6.86685 -2.380168,-1.05263 -9.340038,-3.23552 -12.438485,-3.9012 -2.148965,-0.46169 -2.616347,-0.82227 -1.580887,-1.21961 0.817616,-0.31374 0.680657,-0.86206 -0.278979,-1.11689 -1.291647,-0.343 -14.6032203,0.45062 -17.9833258,1.07213 -10.8291282,1.99121 -22.9134582,6.6629 -26.4922422,10.2417 -1.708498,1.70848 -2.516919,1.77647 -1.198843,0.10083 l 0.814287,-1.0352 -3.124434,-0.61497 c -4.125579,-0.81202 -7.349056,-2.48778 -9.951198,-5.17323 -1.537501,-1.58674 -4.488105,-6.95524 -5.769535,-10.49742 -0.498996,-1.37936 -1.260854,-3.201 -1.693015,-4.04811 -0.503289,-0.98654 -0.902856,-2.75933 -1.111513,-4.9316 -0.204568,-2.12967 -0.733212,-4.50221 -1.42096,-6.37721 -2.796648,-7.62445 -2.189785,-10.1677 2.742158,-11.49185 0.409172,-0.10985 3.205934,-0.4569 6.215026,-0.7712 3.009091,-0.31432 5.729159,-0.67051 6.044594,-0.79156 1.745642,-0.66986 -0.559272,-1.89938 -4.82012,-2.57121 -1.754909,-0.2767 -5.93018,-1.56271 -7.253513,-2.23411 -1.664788,-0.84465 -2.536834,-1.84916 -4.045393,-4.65987 -2.735361,-5.09649 -3.541398,-8.44894 -3.996118,-16.62054 l -0.253561,-4.5567 h 1.14169 c 3.049524,0 16.41376,3.17649 23.70627,5.63465 6.148349,2.07248 12.944998,6.32036 16.120985,10.07555 2.231825,2.63885 2.554915,-0.1511 0.385806,-3.33154 -2.222237,-3.25833 -8.083983,-8.74495 -11.328854,-10.60386 -8.445104,-4.838 -12.130394,-6.03972 -30.504178,-9.94699 -3.869572,-0.82289 -7.249935,-1.49683 -7.511917,-1.49766 -0.545171,-0.002 -2.622707,2.23746 -3.382563,3.64574 -0.94636,1.75393 -0.214443,4.93278 4.047977,17.5811 2.248747,6.67294 4.088992,12.70291 4.089432,13.39993 4.4e-4,0.69702 0.409735,3.69446 0.909546,6.66096 0.499809,2.96649 1.095523,6.90013 1.32381,8.7414 0.50229,4.0513 1.106754,5.71391 4.868526,13.3911 1.60393,3.27338 3.426195,7.36469 4.049475,9.0918 1.923391,5.3297 4.371471,9.31522 8.488025,13.81866 l 1.901185,2.07987 -1.427437,2.9418 c -0.785091,1.61799 -1.779338,3.98108 -2.209438,5.2513 -0.751087,2.21821 -0.759702,2.43736 -0.217926,5.54415 1.235383,7.0842 3.266114,15.02829 4.719813,18.46358 0.580445,1.37168 0.937143,1.76688 1.594713,1.76688 0.705902,0 0.91423,-0.29439 1.250354,-1.76688 z m 70.343576,-8.70536 c 2.417853,-1.78759 2.413583,-5.34607 -0.0095,-7.53477 -1.274748,-1.15165 -1.730647,-1.33569 -3.308719,-1.33569 -2.271393,0 -3.780507,1.13413 -4.694834,3.52828 -1.052435,2.75575 -0.14745,5.02906 2.435704,6.11853 1.393359,0.58766 4.274449,0.18659 5.576886,-0.77635 z m 81.037236,-7.95107 c 3.94161,-0.41754 10.58623,-5.67661 12.76574,-10.10384 0.79186,-1.60847 1.25042,-3.15825 1.35264,-4.57151 0.30475,-4.2131 -2.11158,-9.69769 -5.02899,-11.41484 -1.50566,-0.88619 -1.7809,-0.91799 -6.94461,-0.80212 -2.95726,0.0664 -5.49783,0.24215 -5.64575,0.39064 -0.53924,0.54137 0.68443,1.37356 2.37834,1.61746 2.54264,0.36607 3.93041,1.0371 5.45676,2.63848 2.5085,2.63179 3.28297,4.36604 3.46053,7.74896 0.24175,4.60587 -0.49228,6.69156 -3.38156,9.60828 -2.53849,2.56261 -4.03633,3.22515 -7.29136,3.22515 -2.56179,0 -6.25534,-1.669 -7.70614,-3.48214 -0.59232,-0.74025 -1.51828,-2.5612 -2.0577,-4.04655 -1.01064,-2.78288 -1.90786,-3.58483 -2.31334,-2.06768 -0.37733,1.41183 -0.73531,8.68104 -0.47798,9.7063 0.51448,2.04984 0.84363,2.13293 7.60812,1.9201 3.41401,-0.10737 6.93538,-0.2724 7.8253,-0.36669 z m -4.40405,-10.31176 c 1.99381,-1.35699 2.78602,-2.70482 2.78602,-4.74 0,-1.9787 -0.88271,-3.28495 -2.94445,-4.35716 -1.35958,-0.70709 -3.86563,-0.46963 -5.18253,0.49106 -2.00112,1.45982 -2.84608,5.09075 -1.62008,6.96183 0.69912,1.067 3.41306,2.4805 4.7634,2.48091 0.53235,1.7e-4 1.52128,-0.37633 2.19764,-0.83664 z m -156.637817,-6.28303 c 0.528149,-0.9453 0.490786,-1.04361 -0.98968,-2.60383 -3.440793,-3.62616 -5.89367,-8.11989 -9.006671,-16.50043 -1.063925,-2.86421 -2.479625,-6.29569 -3.145999,-7.62549 -0.666373,-1.32981 -1.606554,-3.50586 -2.08929,-4.83568 -0.482737,-1.3298 -1.503315,-3.60498 -2.267951,-5.05593 -1.542651,-2.92726 -3.663537,-8.78679 -3.667725,-10.13307 -0.0015,-0.47737 -0.327041,-2.15126 -0.723458,-3.71974 -1.910553,-7.55941 -6.687292,-34.09015 -6.708399,-37.25948 -0.0094,-1.41408 0.662514,-3.5243 1.38716,-4.35643 0.356597,-0.40948 1.401609,-1.14197 2.322247,-1.62775 1.451229,-0.76576 2.143943,-0.87615 5.20765,-0.8299 3.00942,0.0454 4.830818,0.3882 12.275174,2.31008 23.073484,5.95676 31.827014,9.18179 40.068388,14.76222 4.0854319,2.76633 8.8714407,7.90901 12.52200878,13.45519 0.9762968,1.48324 1.92961972,2.69681 2.11849312,2.69681 1.2620963,0 -0.8272452,-15.79771 -2.52867252,-19.11954 l -0.5525355,-1.07876 1.8053024,0.24431 c 0.99291572,0.13436 3.17741292,0.58658 4.85443692,1.00491 1.833337,0.45732 3.909812,0.71589 5.2076498,0.64847 1.992391,-0.10354 2.166909,-0.18399 2.267572,-1.0455 0.07807,-0.66819 -0.387124,-1.5136 -1.637454,-2.97579 -1.5966098,-1.86716 -1.6779358,-2.05264 -0.947534,-2.16112 0.439441,-0.0653 2.301884,0.64614 4.138765,1.58089 3.437639,1.74935 5.962651,2.2434 5.962651,1.16666 0,-0.29309 -0.317199,-0.63357 -0.704898,-0.75662 -0.387699,-0.12305 -1.502798,-1.07674 -2.477996,-2.1193 -0.975199,-1.04257 -2.496471,-2.44775 -3.380601,-3.12262 l -1.607515,-1.22704 1.247239,-0.77084 c 0.895065,-0.55318 1.57602,-0.70508 2.411615,-0.53796 1.374896,0.27497 1.494668,-0.17555 0.327439,-1.23165 -1.19029,-1.07697 -3.023998,-1.60427 -5.578928,-1.60427 -1.8454208,0 -2.6241948,0.22524 -4.6871728,1.35559 -5.90825932,3.2373 -9.6049141,6.4378 -10.676397,9.24344 -0.3520709,0.92187 -0.7753975,1.67614 -0.9407261,1.67614 -0.1653286,0 -3.0300443,-0.9009 -6.3660331,-2.00201 -9.321109,-3.07662 -13.939561,-4.55519 -17.596659,-5.63347 -29.201699,-8.60995 -39.756998,-10.70999 -44.536478,-8.8608 -6.022565,2.33013 -5.909166,6.68857 0.994634,38.22821 0.496052,2.26619 1.157601,5.37576 1.470109,6.91016 2.598073,12.75639 2.931755,13.92925 4.711668,16.56131 1.448594,2.14211 2.763541,5.48393 3.509456,8.91897 2.603585,11.98984 4.462281,15.85744 11.707169,24.36049 1.131236,1.32769 2.267124,2.63801 2.524197,2.91181 0.257072,0.27381 0.644954,0.82959 0.861962,1.23508 0.562237,1.05055 2.21357,0.78112 2.915787,-0.47572 z m 20.119208,-5.37182 c 2.085496,-1.66226 10.540311,-5.12806 16.5528879,-6.78535 9.51651168,-2.62312 17.7808533,-3.45095 26.2242361,-2.62683 6.401304,0.62478 9.003299,0.64472 9.197534,0.0704 0.499846,-1.47787 -12.691103,-6.73473 -24.0765339,-9.59499 -8.8990768,-2.23562 -10.8645641,-2.42122 -25.6403171,-2.42122 -7.85242,0 -13.461498,0.14295 -13.58716,0.34627 -0.320533,0.51864 0.360372,0.80571 2.316536,0.9767 2.657271,0.23224 6.524262,0.96159 7.152942,1.34911 0.934649,0.5761 -9.571452,0.0511 -12.903636,-0.64484 -1.675465,-0.3499 -3.319395,-0.53141 -3.65318,-0.40333 -0.538828,0.20678 -0.514716,0.36233 0.215036,1.38717 0.452052,0.63484 1.342733,1.47255 1.97929,1.86154 2.658415,1.62458 9.567924,3.63783 12.762033,3.71854 1.073694,0.0271 0.65273,0.19682 -1.747319,0.70434 -5.479876,1.15877 -9.423589,2.99182 -8.757062,4.07027 0.196189,0.31745 0.781356,0.39438 1.826067,0.2401 3.402862,-0.50254 6.559021,-0.65728 6.559021,-0.32159 0,0.94083 -4.049291,3.4546 -5.564807,3.4546 -0.417322,0 -0.758768,0.15147 -0.758768,0.33662 0,0.361 4.768694,3.25114 7.693261,4.6626 1.83159,0.88395 2.725206,0.80326 4.209939,-0.38016 z M 105.54525,340.1348 c 1.16553,-0.99774 2.71811,-2.18423 3.45017,-2.63667 3.02609,-1.87022 8.16465,-2.49544 15.81925,-1.92478 l 5.02166,0.37438 3.16179,-2.14893 c 4.74557,-3.22535 5.12648,-3.36925 9.96482,-3.76454 5.71397,-0.4668 8.73083,-0.97296 11.27235,-1.89124 1.96654,-0.71052 4.05713,-2.20574 4.05713,-2.90169 0,-0.42758 -0.96005,-0.76839 -2.16927,-0.77008 -2.0273,-0.003 -3.96458,-1.83177 -5.6754,-5.35794 -0.84279,-1.73711 -1.44232,-1.91203 -4.10627,-1.19816 -6.78079,1.81711 -6.33517,1.75424 -6.06033,0.85493 0.47326,-1.54861 2.63719,-4.16184 4.29505,-5.18681 1.38875,-0.8586 2.31254,-1.08851 5.4783,-1.3635 3.65776,-0.31772 4.90692,-0.737 6.28481,-2.10958 0.51426,-0.51227 4.29789,-2.00444 5.08256,-2.00444 0.74191,0 4.38567,-1.73612 5.24282,-2.49801 0.41073,-0.36509 1.41506,-1.48757 2.23185,-2.49444 0.81679,-1.00686 3.11621,-3.42653 5.10982,-5.37705 2.53085,-2.47614 3.50644,-3.66366 3.23274,-3.93496 -0.2544,-0.25216 -3.06611,-0.34984 -8.00988,-0.27826 -5.5386,0.0802 -8.50449,-0.0427 -10.86627,-0.45028 -3.24151,-0.55939 -7.13805,-1.91052 -7.13805,-2.47513 0,-0.16394 2.38528,-0.20968 5.30064,-0.10164 4.96453,0.18396 5.51293,0.13369 8.64842,-0.79282 4.13577,-1.22209 6.63132,-2.30207 6.35449,-2.74998 -0.11541,-0.18677 -0.6484,-0.44964 -1.18437,-0.58416 -4.74286,-1.19037 -15.75246,-8.90816 -14.49769,-10.16294 0.11991,-0.11994 1.28268,-0.0219 2.58385,0.21785 2.57467,0.4744 4.8157,0.56606 5.17029,0.21147 0.12345,-0.12345 -0.69912,-1.33701 -1.82792,-2.69682 -2.21723,-2.671 -2.19971,-2.58585 -1.40982,-6.84309 0.24146,-1.30135 0.19798,-1.39489 -0.64842,-1.39489 -0.62075,0 -1.25284,0.45973 -2.00155,1.45579 -1.11496,1.48329 -4.08664,3.75184 -4.91472,3.75184 -0.32329,0 -0.46263,-0.89915 -0.47557,-3.06878 l -0.0184,-3.0688 -1.32033,2.60383 c -1.85749,3.66311 -3.91159,6.59749 -4.32731,6.18177 -0.18848,-0.18848 -0.46163,-2.28616 -0.607,-4.66153 -0.39302,-6.4217 -1.52247,-6.94274 -2.46246,-1.13599 -0.49818,3.07751 -0.9859,4.32118 -1.49496,3.81211 -0.39566,-0.39564 -0.89476,-7.13078 -0.6969,-9.40401 0.19977,-2.29531 -0.18808,-4.46371 -0.79841,-4.46371 -0.61382,0 -2.72867,4.4014 -3.17252,6.60256 -0.77836,3.86006 -1.43752,2.41807 -1.44534,-3.16178 -0.005,-3.89818 -0.32859,-4.43638 -1.60826,-2.67862 -0.75072,1.03122 -2.09277,4.6957 -2.16024,5.89864 -0.0241,0.42828 -0.25536,-1.37161 -0.51405,-3.99977 -0.33586,-3.41181 -0.64176,-4.94985 -1.0696,-5.37769 -0.8418,-0.8418 -1.26844,-0.27084 -1.75191,2.34458 -0.43954,2.37771 -2.11658,6.04172 -3.15995,6.9039 -0.59732,0.49362 -0.62912,0.44803 -0.4046,-0.58021 0.57536,-2.63511 0.71517,-4.64968 0.32267,-4.64968 -0.22063,0 -1.17478,0.66955 -2.12029,1.48789 -0.94553,0.81835 -2.05704,1.4879 -2.47003,1.4879 -0.65278,0 -0.71674,-0.15794 -0.48951,-1.20892 0.38768,-1.7931 1.735,-4.27901 3.66411,-6.76056 1.72489,-2.21883 2.10667,-3.19318 1.24828,-3.18575 -0.96072,0.008 -4.16769,1.14274 -5.78349,2.04583 -0.92188,0.51525 -1.72874,0.88421 -1.79304,0.81991 -0.0643,-0.0643 0.80661,-1.34447 1.93533,-2.84487 2.15028,-2.85831 3.87433,-5.92614 3.87433,-6.89406 0,-1.07591 -0.95585,-0.56766 -3.17343,1.68738 -2.47474,2.51654 -5.67443,5.01334 -6.00327,4.6845 -0.11786,-0.11788 0.47583,-0.99842 1.31938,-1.95675 0.84356,-0.95834 1.53373,-1.87637 1.53373,-2.04008 0,-1.54618 -3.34003,0.19602 -6.61257,3.44919 -1.9913,1.97951 -2.68679,2.48387 -2.68679,1.94845 0,-1.41961 0.75992,-3.32326 2.59789,-6.5079 1.02619,-1.77809 1.8658,-3.42057 1.8658,-3.64994 0,-0.73783 -1.12298,-0.44718 -2.90878,0.75283 -2.76471,1.85782 -4.14139,3.31714 -5.3882,5.71168 -1.6968,3.25879 -1.73426,1.59363 -0.0758,-3.36374 0.84473,-2.52478 1.20929,-4.13441 0.98679,-4.35691 -0.76101,-0.76101 -4.74262,3.21468 -6.324153,6.31473 -1.34194,2.63045 -0.9808,4.76065 1.330343,7.84692 1.12391,1.50085 0.95098,1.76471 -0.703473,1.07343 -1.70122,-0.71082 -3.54894,-2.62461 -4.53094,-4.69298 -1.10414,-2.32566 -1.882634,-2.25375 -2.024939,0.18703 -0.09115,1.56475 0.113364,2.32181 1.181359,4.37071 0.71044,1.36298 1.17856,2.47705 1.04027,2.4757 -0.51315,-0.005 -2.229068,-1.33577 -3.167031,-2.45615 -2.708264,-3.23502 -3.965907,-7.88915 -3.965907,-14.67657 0,-2.44166 -0.0917,-4.43938 -0.203837,-4.43938 -0.51319,0 -2.117383,2.28634 -3.324203,4.73774 -2.245367,4.56099 -2.786148,6.81972 -2.784281,11.62915 0.0027,4.92415 0.474534,7.48336 2.573536,13.93517 1.352599,4.15757 1.869753,6.89543 1.302457,6.89543 -0.11241,0 -0.703223,-0.25792 -1.312826,-0.57315 -0.609617,-0.31526 -1.271296,-0.47248 -1.470432,-0.34941 -0.446112,0.27571 -0.116362,0.93078 2.430277,4.82831 3.994508,6.11336 4.824175,8.38011 6.13974,16.77442 1.07791,6.87781 2.410857,10.19376 4.097737,10.19376 0.46295,0 0.69225,-0.40962 0.83813,-1.49713 0.47265,-3.52385 6.977573,-13.82913 12.482503,-19.77511 4.46521,-4.82296 12.62956,-10.11948 16.29622,-10.57196 l 1.80636,-0.22291 -3.2403,1.65654 c -10.52106,5.37872 -20.53257,17.07089 -23.684843,27.66086 -1.23866,4.16126 -0.89622,8.31264 0.710243,8.61043 0.61152,0.11336 0.91553,-0.13312 6.22669,-5.04915 5.3797,-4.97941 10.15102,-8.48133 15.18909,-11.14806 2.76932,-1.46584 8.18869,-2.69973 12.61059,-2.8712 l 4.09173,-0.15867 -4.08064,0.70904 c -2.24434,0.38998 -5.17365,1.07614 -6.50956,1.5248 -4.00033,1.3435 -12.20973,6.26891 -16.65697,9.99368 -3.81145,3.19229 -2.8238,3.78966 2.51083,1.51862 5.63686,-2.3997 8.57974,-3.20082 15.25097,-4.15167 8.92285,-1.27177 15.3998,-1.01553 21.113,0.83528 1.7438,0.5649 1.13515,1.07003 -0.74519,0.61844 -0.87069,-0.20911 -4.76346,-0.39616 -8.65059,-0.41568 -7.47846,-0.0375 -10.89592,0.36295 -18.16375,2.1286 -6.08394,1.47803 -5.88278,2.13292 0.86691,2.82226 4.48931,0.45849 9.36419,1.60316 12.20845,2.86663 1.89164,0.84031 0.63505,1.10843 -1.70516,0.36384 -0.96903,-0.30833 -2.51512,-0.67555 -3.43577,-0.81604 -0.92063,-0.14049 -2.00866,-0.33002 -2.41783,-0.42116 -0.40918,-0.0911 -4.46778,-0.26294 -9.01912,-0.38178 l -8.27516,-0.21607 -2.32611,1.4046 c -5.07862,3.06667 -6.95897,4.38065 -6.75083,4.71744 0.11977,0.19383 0.67495,0.25199 1.23369,0.12931 0.55875,-0.12276 1.5053,-0.0322 2.10344,0.20129 l 1.08756,0.42439 -1.29883,0.98587 c -2.36067,1.79184 -5.523043,5.27792 -6.396543,7.0513 -1.21716,2.47103 -1.20887,8.04102 0.0174,11.78937 1.2189,3.72546 3.311543,7.25819 4.294703,7.2502 0.22402,-0.003 1.36093,-0.81962 2.52645,-1.81735 z m -65.912851,-0.44739 c 0,-1.0221 -3.263727,-6.5105 -6.072251,-10.21133 -3.452468,-4.54935 -5.61997,-8.09852 -7.144647,-11.69899 -1.118853,-2.64214 -2.481761,-7.48779 -2.188517,-7.78102 0.101115,-0.1011 0.840233,0.53413 1.642424,1.41172 1.330601,1.45564 2.231768,1.74483 2.231768,0.71619 0,-0.22085 -1.477322,-2.59626 -3.282938,-5.27869 -3.553186,-5.27863 -7.713705,-12.41726 -7.412531,-12.71843 0.102695,-0.10269 0.692256,0.23861 1.310092,0.75848 1.142809,0.96161 2.689829,1.27358 2.689829,0.54243 0,-0.22154 -0.830555,-1.98551 -1.845684,-3.91992 -1.015119,-1.93441 -1.941519,-4.13844 -2.058655,-4.89784 -0.919219,-5.95934 -3.175136,-9.75017 -5.802303,-9.75017 -0.734123,0 -0.785912,0.13993 -0.585088,1.5809 0.121171,0.86948 0.477724,2.49615 0.792326,3.61482 0.3146,1.11866 0.565981,2.79256 0.558623,3.71975 l -0.01335,1.68582 -0.823566,-1.00611 c -0.452962,-0.55336 -1.154612,-1.64139 -1.559224,-2.41783 -1.1719498,-2.24898 -3.2463128,-5.31747 -3.5947178,-5.31747 -0.175623,0 -0.319312,1.57742 -0.319312,3.50538 0,1.92797 -0.163964,4.31325 -0.364363,5.30065 -0.200401,0.98738 -0.45835,2.56774 -0.573222,3.51191 -0.114876,0.94416 -0.431667,2.02136 -0.703987,2.39378 -0.468709,0.641 -0.573018,0.61543 -1.9550266,-0.47913 -2.23023402,-1.76639 -7.4765286,-4.93584 -9.1438868,-5.52411 -1.6141739,-0.56952 -3.2544392,-0.69293 -3.2544392,-0.24486 0,0.88858 3.3683807,4.73491 8.7943079,10.04213 3.3988841,3.32453 6.0003887,6.04459 5.7811207,6.04459 -0.219267,0 -1.8053674,-0.5671 -3.5246659,-1.26023 -6.1747891,-2.48933 -12.6001733,-3.54402 -13.6781163,-2.24518 -0.647103,0.77971 -0.103117,1.11158 2.356974,1.43792 2.2648155,0.30044 4.1441872,1.215 7.3525438,3.57798 2.74260298,2.01995 3.9398052,3.21449 3.58112998,3.57316 -0.3683315,0.36833 -4.17257978,-0.57512 -7.38477338,-1.83141 -1.7582508,-0.68766 -3.1188427,-1.01588 -3.5337624,-0.85247 -0.578446,0.22781 -0.410832,0.50615 1.1749245,1.9511 1.8747963,1.70832 5.0718206,3.9593 7.0425142,4.95852 1.57552258,0.79886 0.3694134,0.89769 -2.2550283,0.18479 -1.1953737,-0.32471 -4.96181,-0.77277 -8.3698584,-0.99568 -5.807421,-0.37985 -6.44965,-0.3544 -10.229313,0.40537 -5.367156,1.07885 -12.089392,4.18018 -11.133232,5.13634 0.3666,0.36659 6.900138,-0.62263 8.054342,-1.2195 0.639331,-0.33062 2.105881,-0.54553 3.722501,-0.54553 3.052089,0 9.956421,0.9502 11.43759,1.57407 0.8676906,0.36547 0.446466,0.47138 -3.252328,0.8178 -4.247137,0.39775 -5.545157,0.96364 -3.485565,1.51957 1.379816,0.37246 4.838795,0.9986 13.0019884,2.35361 9.2538058,1.53604 12.8791988,2.4644 18.6445506,4.77435 5.121312,2.05191 6.032129,2.28427 6.032129,1.53883 0,-0.24248 -0.913432,-2.04192 -2.029859,-3.99873 -5.255981,-9.21242 -9.4647038,-20.91651 -10.1075448,-28.10818 -0.326594,-3.65373 0.30291,-2.8148 1.674694,2.23184 2.5334848,9.32041 6.5423658,18.90994 11.1184628,26.59621 2.883324,4.84297 4.536788,6.48702 9.152995,9.10077 2.155671,1.22059 4.973453,3.0909 6.261719,4.15626 2.316038,1.91532 3.272236,2.3787 3.272236,1.58577 z M 150.85293,264.69624 c 1.12522,-1.55455 2.24564,-3.34547 2.48984,-3.97984 0.61017,-1.58519 0.58787,-7.09122 -0.0691,-17.0425 -0.82885,-12.55544 -1.83128,-19.24247 -4.33738,-28.93388 -1.63198,-6.31105 -2.36524,-8.25094 -3.85926,-10.20969 -1.49048,-1.95412 -5.94801,-5.19172 -9.28913,-6.74688 -3.81082,-1.7738 -6.09306,-2.01662 -8.46682,-0.90082 -2.22309,1.04498 -7.14828,6.16924 -11.63545,12.10572 -1.84986,2.44737 -5.14614,6.71793 -7.32507,9.49015 -2.17893,2.77221 -4.85012,6.45631 -5.93598,8.1869 -2.617483,4.17158 -6.203663,11.41747 -6.333933,12.79773 -0.14683,1.55586 0.82258,1.61545 1.79978,0.11064 0.43336,-0.66734 1.41175,-2.17528 2.174223,-3.35098 2.00832,-3.09679 5.60614,-6.56914 7.80905,-7.5367 1.03177,-0.45318 4.80526,-1.76896 8.38551,-2.92396 3.81809,-1.23173 7.35546,-2.62438 8.55543,-3.36825 1.12523,-0.69754 3.8962,-2.3687 6.15771,-3.71369 5.34364,-3.17802 6.05342,-3.94045 6.82265,-7.32881 0.68424,-3.014 1.27057,-3.57074 1.83809,-1.74528 0.20999,0.6755 1.21569,3.9064 2.23486,7.17977 3.48407,11.19008 3.73469,12.55857 2.71191,14.80762 -0.73701,1.62065 -5.09776,6.12433 -6.78308,7.00539 -1.81543,0.9491 -7.00599,4.96808 -7.01828,5.43417 -0.0163,0.61895 1.14221,0.58793 2.86302,-0.0767 0.77134,-0.2979 2.4449,-0.80368 3.71903,-1.12397 1.27413,-0.32029 3.22501,-1.08088 4.33529,-1.69022 1.11029,-0.60934 2.21124,-1.10788 2.44656,-1.10788 0.23531,0 0.85441,0.96249 1.37574,2.13886 0.87907,1.98357 0.97092,2.73301 1.26507,10.3223 0.45631,11.77289 0.80938,15.08204 1.60535,15.0461 0.23015,-0.0105 1.33911,-1.2908 2.46434,-2.84533 z M 79.433731,240.87152 c 3.157318,-1.57895 6.151308,-4.37322 8.18345,-7.63753 0.716045,-1.15023 1.3856,-2.09821 1.487886,-2.10664 0.102327,-0.008 0.197378,1.29153 0.21129,2.88878 0.02534,2.91794 0.736197,6.39017 1.308098,6.39017 0.168725,0 0.40687,-0.62772 0.529213,-1.39491 0.734808,-4.60826 1.6645,-6.92502 4.685799,-11.67706 3.27597,-5.15258 7.525453,-10.7217 11.120403,-14.57376 1.12523,-1.20569 2.63173,-2.99998 3.34778,-3.98731 0.71605,-0.98733 2.55733,-3.2644 4.09172,-5.06016 1.5344,-1.79576 3.29198,-3.96385 3.90575,-4.81798 1.36631,-1.9014 4.32295,-5.08664 5.46242,-5.88475 1.1081,-0.77615 4.58908,-0.76791 7.31346,0.0173 3.2619,0.94015 7.05119,2.98087 10.00758,5.38957 1.48325,1.20848 2.69683,2.02213 2.69683,1.80813 0,-1.4484 -3.98233,-7.20907 -6.51421,-9.42319 -3.01763,-2.63892 -5.31472,-3.60772 -9.14204,-3.85568 -3.19008,-0.20668 -3.38412,-0.17247 -5.81814,1.0255 -1.64244,0.80837 -3.36199,2.08846 -4.94518,3.68135 -2.79825,2.81537 -2.86869,2.89849 -8.53327,10.06753 -3.65618,4.62722 -5.36024,6.84895 -9.700433,12.64715 -6.115896,8.17045 -11.781225,14.90128 -14.574689,17.31582 -3.596372,3.10854 -6.405042,4.24634 -12.470237,5.05172 -1.892413,0.25129 -3.440755,0.57384 -3.440755,0.71676 0,0.14293 0.473634,0.45606 1.052525,0.69584 0.578892,0.23979 2.043546,1.26017 3.254782,2.26753 1.211248,1.00736 2.537019,1.83593 2.946205,1.84125 0.409159,0.005 1.999359,-0.61812 3.533763,-1.38545 z"
       id="path1" /></g><g
     id="g5"
     inkscape:label="titre"
     transform="matrix(0.49981152,0,0,0.49981152,101.24452,3.3846111)"><text
       xml:space="preserve"
       style="font-style:normal;font-variant:normal;font-weight:800;font-stretch:semi-condensed;font-size:37.0556px;font-family:'Noto Sans';-inkscape-font-specification:'Noto Sans, Ultra-Bold Semi-Condensed';font-variant-ligatures:normal;font-variant-caps:normal;font-variant-numeric:normal;font-variant-east-asian:normal;text-align:start;writing-mode:lr-tb;direction:ltr;text-anchor:start;fill:#000000;stroke-width:0;stroke-linecap:round;stroke-linejoin:round"
       x="-179.88043"
       y="46.771286"
       id="text1"><tspan
         sodipodi:role="line"
         id="tspan1"
         style="font-style:normal;font-variant:normal;font-weight:800;font-stretch:semi-condensed;font-size:37.05563516px;font-family:'Noto Sans';-inkscape-font-specification:'Noto Sans, Ultra-Bold Semi-Condensed';font-variant-ligatures:normal;font-variant-caps:normal;font-variant-numeric:normal;font-variant-east-asian:normal;stroke-width:0"
         x="-179.88043"
         y="46.771286">ASSOCIATION</tspan></text><text
       xml:space="preserve"
       style="font-style:normal;font-variant:normal;font-weight:800;font-stretch:semi-condensed;font-size:39.1731px;font-family:'Noto Sans';-inkscape-font-specification:'Noto Sans, Ultra-Bold Semi-Condensed';font-variant-ligatures:normal;font-variant-caps:normal;font-variant-numeric:normal;font-variant-east-asian:normal;text-align:start;writing-mode:lr-tb;direction:ltr;text-anchor:start;fill:#000000;stroke-width:0;stroke-linecap:round;stroke-linejoin:round"
       x="-120.08724"
       y="98.828926"
       id="text2"><tspan
         sodipodi:role="line"
         id="tspan2"
         style="font-style:normal;font-variant:normal;font-weight:800;font-stretch:semi-condensed;font-size:39.1731px;font-family:'Noto Sans';-inkscape-font-specification:'Noto Sans, Ultra-Bold Semi-Condensed';font-variant-ligatures:normal;font-variant-caps:normal;font-variant-numeric:normal;font-variant-east-asian:normal;stroke-width:0"
         x="-120.08724"
         y="98.828926">LES CHATS</tspan></text><text
       xml:space="preserve"
       style="font-style:normal;font-variant:normal;font-weight:800;font-stretch:semi-condensed;font-size:39.526px;font-family:'Noto Sans';-inkscape-font-specification:'Noto Sans, Ultra-Bold Semi-Condensed';font-variant-ligatures:normal;font-variant-caps:normal;font-variant-numeric:normal;font-variant-east-asian:normal;text-align:start;writing-mode:lr-tb;direction:ltr;text-anchor:start;fill:#000000;stroke-width:0;stroke-linecap:round;stroke-linejoin:round"
       x="-93.912865"
       y="147.07233"
       id="text3"><tspan
         sodipodi:role="line"
         id="tspan3"
         style="font-style:normal;font-variant:normal;font-weight:800;font-stretch:semi-condensed;font-size:39.526px;font-family:'Noto Sans';-inkscape-font-specification:'Noto Sans, Ultra-Bold Semi-Condensed';font-variant-ligatures:normal;font-variant-caps:normal;font-variant-numeric:normal;font-variant-east-asian:normal;stroke-width:0"
         x="-93.912865"
         y="147.07233">TAFFIONS</tspan></text></g></svg>
