<?xml version="1.0" encoding="UTF-8" standalone="no"?>
<!-- Created with Inkscape (http://www.inkscape.org/) -->

<svg
   width="188.91202mm"
   height="65.891487mm"
   viewBox="0 0 188.91202 65.891487"
   version="1.1"
   id="svg1"
   xml:space="preserve"
   inkscape:version="1.4.1 (93de688d07, 2025-03-30)"
   sodipodi:docname="backCatMessageBubble.svg"
   inkscape:export-filename="finales/afficheAssocA4.pdf"
   inkscape:export-xdpi="96"
   inkscape:export-ydpi="96"
   xmlns:inkscape="http://www.inkscape.org/namespaces/inkscape"
   xmlns:sodipodi="http://sodipodi.sourceforge.net/DTD/sodipodi-0.dtd"
   xmlns="http://www.w3.org/2000/svg"
   xmlns:svg="http://www.w3.org/2000/svg"><sodipodi:namedview
     id="namedview1"
     pagecolor="#505050"
     bordercolor="#eeeeee"
     borderopacity="1"
     inkscape:showpageshadow="0"
     inkscape:pageopacity="0"
     inkscape:pagecheckerboard="0"
     inkscape:deskcolor="#505050"
     inkscape:document-units="mm"
     showgrid="false"
     showguides="true"
     inkscape:zoom="0.88"
     inkscape:cx="252.84091"
     inkscape:cy="262.5"
     inkscape:window-width="2560"
     inkscape:window-height="1229"
     inkscape:window-x="2560"
     inkscape:window-y="211"
     inkscape:window-maximized="1"
     inkscape:current-layer="svg1"
     inkscape:export-bgcolor="#55555500"><inkscape:grid
       id="grid1"
       units="mm"
       originx="-7.6034628"
       originy="-222.75279"
       spacingx="105"
       spacingy="148.5"
       empcolor="#0099e5"
       empopacity="0.30196078"
       color="#08e500"
       opacity="0.14901961"
       empspacing="5"
       enabled="true"
       visible="false"
       dotted="false" /><inkscape:grid
       id="grid42"
       units="mm"
       originx="-7.6034628"
       originy="-222.75279"
       spacingx="52.500001"
       spacingy="37.124999"
       empcolor="#0099e5"
       empopacity="0.30196078"
       color="#0099e5"
       opacity="0.14901961"
       empspacing="5"
       enabled="true"
       visible="false"
       dotted="true" /><inkscape:grid
       id="grid6"
       units="mm"
       originx="-7.6034628"
       originy="-222.75279"
       spacingx="0.99999998"
       spacingy="1"
       empcolor="#0099e5"
       empopacity="0.30196078"
       color="#0099e5"
       opacity="0.14901961"
       empspacing="5"
       enabled="true"
       visible="false" /><inkscape:page
       x="0"
       y="0"
       width="188.91202"
       height="65.891487"
       id="page2"
       margin="0"
       bleed="0" /></sodipodi:namedview><defs
     id="defs1" /><g
     id="g1"
     inkscape:label="chat de dos bulle de message"
     transform="translate(-7.6034625,-222.7528)"><g
       id="g2"
       inkscape:label="bulle message"
       style="display:inline;opacity:1;fill:#000000;stroke-width:0.2;stroke-dasharray:none"
       transform="matrix(2.9372356,0,0,2.9372356,-357.42235,-441.02061)"><path
         style="fill:none;stroke:#000000;stroke-width:0.2;stroke-dasharray:none"
         d="m 156.25411,229.12213 c 0,0 3.7067,-0.70158 12.4531,0.0935 8.74639,0.79512 12.72202,2.61924 15.38804,4.04579 2.66601,1.42655 3.85848,3.13373 4.16272,4.04579 0.30425,0.91206 0.46772,2.03459 -0.49111,3.50791 -0.95883,1.47333 -2.43215,2.64263 -4.8643,3.695 -2.43215,1.05238 -4.46674,1.96444 -8.62947,2.66602 -4.16272,0.70158 -9.10126,1.16888 -11.81636,1.14164 -2.71511,-0.0272 -6.23769,-0.11266 -11.89713,-1.0481 -5.65943,-0.93544 -9.75199,-2.78294 -11.78658,-4.13934 -2.03459,-1.35639 -2.45554,-2.40876 -3.06358,-3.27405 -0.60804,-0.86528 -0.25931,-2.24588 -0.16836,-2.42779 0.0909,-0.1819 0.35553,-0.99218 0.76894,-1.43867 0.41342,-0.44648 1.16418,-1.23196 1.16418,-1.23196 l 0.0798,-0.0904 c 0,0 -1.07284,-0.57881 -1.9352,-1.13131 -0.86236,-0.55249 -2.98173,-1.97052 -2.98173,-1.97052 l 9.84599,0.39209 c 0,0 2.67434,-1.12851 5.81977,-1.71316 3.14543,-0.58465 7.95126,-1.12253 7.95126,-1.12253 z"
         id="path110" /></g><g
       id="g5"
       inkscape:label="chat de dos"
       style="display:inline;opacity:1"
       transform="matrix(2.9372356,0,0,2.9372356,-357.42235,-441.02061)"><path
         style="display:inline;fill:#000000;stroke:#000000;stroke-width:0;stroke-linecap:butt;stroke-linejoin:bevel;stroke-dasharray:none;stroke-opacity:0.811286"
         d="m 131.47656,239.10799 0.81026,1.70227 c 0,0 0.81513,1.25677 0.23636,2.91042 -0.57878,1.65364 -1.46172,2.25112 -1.46172,2.25112 l -0.63727,0.50281 c 0,0 -0.33326,0.10523 -0.0643,-0.12863 0.26893,-0.23386 0.86528,-0.68989 1.17515,-1.21023 0.30986,-0.52034 0.5368,-0.88364 0.75179,-1.81827 0.15471,-0.67257 0.10523,-1.22664 0.0496,-1.63441 -0.11776,-0.86311 -0.34378,-0.93359 -0.54089,-1.36235 -0.12584,-0.27373 -0.19619,-0.38382 -0.25466,-0.64106 -0.0585,-0.25725 -0.0643,-0.57167 -0.0643,-0.57167 z"
         id="path112"
         sodipodi:nodetypes="ccsccsssssscc" /><path
         style="display:inline;fill:#000000;stroke:#000000;stroke-width:0;stroke-linecap:butt;stroke-linejoin:bevel;stroke-dasharray:none;stroke-opacity:0.811286"
         id="path113"
         transform="rotate(90.21141)"
         sodipodi:type="arc"
         sodipodi:cx="239.60907"
         sodipodi:cy="-136.35876"
         sodipodi:rx="0.23940247"
         sodipodi:ry="0.24235268"
         sodipodi:start="1.9761013"
         sodipodi:end="5.0739597"
         sodipodi:arc-type="arc"
         d="m 239.51467,-136.13605 a 0.23940247,0.24235268 0 0 1 -0.12762,-0.31338 0.23940247,0.24235268 0 0 1 0.30671,-0.13602"
         sodipodi:open="true" /><path
         style="display:inline;fill:#000000;stroke:#000000;stroke-width:0;stroke-linecap:butt;stroke-linejoin:bevel;stroke-dasharray:none;stroke-opacity:0.811286"
         d="m 135.36888,239.93527 -0.11615,0.0802 c 0,0 -0.23902,0.41967 -0.31795,1.21187 -0.0789,0.79221 0.22509,1.63995 0.21924,2.05506 -0.006,0.4151 0.0117,1.09329 -0.36833,1.87088 -0.38002,0.77759 -0.8419,1.63703 -1.56102,2.05798 -0.71912,0.42095 -1.39732,0.45018 -2.51985,0.16955 -1.12253,-0.28064 -1.76565,-0.56712 -2.41461,-0.84775 -0.64897,-0.28063 -0.80682,-0.0877 -1.23362,-0.18124 -0.4268,-0.0936 -0.7542,-0.076 -1.44409,-0.64897 -0.68989,-0.57295 -1.02314,-2.53738 -1.02314,-3.30913 0,-0.77174 -0.0643,-1.37978 -0.0585,-2.09305 0.006,-0.71328 -0.10814,-0.90329 0.18417,-1.65164 0.29233,-0.74835 0.62265,-1.28916 0.66943,-1.66918 0.0468,-0.38003 0.19878,-0.8536 0.58465,-1.28624 0.38587,-0.43264 1.25115,-1.38562 1.33885,-1.55518 0.0877,-0.16954 -0.0322,-0.17544 -0.0204,-0.39756 0.0234,-0.3274 0.0906,-0.9179 0.0935,-1.09622 0.003,-0.17832 -0.0175,-0.40632 -0.1257,-0.86821 -0.0552,-0.23569 -0.13687,-0.41734 -0.14016,-0.60515 -0.003,-0.18023 0.0705,-0.36614 0.0934,-0.61092 0.0468,-0.49988 0.0585,-0.94129 0.0409,-1.6078 -0.0175,-0.6665 -0.038,-1.02021 0.0146,-1.47625 0.0526,-0.45602 0.10524,-0.80097 0.1754,-0.91497 0.0702,-0.11401 0.038,-0.0819 0.17539,0.0935 0.1374,0.1754 0.33618,0.52619 0.69574,0.98806 0.35176,0.45185 0.45018,0.67235 0.45018,0.67235 l 1.66334,-0.0204 0.23093,-0.6782 c 0,0 0.30987,-1.00852 0.40049,-1.24238 0.0906,-0.23386 0.10232,-0.19294 0.10232,-0.19294 0,0 0.10815,0.076 0.17539,0.23679 0.0672,0.16077 0.25725,0.63434 0.29233,0.97929 0.0351,0.34494 0.0643,0.55542 -0.0292,1.14299 -0.0935,0.58758 -0.006,0.64604 0.0614,0.8536 0.0672,0.20755 0.16955,0.30694 0.19586,0.56418 0.0263,0.25725 0.0439,0.54666 0.009,1.01145 -0.0351,0.4648 -0.0117,0.52619 -0.18124,0.94714 -0.16955,0.42095 -0.23971,0.36541 -0.28941,0.76005 -0.0497,0.39464 0.23679,1.01144 0.23679,1.01144 0,0 0.30694,0.66359 0.34786,1.02607 0.0409,0.36248 0.0497,0.35371 0.0234,0.83897 -0.0454,0.8382 -0.25624,0.46798 -0.266,0.9793 -0.006,0.30402 -0.0263,0.74543 0.006,1.4207 0.0322,0.67528 0.0292,1.25116 0.0438,1.59903 0.0146,0.34786 0.0146,0.61388 0.0146,0.61388 l 0.15493,0.003 -0.0175,-0.81851 c 0,0 -0.0159,-0.75625 -0.0407,-1.3929 -0.0248,-0.63666 -0.0411,-0.94607 -0.0496,-1.21957 -0.0115,-0.36932 0.22261,-0.62613 0.24804,-0.76067 0.0398,-0.21051 0.14056,-0.57878 0.0909,-0.97152 -0.0496,-0.39274 -0.1695,-0.76481 -0.40101,-1.34359 -0.23151,-0.57877 -0.14197,-0.37537 -0.26599,-0.75571 -0.16175,-0.49601 0.41665,-0.79135 0.51818,-1.63794 0.0379,-0.31649 0.0372,-0.76068 -0.0165,-1.13688 -0.0538,-0.3762 -0.11576,-0.55811 -0.19431,-0.76068 -0.0785,-0.20257 -0.13229,-0.30592 -0.13229,-0.47956 0,-0.17363 0.0951,-0.37207 0.0992,-0.62838 0.004,-0.25632 0.004,-0.56224 -0.0496,-0.91777 -0.0537,-0.35554 -0.16949,-0.80202 -0.28525,-1.04593 -0.11576,-0.24392 -0.23978,-0.29766 -0.23978,-0.29766 0,0 -0.0786,-0.0413 -0.15709,0.008 -0.0785,0.0496 -0.1199,0.21911 -0.1199,0.21911 0,0 -0.16949,0.49196 -0.28525,0.89297 -0.11575,0.40101 -0.31006,1.0418 -0.31006,1.0418 h -1.49684 c 0,0 -0.40898,-0.56224 -0.52887,-0.80202 -0.11989,-0.23978 -0.54157,-0.79375 -0.54157,-0.79375 0,0 -0.12816,-0.1571 -0.20671,-0.20257 -0.0786,-0.0455 -0.16536,-0.10749 -0.23564,0.0537 -0.0703,0.16123 -0.1447,0.36794 -0.17777,0.67386 -0.0331,0.30593 -0.062,1.08314 -0.0537,1.48002 0.008,0.39687 -0.001,0.71502 0.0114,0.81424 0.0124,0.0992 0.0165,0.25478 0.0255,0.40945 -0.008,0.14883 -0.0289,0.51677 -0.0868,0.78135 -0.0579,0.26458 -0.0868,0.31419 -0.10748,0.50023 -0.0207,0.18603 0.0744,0.5581 0.0744,0.5581 0,0 0.14056,0.28112 0.15296,0.71934 0.0124,0.43821 0.0455,0.37207 -0.0165,0.97565 -0.062,0.60358 -0.0207,0.68213 -0.0786,0.78548 -0.0579,0.10336 -0.23151,0.30593 -0.50436,0.5457 -0.27286,0.23978 -0.78549,0.81856 -0.95912,1.05421 -0.17363,0.23564 -0.33073,0.50022 -0.41341,0.68626 -0.0827,0.18603 -0.0744,0.2067 -0.0992,0.3886 -0.0248,0.18191 0.0241,0.28748 -0.0131,0.44457 -0.0372,0.1571 0.042,0.097 -0.26801,0.6179 -0.31005,0.5209 -0.41341,0.61599 -0.47128,1.30638 -0.0579,0.6904 -0.0868,1.86862 -0.0703,2.62517 0.0165,0.75654 0.0827,2.05052 0.30179,2.77398 0.21911,0.72348 0.33899,0.97566 0.64905,1.35186 0.31006,0.3762 1.06661,0.64492 1.52136,0.76068 0.45475,0.11575 0.70693,0.0868 1.19889,0.28939 0.49196,0.20257 1.4056,0.64492 2.00505,0.81028 0.59944,0.16537 1.14928,0.27699 1.9637,0.33073 0.81442,0.0537 1.12034,-0.0455 1.57923,-0.27285 0.45889,-0.22738 0.69867,-0.56637 0.91364,-0.83096 0.21497,-0.26458 0.48369,-0.69866 0.74828,-1.29397 0.26458,-0.59532 0.32246,-0.96739 0.39274,-1.53376 0.0703,-0.56637 0.0372,-1.20303 -0.0744,-1.88516 -0.11162,-0.68213 -0.13642,-1.01285 -0.0455,-1.37666 0.0909,-0.3638 0.0496,-0.32866 0.17363,-0.53537 0.0217,-0.0362 0.0417,-0.0716 0.0526,-0.096 0.0188,-0.0418 0.0415,-0.088 0.0415,-0.088 l -0.0713,-0.17776 z"
         id="path114"
         sodipodi:nodetypes="ccscsssscsscssssccssccsssscccscssscscsscssccscccssscssscssccscccsccscssscscsscsssssssssssssssssssssssssccc" /><g
         id="g4"
         inkscape:label="moustaches droites"
         style="display:inline;opacity:1"
         transform="translate(1.6313525e-6)"><path
           style="display:inline;opacity:1;fill:#000000;stroke:#000000;stroke-width:0.075;stroke-linecap:round;stroke-linejoin:bevel;stroke-dasharray:none;stroke-opacity:0.811286"
           d="m 131.98994,231.4221 0.8278,0.057"
           id="path123" /><path
           style="display:inline;opacity:1;fill:#000000;stroke:#000000;stroke-width:0.075;stroke-linecap:round;stroke-linejoin:bevel;stroke-dasharray:none;stroke-opacity:0.811286"
           d="m 132.00265,231.53791 1.26637,0.63648"
           id="path124" /><path
           style="display:inline;opacity:1;fill:#000000;stroke:#000000;stroke-width:0.075;stroke-linecap:round;stroke-linejoin:round;stroke-dasharray:none;stroke-opacity:0.811286"
           d="m 131.90704,231.80356 0.95073,0.54769"
           id="path125" /></g><g
         id="g3"
         inkscape:label="moustaches gauches"
         style="display:inline;opacity:1"
         transform="matrix(0.42673343,0,0,0.42673343,72.909582,130.64821)"><path
           style="opacity:1;fill:#000000;stroke:#000000;stroke-width:0.175754;stroke-linecap:round;stroke-linejoin:bevel;stroke-dasharray:none;stroke-opacity:0.811286"
           d="m 126.62049,235.82127 -1.88772,0.95333"
           id="path118" /><path
           style="opacity:1;fill:#000000;stroke:#000000;stroke-width:0.175754;stroke-linecap:round;stroke-linejoin:bevel;stroke-dasharray:none;stroke-opacity:0.811286"
           d="m 126.72903,236.53324 -3.00714,1.68376"
           id="path119" /><path
           style="opacity:1;fill:#000000;stroke:#000000;stroke-width:0.175754;stroke-linecap:round;stroke-linejoin:round;stroke-dasharray:none;stroke-opacity:0.811286"
           d="m 127.06795,236.87031 -1.57246,0.95727"
           id="path120" /></g></g></g></svg>
