<?xml version="1.0" encoding="UTF-8" standalone="no"?>
<!-- Created with Inkscape (http://www.inkscape.org/) -->

<svg
   width="139.19241mm"
   height="73.730255mm"
   viewBox="0 0 139.19241 73.730255"
   version="1.1"
   id="svg1"
   xml:space="preserve"
   inkscape:version="1.4.1 (93de688d07, 2025-03-30)"
   sodipodi:docname="catFootprints.svg"
   inkscape:export-filename="finales/afficheAssocA4.pdf"
   inkscape:export-xdpi="96"
   inkscape:export-ydpi="96"
   xmlns:inkscape="http://www.inkscape.org/namespaces/inkscape"
   xmlns:sodipodi="http://sodipodi.sourceforge.net/DTD/sodipodi-0.dtd"
   xmlns="http://www.w3.org/2000/svg"
   xmlns:svg="http://www.w3.org/2000/svg"><sodipodi:namedview
     id="namedview1"
     pagecolor="#505050"
     bordercolor="#eeeeee"
     borderopacity="1"
     inkscape:showpageshadow="0"
     inkscape:pageopacity="0"
     inkscape:pagecheckerboard="0"
     inkscape:deskcolor="#505050"
     inkscape:document-units="mm"
     showgrid="false"
     showguides="true"
     inkscape:zoom="2.4890159"
     inkscape:cx="256.52709"
     inkscape:cy="168.74139"
     inkscape:window-width="2560"
     inkscape:window-height="1229"
     inkscape:window-x="2560"
     inkscape:window-y="211"
     inkscape:window-maximized="1"
     inkscape:current-layer="svg1"
     inkscape:export-bgcolor="#55555500"><inkscape:grid
       id="grid1"
       units="mm"
       originx="-49.145678"
       originy="-139.93733"
       spacingx="105"
       spacingy="148.5"
       empcolor="#0099e5"
       empopacity="0.30196078"
       color="#08e500"
       opacity="0.14901961"
       empspacing="5"
       enabled="true"
       visible="false"
       dotted="false" /><inkscape:grid
       id="grid42"
       units="mm"
       originx="-49.145678"
       originy="-139.93733"
       spacingx="52.500001"
       spacingy="37.124999"
       empcolor="#0099e5"
       empopacity="0.30196078"
       color="#0099e5"
       opacity="0.14901961"
       empspacing="5"
       enabled="true"
       visible="false"
       dotted="true" /><inkscape:grid
       id="grid6"
       units="mm"
       originx="-49.145678"
       originy="-139.93733"
       spacingx="0.99999998"
       spacingy="1"
       empcolor="#0099e5"
       empopacity="0.30196078"
       color="#0099e5"
       opacity="0.14901961"
       empspacing="5"
       enabled="true"
       visible="false" /><inkscape:page
       x="0"
       y="0"
       width="139.19241"
       height="73.730255"
       id="page2"
       margin="0"
       bleed="0" /></sodipodi:namedview><defs
     id="defs1" /><g
     id="g2"
     inkscape:label="paires de pattes"
     style="display:inline;opacity:1"
     transform="matrix(2.9372356,0,0,2.9372356,-406.56802,-580.95795)"><g
       id="g5"
       inkscape:label="arriere2"
       style="display:inline;opacity:1"
       transform="translate(4.7955766,7.7059892)"><g
         id="g11"
         inkscape:label="droite"><path
           id="path145"
           style="display:inline;opacity:1;fill:#000000;stroke:#000000;stroke-width:0;stroke-linecap:round;stroke-linejoin:round;stroke-opacity:0.811286"
           transform="matrix(0.99318715,0.11653024,-0.12207407,0.99252098,0,0)"
           d="m 178.30478,179.45894 c -0.18786,0.17413 -0.49839,0.22334 -0.93423,0.22264 -0.39949,-6.4e-4 -0.77673,-0.0893 -1.06662,-0.20489 -0.19073,-0.076 -0.67319,-0.35454 -0.0868,-0.61764 0.22676,-0.10174 0.52254,-0.1396 0.89919,-0.13522 0.37896,0.004 0.56012,0.0359 0.86195,0.11116 0.32349,0.0807 0.67457,0.30129 0.32648,0.62395 z"
           sodipodi:nodetypes="sssssss" /><path
           id="path146"
           style="baseline-shift:baseline;display:inline;overflow:visible;opacity:1;vector-effect:none;fill:#000000;stroke-width:0.999852;stroke-linecap:round;stroke-linejoin:round;enable-background:accumulate;stop-color:#000000;stop-opacity:1"
           d="m 153.39221,199.06625 c 0.27726,0.22061 0.21216,0.3275 -0.0181,0.43429 -0.13499,0.0626 -0.65628,0.15899 -1.1696,0.11238 -0.56511,-0.0513 -1.0517,-0.21725 -1.28006,-0.3869 -0.0946,-0.0703 -0.25226,-0.3087 0.19893,-0.37284 0.33968,-0.0483 0.72814,-0.0846 1.04133,-0.0564 0.8084,0.073 1.07283,0.14633 1.22754,0.26944 z"
           sodipodi:nodetypes="sssssss" /><path
           id="path147"
           style="baseline-shift:baseline;display:inline;overflow:visible;opacity:1;vector-effect:none;fill:#000000;stroke-width:0.979736;stroke-linecap:round;stroke-linejoin:round;enable-background:accumulate;stop-color:#000000;stop-opacity:1"
           d="m 154.05164,200.51799 c -0.13332,0.0529 -0.37566,0.16052 -1.32702,0.11891 -0.64283,-0.0281 -1.07053,-0.16226 -1.23387,-0.2562 -0.20072,-0.11544 -0.20852,-0.27221 0.08,-0.35862 0.41967,-0.12569 0.79534,-0.13308 1.22513,-0.1013 0.77742,0.0575 1.75981,0.39712 1.25579,0.59721 z"
           sodipodi:nodetypes="ssssss" /><path
           id="path148"
           style="display:inline;opacity:1;fill:#000000;stroke:#000000;stroke-width:0;stroke-linecap:round;stroke-linejoin:round;stroke-opacity:0.811286"
           transform="matrix(0.99415997,0.10791631,-0.10753046,0.9942018,0,0)"
           d="m 178.38587,180.70783 c 0.0146,0.25076 -0.42728,0.31207 -0.81815,0.3337 -0.16461,0.009 -0.38543,0.0647 -0.92118,-0.0959 -0.30565,-0.0917 -0.45752,-0.39459 -0.20958,-0.64672 0.095,-0.0966 0.61365,-0.2382 1.31293,-0.1622 0.58528,0.0636 0.62137,0.31983 0.63598,0.57116 z"
           sodipodi:nodetypes="ssssss" /><path
           id="path149"
           style="display:inline;opacity:1;fill:#000000;stroke:#000000;stroke-width:0;stroke-linecap:round;stroke-linejoin:round;stroke-opacity:0.811286"
           d="m 159.39648,200.03844 c -0.44229,0.17533 -0.59145,0.17339 -1.4075,0.31821 -0.3133,0.0556 -0.95936,0.39802 -1.24764,0.53605 -0.7214,0.34542 -1.59477,0.10389 -1.83001,-0.10227 -0.14454,-0.12667 -0.70032,-0.49606 -0.253,-0.88999 0.63126,-0.55591 1.62788,-0.4989 2.50118,-0.47248 0.69395,0.021 1.31476,0.10854 1.77607,0.16268 0.54437,0.0639 0.73362,0.33969 0.4609,0.4478 z"
           sodipodi:nodetypes="ssssssss" /></g><g
         id="g10"
         inkscape:label="gauche"><path
           id="path150"
           style="display:inline;opacity:1;fill:#000000;stroke:#000000;stroke-width:0;stroke-linecap:round;stroke-linejoin:round;stroke-opacity:0.811286"
           d="m 142.58173,201.51954 c -0.14318,0.0469 -0.6027,0.0787 -0.85376,0.0568 -0.29949,-0.0262 -0.52182,-0.0674 -0.72855,-0.13676 -0.0839,-0.0282 -0.3126,-0.1155 -0.44197,-0.25197 -0.0741,-0.0782 -0.27598,-0.34873 0.36544,-0.55162 0.19746,-0.0625 0.41572,-0.0218 0.67119,-0.004 0.31749,0.0219 0.86856,0.20115 1.06489,0.3236 0.49522,0.30889 0.0407,0.52555 -0.0772,0.56418 z"
           sodipodi:nodetypes="ssssssss" /><path
           id="path151"
           style="baseline-shift:baseline;display:inline;overflow:visible;opacity:1;vector-effect:none;fill:#000000;stroke-width:0.999852;stroke-linecap:round;stroke-linejoin:round;enable-background:accumulate;stop-color:#000000;stop-opacity:1"
           d="m 140.78317,201.6363 c 0.58714,0.25128 0.2688,0.43827 0.16765,0.48595 -0.21536,0.10152 -0.55413,0.10494 -1.01821,0.0888 -0.23723,-0.008 -0.42882,-0.0402 -1.12078,-0.20408 -0.33996,-0.0805 -0.573,-0.42895 -0.15753,-0.54065 0.2774,-0.0746 0.39016,-0.0597 0.82708,-0.0542 0.42476,0.005 0.87413,0.0411 1.30179,0.22416 z"
           sodipodi:nodetypes="sssssss" /><path
           id="path152"
           style="baseline-shift:baseline;display:inline;overflow:visible;opacity:1;vector-effect:none;fill:#000000;stroke-width:0.968605;stroke-linecap:round;stroke-linejoin:round;enable-background:accumulate;stop-color:#000000;stop-opacity:1"
           d="m 141.47099,202.81112 c 0.29563,0.18095 0.0801,0.33338 -0.0492,0.37109 -0.38526,0.11234 -0.76527,0.0924 -1.18216,0.0685 -0.39283,-0.0225 -0.75021,-0.12637 -1.04735,-0.24506 -0.46566,-0.18602 -0.16346,-0.35416 0.0868,-0.41701 0.19913,-0.05 0.66378,-0.0839 1.02704,-0.0558 0.48658,0.0377 0.88391,0.10624 1.16485,0.2782 z"
           sodipodi:nodetypes="sssssss" /><path
           id="path153"
           style="display:inline;opacity:1;fill:#000000;stroke:#000000;stroke-width:0;stroke-linecap:round;stroke-linejoin:round;stroke-opacity:0.811286"
           d="m 145.43873,201.19001 c 0.10985,0.0928 0.25906,0.30577 0.0369,0.41427 -0.18126,0.0885 -0.37679,0.19555 -1.07006,0.12619 -0.5468,-0.0547 -0.73117,-0.22939 -0.88546,-0.39651 -0.16377,-0.17737 -0.0408,-0.38599 0.22597,-0.46963 0.18811,-0.059 0.43523,-0.0445 0.75517,-0.0265 0.47256,0.0266 0.7007,0.15227 0.93745,0.3522 z"
           sodipodi:nodetypes="sssssss" /><path
           id="path154"
           style="display:inline;opacity:1;fill:#000000;stroke:#000000;stroke-width:0;stroke-linecap:round;stroke-linejoin:round;stroke-opacity:0.811286"
           d="m 146.7339,202.22943 c 0.42446,0.20206 0.54681,0.34018 -0.0626,0.49664 -0.25834,0.0663 -1.08041,0.21039 -1.5798,0.43141 -0.4965,0.21974 -0.66921,0.51662 -1.3047,0.51894 -0.29411,0.001 -0.86702,0.0485 -1.17761,-0.19921 -0.58205,-0.46417 -0.72836,-0.86329 -0.2099,-1.20556 0.50411,-0.33278 1.502,-0.24214 2.10959,-0.24688 0.98201,-0.008 2.01833,0.10627 2.22501,0.20466 z"
           sodipodi:nodetypes="ssssssss" /></g></g><g
       id="g3"
       inkscape:label="avant2"
       style="display:inline;opacity:1;fill:#000000"
       transform="translate(3.262705e-6)"><g
         id="g13"
         inkscape:label="droite"><path
           id="path126"
           style="opacity:1;stroke:#000000;stroke-width:0;stroke-linecap:round;stroke-linejoin:round;stroke-opacity:0.811286"
           transform="matrix(0.99318714,0.11653024,-0.12207407,0.99252099,0,0)"
           d="m 178.9149,178.98744 c 0,0.31068 -0.67359,0.59417 -1.10201,0.53391 -0.39016,-0.0549 -0.88064,-0.1459 -1.02848,-0.301 -0.0612,-0.0642 -0.0845,-0.14867 -0.0965,-0.23955 -0.0439,-0.33273 0.54593,-0.55562 1.11515,-0.56252 0.56169,-0.007 1.11179,0.25849 1.1118,0.56916 z"
           sodipodi:nodetypes="ssssss" /><path
           id="path127"
           style="baseline-shift:baseline;display:inline;overflow:visible;vector-effect:none;stroke-linecap:round;stroke-linejoin:round;enable-background:accumulate;stop-color:#000000;stop-opacity:1"
           transform="matrix(0.98699136,0.16077329,-0.13669552,0.99061311,0,0)"
           d="m 179.54514,171.77124 c 0.0172,0.1539 -0.11894,0.32316 -1.05298,0.40558 -0.89668,0.0791 -1.47449,-0.0941 -1.49247,-0.39874 -0.0183,-0.31049 0.72229,-0.39479 1.25944,-0.43318 0.81103,-0.058 1.26413,0.23037 1.28601,0.42634 z"
           sodipodi:nodetypes="sssss" /><path
           id="path128"
           style="baseline-shift:baseline;display:inline;overflow:visible;vector-effect:none;stroke-width:0.979736;stroke-linecap:round;stroke-linejoin:round;enable-background:accumulate;stop-color:#000000;stop-opacity:1"
           d="m 153.46253,200.03637 c 3.2e-4,0.14344 -0.16614,0.36588 -1.13065,0.24293 -1.0525,-0.13417 -1.46577,-0.24225 -1.49225,-0.54972 -0.0306,-0.35486 0.79212,-0.27614 1.34644,-0.24288 0.77814,0.0467 1.27612,0.39919 1.27646,0.54967 z"
           sodipodi:nodetypes="sssss" /><path
           id="path129"
           style="opacity:1;stroke:#000000;stroke-width:0;stroke-linecap:round;stroke-linejoin:round;stroke-opacity:0.811286"
           transform="matrix(0.99415998,0.10791631,-0.10753046,0.99420179,0,0)"
           d="m 178.80305,180.66255 c -0.0125,0.11694 -0.4489,0.52269 -0.95472,0.51277 -0.58078,-0.0114 -1.04192,-0.324 -1.0486,-0.50209 -0.01,-0.26765 0.30323,-0.49185 1.00665,-0.49488 0.6051,-0.003 1.01915,0.27438 0.99667,0.4842 z"
           sodipodi:nodetypes="sssss" /><path
           id="path130"
           style="opacity:1;stroke:#000000;stroke-width:0;stroke-linecap:round;stroke-linejoin:round;stroke-opacity:0.811286"
           transform="rotate(2.8548868)"
           d="m 168.77769,191.95632 c 0.002,0.19323 -1.54332,0.41036 -2.29645,0.59001 -0.31183,0.0744 -0.60754,0.17799 -0.90591,0.2926 -0.29211,0.11222 -0.5832,0.23589 -1.22421,0.26843 -0.56878,0.0289 -0.76907,-0.6221 -0.74841,-0.81558 0.0598,-0.55951 1.2611,-1.08117 2.5851,-0.90586 1.42284,0.18839 2.58721,0.34152 2.58988,0.5704 z"
           sodipodi:nodetypes="sssssss" /></g><g
         id="g12"
         inkscape:label="gauche"><path
           id="path140"
           style="opacity:1;stroke:#000000;stroke-width:0;stroke-linecap:round;stroke-linejoin:round;stroke-opacity:0.811286"
           d="m 143.26821,201.25182 c -0.26912,0.16965 -0.3536,0.18144 -0.6744,0.24215 -0.14805,0.028 -0.56179,-0.0702 -0.79795,-0.15817 -0.23128,-0.0861 -0.404,-0.1997 -0.52185,-0.3538 -0.0538,-0.0703 -0.0821,-0.15874 -0.0699,-0.23544 0.0303,-0.18947 0.25732,-0.25778 0.56595,-0.2891 0.20604,-0.0209 0.35164,-0.0363 0.60711,-0.0187 0.31749,0.0219 0.60283,0.18044 0.71349,0.26986 0.51538,0.41646 0.26175,0.49012 0.17755,0.5432 z"
           sodipodi:nodetypes="sssssssss" /><path
           id="path141"
           style="baseline-shift:baseline;display:inline;overflow:visible;vector-effect:none;stroke-width:0.999852;stroke-linecap:round;stroke-linejoin:round;enable-background:accumulate;stop-color:#000000;stop-opacity:1"
           d="m 141.19835,201.65279 c -0.003,0.0454 -0.003,0.10503 -0.099,0.14076 -0.17899,0.0663 -0.6721,0.12654 -1.13397,0.0785 -0.15868,-0.0165 -0.46248,-0.13754 -0.74457,-0.27023 -0.2867,-0.13485 -0.54613,-0.28218 -0.53787,-0.43523 0.0155,-0.28683 0.99996,-0.27227 1.472,-0.19478 0.8899,0.14609 1.05827,0.48384 1.04337,0.681 z"
           sodipodi:nodetypes="sssssss" /><path
           id="path142"
           style="baseline-shift:baseline;display:inline;overflow:visible;vector-effect:none;stroke-width:0.968605;stroke-linecap:round;stroke-linejoin:round;enable-background:accumulate;stop-color:#000000;stop-opacity:1"
           d="m 140.73149,202.45106 c 0.0754,0.0729 0.17668,0.16881 0.0645,0.31528 -0.1397,0.18239 -0.59337,0.1704 -1.0106,0.15329 -0.20266,-0.008 -0.60229,-0.0534 -0.9688,-0.22233 -0.22128,-0.10196 -0.37293,-0.25101 -0.39688,-0.386 -0.022,-0.12418 0.28412,-0.19141 0.63843,-0.20665 0.20543,-0.009 0.42293,0.007 0.61276,0.0204 0.56934,0.0392 0.94792,0.21704 1.06061,0.32598 z"
           sodipodi:nodetypes="sssssssss" /><path
           id="path143"
           style="opacity:1;stroke:#000000;stroke-width:0;stroke-linecap:round;stroke-linejoin:round;stroke-opacity:0.811286"
           d="m 145.86553,201.33523 c -0.01,0.14343 -0.0919,0.32744 -0.31034,0.44321 -0.13578,0.072 -0.32237,0.1086 -0.58223,0.11998 -0.60239,0.0264 -0.74727,-0.20251 -0.92887,-0.39857 -0.18473,-0.19945 -0.15449,-0.35912 0.10608,-0.4841 0.17773,-0.0853 0.45758,-0.093 0.77791,-0.0844 0.60489,0.0162 0.95415,0.15505 0.93745,0.40392 z"
           sodipodi:nodetypes="sssssss" /><path
           id="path144"
           style="opacity:1;stroke:#000000;stroke-width:0;stroke-linecap:round;stroke-linejoin:round;stroke-opacity:0.811286"
           d="m 146.15509,202.48083 c 0.36326,0.1317 0.76216,0.45284 -0.59242,0.57137 -0.31935,0.028 -0.36118,0.0122 -0.96612,0.10388 -0.52797,0.08 -1.07064,0.25175 -1.98735,0.45852 -1.22021,0.27523 -1.23863,-0.56229 -1.24181,-0.75537 -0.0143,-0.86895 1.29445,-0.79704 2.62993,-0.81107 1.22169,-0.0128 1.94258,0.35465 2.15777,0.43267 z"
           sodipodi:nodetypes="sssssss" /></g></g><g
       id="g4"
       inkscape:label="arriere1"
       style="display:inline;opacity:1"
       transform="translate(4.7955766,7.7059892)"><g
         id="g8"
         inkscape:label="droite"><path
           id="path155"
           style="display:inline;opacity:1;fill:#000000;stroke:#000000;stroke-width:0;stroke-linecap:round;stroke-linejoin:round;stroke-opacity:0.811286"
           transform="matrix(0.99318715,0.11653024,-0.12207407,0.99252098,21.491811,11.505953)"
           d="m 178.30478,179.45894 c -0.18786,0.17413 -0.49839,0.22334 -0.93423,0.22264 -0.39949,-6.4e-4 -0.77673,-0.0893 -1.06662,-0.20489 -0.19073,-0.076 -0.67319,-0.35454 -0.0868,-0.61764 0.22676,-0.10174 0.52254,-0.1396 0.89919,-0.13522 0.37896,0.004 0.56012,0.0359 0.86195,0.11116 0.32349,0.0807 0.67457,0.30129 0.32648,0.62395 z"
           sodipodi:nodetypes="sssssss" /><path
           id="path156"
           style="baseline-shift:baseline;display:inline;overflow:visible;opacity:1;vector-effect:none;fill:#000000;stroke-width:0.999852;stroke-linecap:round;stroke-linejoin:round;enable-background:accumulate;stop-color:#000000;stop-opacity:1"
           d="m 153.39221,199.06625 c 0.27726,0.22061 0.21216,0.3275 -0.0181,0.43429 -0.13499,0.0626 -0.65628,0.15899 -1.1696,0.11238 -0.56511,-0.0513 -1.0517,-0.21725 -1.28006,-0.3869 -0.0946,-0.0703 -0.25226,-0.3087 0.19893,-0.37284 0.33968,-0.0483 0.72814,-0.0846 1.04133,-0.0564 0.8084,0.073 1.07283,0.14633 1.22754,0.26944 z"
           sodipodi:nodetypes="sssssss"
           transform="translate(21.491811,11.505953)" /><path
           id="path157"
           style="baseline-shift:baseline;display:inline;overflow:visible;opacity:1;vector-effect:none;fill:#000000;stroke-width:0.979736;stroke-linecap:round;stroke-linejoin:round;enable-background:accumulate;stop-color:#000000;stop-opacity:1"
           d="m 154.05164,200.51799 c -0.13332,0.0529 -0.37566,0.16052 -1.32702,0.11891 -0.64283,-0.0281 -1.07053,-0.16226 -1.23387,-0.2562 -0.20072,-0.11544 -0.20852,-0.27221 0.08,-0.35862 0.41967,-0.12569 0.79534,-0.13308 1.22513,-0.1013 0.77742,0.0575 1.75981,0.39712 1.25579,0.59721 z"
           sodipodi:nodetypes="ssssss"
           transform="translate(21.491811,11.505953)" /><path
           id="path158"
           style="display:inline;opacity:1;fill:#000000;stroke:#000000;stroke-width:0;stroke-linecap:round;stroke-linejoin:round;stroke-opacity:0.811286"
           transform="matrix(0.99415997,0.10791631,-0.10753046,0.9942018,21.491811,11.505953)"
           d="m 178.38587,180.70783 c 0.0146,0.25076 -0.42728,0.31207 -0.81815,0.3337 -0.16461,0.009 -0.38543,0.0647 -0.92118,-0.0959 -0.30565,-0.0917 -0.45752,-0.39459 -0.20958,-0.64672 0.095,-0.0966 0.61365,-0.2382 1.31293,-0.1622 0.58528,0.0636 0.62137,0.31983 0.63598,0.57116 z"
           sodipodi:nodetypes="ssssss" /><path
           id="path159"
           style="display:inline;opacity:1;fill:#000000;stroke:#000000;stroke-width:0;stroke-linecap:round;stroke-linejoin:round;stroke-opacity:0.811286"
           d="m 159.39648,200.03844 c -0.44229,0.17533 -0.59145,0.17339 -1.4075,0.31821 -0.3133,0.0556 -0.95936,0.39802 -1.24764,0.53605 -0.7214,0.34542 -1.59477,0.10389 -1.83001,-0.10227 -0.14454,-0.12667 -0.70032,-0.49606 -0.253,-0.88999 0.63126,-0.55591 1.62788,-0.4989 2.50118,-0.47248 0.69395,0.021 1.31476,0.10854 1.77607,0.16268 0.54437,0.0639 0.73362,0.33969 0.4609,0.4478 z"
           sodipodi:nodetypes="ssssssss"
           transform="translate(21.491811,11.505953)" /></g><g
         id="g9"
         inkscape:label="gauche"><path
           id="path160"
           style="display:inline;opacity:1;fill:#000000;stroke:#000000;stroke-width:0;stroke-linecap:round;stroke-linejoin:round;stroke-opacity:0.811286"
           d="m 142.58173,201.51954 c -0.14318,0.0469 -0.6027,0.0787 -0.85376,0.0568 -0.29949,-0.0262 -0.52182,-0.0674 -0.72855,-0.13676 -0.0839,-0.0282 -0.3126,-0.1155 -0.44197,-0.25197 -0.0741,-0.0782 -0.27598,-0.34873 0.36544,-0.55162 0.19746,-0.0625 0.41572,-0.0218 0.67119,-0.004 0.31749,0.0219 0.86856,0.20115 1.06489,0.3236 0.49522,0.30889 0.0407,0.52555 -0.0772,0.56418 z"
           sodipodi:nodetypes="ssssssss"
           transform="translate(21.491811,11.505953)" /><path
           id="path161"
           style="baseline-shift:baseline;display:inline;overflow:visible;opacity:1;vector-effect:none;fill:#000000;stroke-width:0.999852;stroke-linecap:round;stroke-linejoin:round;enable-background:accumulate;stop-color:#000000;stop-opacity:1"
           d="m 140.78317,201.6363 c 0.58714,0.25128 0.2688,0.43827 0.16765,0.48595 -0.21536,0.10152 -0.55413,0.10494 -1.01821,0.0888 -0.23723,-0.008 -0.42882,-0.0402 -1.12078,-0.20408 -0.33996,-0.0805 -0.573,-0.42895 -0.15753,-0.54065 0.2774,-0.0746 0.39016,-0.0597 0.82708,-0.0542 0.42476,0.005 0.87413,0.0411 1.30179,0.22416 z"
           sodipodi:nodetypes="sssssss"
           transform="translate(21.491811,11.505953)" /><path
           id="path162"
           style="baseline-shift:baseline;display:inline;overflow:visible;opacity:1;vector-effect:none;fill:#000000;stroke-width:0.968605;stroke-linecap:round;stroke-linejoin:round;enable-background:accumulate;stop-color:#000000;stop-opacity:1"
           d="m 141.47099,202.81112 c 0.29563,0.18095 0.0801,0.33338 -0.0492,0.37109 -0.38526,0.11234 -0.76527,0.0924 -1.18216,0.0685 -0.39283,-0.0225 -0.75021,-0.12637 -1.04735,-0.24506 -0.46566,-0.18602 -0.16346,-0.35416 0.0868,-0.41701 0.19913,-0.05 0.66378,-0.0839 1.02704,-0.0558 0.48658,0.0377 0.88391,0.10624 1.16485,0.2782 z"
           sodipodi:nodetypes="sssssss"
           transform="translate(21.491811,11.505953)" /><path
           id="path163"
           style="display:inline;opacity:1;fill:#000000;stroke:#000000;stroke-width:0;stroke-linecap:round;stroke-linejoin:round;stroke-opacity:0.811286"
           d="m 145.43873,201.19001 c 0.10985,0.0928 0.25906,0.30577 0.0369,0.41427 -0.18126,0.0885 -0.37679,0.19555 -1.07006,0.12619 -0.5468,-0.0547 -0.73117,-0.22939 -0.88546,-0.39651 -0.16377,-0.17737 -0.0408,-0.38599 0.22597,-0.46963 0.18811,-0.059 0.43523,-0.0445 0.75517,-0.0265 0.47256,0.0266 0.7007,0.15227 0.93745,0.3522 z"
           sodipodi:nodetypes="sssssss"
           transform="translate(21.491811,11.505953)" /><path
           id="path164"
           style="display:inline;opacity:1;fill:#000000;stroke:#000000;stroke-width:0;stroke-linecap:round;stroke-linejoin:round;stroke-opacity:0.811286"
           d="m 146.7339,202.22943 c 0.42446,0.20206 0.54681,0.34018 -0.0626,0.49664 -0.25834,0.0663 -1.08041,0.21039 -1.5798,0.43141 -0.4965,0.21974 -0.66921,0.51662 -1.3047,0.51894 -0.29411,0.001 -0.86702,0.0485 -1.17761,-0.19921 -0.58205,-0.46417 -0.72836,-0.86329 -0.2099,-1.20556 0.50411,-0.33278 1.502,-0.24214 2.10959,-0.24688 0.98201,-0.008 2.01833,0.10627 2.22501,0.20466 z"
           sodipodi:nodetypes="ssssssss"
           transform="translate(21.491811,11.505953)" /></g></g><g
       id="g1"
       inkscape:label="avant1"
       style="display:inline;opacity:1;fill:#000000"
       transform="translate(3.262705e-6)"><g
         id="g7"
         inkscape:label="droite"><path
           id="path165"
           style="display:inline;opacity:1;fill:#000000;stroke:#000000;stroke-width:0;stroke-linecap:round;stroke-linejoin:round;stroke-opacity:0.811286"
           d="m 177.18606,210.95087 c -0.0379,0.30836 -0.74154,0.51123 -1.15968,0.4015 -0.3808,-0.0999 -0.85683,-0.24743 -0.98473,-0.4186 -0.053,-0.0709 -0.0658,-0.1574 -0.0666,-0.249 -0.003,-0.33536 0.61004,-0.48785 1.17622,-0.42836 0.55872,0.0585 1.07266,0.38611 1.03475,0.69446 z"
           sodipodi:nodetypes="ssssss" /><path
           id="path166"
           style="baseline-shift:baseline;display:inline;overflow:visible;opacity:1;vector-effect:none;fill:#000000;stroke-width:0.999852;stroke-linecap:round;stroke-linejoin:round;enable-background:accumulate;stop-color:#000000;stop-opacity:1"
           d="m 175.06894,211.47799 c -0.004,0.15522 -0.16156,0.301 -1.09472,0.23248 -0.89583,-0.0658 -1.44245,-0.33027 -1.41855,-0.63494 0.0244,-0.31052 0.76686,-0.27496 1.30227,-0.22663 0.80841,0.0729 1.2162,0.43144 1.211,0.62909 z"
           sodipodi:nodetypes="sssss" /><path
           id="path167"
           style="baseline-shift:baseline;display:inline;overflow:visible;opacity:1;vector-effect:none;fill:#000000;stroke-width:0.979736;stroke-linecap:round;stroke-linejoin:round;enable-background:accumulate;stop-color:#000000;stop-opacity:1"
           d="m 174.80233,212.48946 c 3.2e-4,0.14344 -0.16614,0.36588 -1.13065,0.24293 -1.0525,-0.13417 -1.46577,-0.24225 -1.49225,-0.54972 -0.0306,-0.35486 0.79212,-0.27614 1.34644,-0.24288 0.77814,0.0467 1.27612,0.39919 1.27646,0.54967 z"
           sodipodi:nodetypes="sssss" /><path
           id="path168"
           style="display:inline;opacity:1;fill:#000000;stroke:#000000;stroke-width:0;stroke-linecap:round;stroke-linejoin:round;stroke-opacity:0.811286"
           d="m 179.67191,211.36388 c -0.025,0.11492 -0.50248,0.47122 -1.00428,0.40677 -0.57616,-0.074 -1.001,-0.43456 -0.98849,-0.61234 0.0188,-0.26718 0.35435,-0.45627 1.05399,-0.38338 0.60189,0.0623 0.98369,0.38278 0.93878,0.58895 z"
           sodipodi:nodetypes="sssss" /><path
           id="path169"
           style="display:inline;opacity:1;fill:#000000;stroke:#000000;stroke-width:0;stroke-linecap:round;stroke-linejoin:round;stroke-opacity:0.811286"
           d="m 180.34734,212.5774 c -0.008,0.19309 -1.56185,0.33299 -2.32299,0.4749 -0.31515,0.0588 -0.61565,0.14751 -0.91936,0.24712 -0.29734,0.0975 -0.59422,0.20655 -1.23606,0.20712 -0.56951,5.4e-4 -0.73713,-0.65963 -0.70686,-0.85184 0.0876,-0.55584 1.31338,-1.01702 2.62701,-0.77598 1.41169,0.25902 2.56699,0.46995 2.55826,0.69868 z"
           sodipodi:nodetypes="sssssss" /></g><g
         id="g6"
         inkscape:label="gauche"><path
           id="path170"
           style="display:inline;opacity:1;fill:#000000;stroke:#000000;stroke-width:0;stroke-linecap:round;stroke-linejoin:round;stroke-opacity:0.811286"
           d="m 164.68986,213.69322 c -0.26912,0.16965 -0.3536,0.18144 -0.6744,0.24215 -0.14805,0.028 -0.56179,-0.0702 -0.79795,-0.15817 -0.23128,-0.0861 -0.404,-0.1997 -0.52185,-0.3538 -0.0538,-0.0703 -0.0821,-0.15874 -0.0699,-0.23544 0.0303,-0.18947 0.25732,-0.25778 0.56595,-0.2891 0.20604,-0.0209 0.35164,-0.0363 0.60711,-0.0187 0.31749,0.0219 0.60283,0.18044 0.71349,0.26986 0.51538,0.41646 0.26175,0.49012 0.17755,0.5432 z"
           sodipodi:nodetypes="sssssssss" /><path
           id="path171"
           style="baseline-shift:baseline;display:inline;overflow:visible;opacity:1;vector-effect:none;fill:#000000;stroke-width:0.999852;stroke-linecap:round;stroke-linejoin:round;enable-background:accumulate;stop-color:#000000;stop-opacity:1"
           d="m 162.62,214.09419 c -0.003,0.0454 -0.003,0.10503 -0.099,0.14076 -0.17899,0.0663 -0.6721,0.12654 -1.13397,0.0785 -0.15868,-0.0165 -0.46248,-0.13754 -0.74457,-0.27023 -0.2867,-0.13485 -0.54613,-0.28218 -0.53787,-0.43523 0.0155,-0.28683 0.99996,-0.27227 1.472,-0.19478 0.8899,0.14609 1.05827,0.48384 1.04337,0.681 z"
           sodipodi:nodetypes="sssssss" /><path
           id="path172"
           style="baseline-shift:baseline;display:inline;overflow:visible;opacity:1;vector-effect:none;fill:#000000;stroke-width:0.968605;stroke-linecap:round;stroke-linejoin:round;enable-background:accumulate;stop-color:#000000;stop-opacity:1"
           d="m 162.15314,214.89246 c 0.0754,0.0729 0.17668,0.16881 0.0645,0.31528 -0.1397,0.18239 -0.59337,0.1704 -1.0106,0.15329 -0.20266,-0.008 -0.60229,-0.0534 -0.9688,-0.22233 -0.22128,-0.10196 -0.37293,-0.25101 -0.39688,-0.386 -0.022,-0.12418 0.28412,-0.19141 0.63843,-0.20665 0.20543,-0.009 0.42293,0.007 0.61276,0.0204 0.56934,0.0392 0.94792,0.21704 1.06061,0.32598 z"
           sodipodi:nodetypes="sssssssss" /><path
           id="path173"
           style="display:inline;opacity:1;fill:#000000;stroke:#000000;stroke-width:0;stroke-linecap:round;stroke-linejoin:round;stroke-opacity:0.811286"
           d="m 167.28718,213.77663 c -0.01,0.14343 -0.0919,0.32744 -0.31034,0.44321 -0.13578,0.072 -0.32237,0.1086 -0.58223,0.11998 -0.60239,0.0264 -0.74727,-0.20251 -0.92887,-0.39857 -0.18473,-0.19945 -0.15449,-0.35912 0.10608,-0.4841 0.17773,-0.0853 0.45758,-0.093 0.77791,-0.0844 0.60489,0.0162 0.95415,0.15505 0.93745,0.40392 z"
           sodipodi:nodetypes="sssssss" /><path
           id="path174"
           style="display:inline;opacity:1;fill:#000000;stroke:#000000;stroke-width:0;stroke-linecap:round;stroke-linejoin:round;stroke-opacity:0.811286"
           d="m 167.57674,214.92223 c 0.36326,0.1317 0.76216,0.45284 -0.59242,0.57137 -0.31935,0.028 -0.36118,0.0122 -0.96612,0.10388 -0.52797,0.08 -1.07064,0.25175 -1.98735,0.45852 -1.22021,0.27523 -1.23863,-0.56229 -1.24181,-0.75537 -0.0143,-0.86895 1.29445,-0.79704 2.62993,-0.81107 1.22169,-0.0128 1.94258,0.35465 2.15777,0.43267 z"
           sodipodi:nodetypes="sssssss" /></g></g></g></svg>
