<?xml version="1.0" encoding="UTF-8" standalone="no"?>
<!-- Created with Inkscape (http://www.inkscape.org/) -->

<svg
   width="210mm"
   height="297mm"
   viewBox="0 0 210 297"
   version="1.1"
   id="svg1"
   xml:space="preserve"
   inkscape:version="1.4.1 (93de688d07, 2025-03-30)"
   sodipodi:docname="catLogo.svg"
   xmlns:inkscape="http://www.inkscape.org/namespaces/inkscape"
   xmlns:sodipodi="http://sodipodi.sourceforge.net/DTD/sodipodi-0.dtd"
   xmlns="http://www.w3.org/2000/svg"
   xmlns:svg="http://www.w3.org/2000/svg"><sodipodi:namedview
     id="namedview1"
     pagecolor="#505050"
     bordercolor="#eeeeee"
     borderopacity="1"
     inkscape:showpageshadow="0"
     inkscape:pageopacity="0"
     inkscape:pagecheckerboard="0"
     inkscape:deskcolor="#505050"
     inkscape:document-units="mm"
     inkscape:zoom="0.70710678"
     inkscape:cx="400.92954"
     inkscape:cy="449.71991"
     inkscape:window-width="2560"
     inkscape:window-height="1319"
     inkscape:window-x="2560"
     inkscape:window-y="121"
     inkscape:window-maximized="1"
     inkscape:current-layer="g1" /><defs
     id="defs1" /><g
     id="g1"
     inkscape:label="cat logo A4"
     transform="matrix(0.77385817,0,0,0.77385817,-5.645301,-48.110969)"><path
       style="opacity:1;fill:#000000"
       d="m 244.47501,436.97062 c 0,-0.85325 -3.59626,-5.64519 -6.20261,-8.26485 -2.95107,-2.96613 -5.19737,-4.12951 -10.34464,-5.35758 -6.12156,-1.46053 -14.68547,-4.48327 -23.84581,-8.41669 -2.71639,-1.16641 -6.60576,-2.74812 -8.64306,-3.51491 -4.65042,-1.75033 -6.12632,-2.40225 -11.81805,-5.22021 -7.0953,-3.51286 -10.14096,-5.90678 -19.35511,-15.2133 -4.45705,-4.50174 -8.42815,-8.70861 -8.82464,-9.34861 -0.3965,-0.64 -0.88576,-1.27973 -1.08725,-1.42163 -0.44774,-0.31533 -1.24828,0.68522 -1.24828,1.56015 0,0.97976 -0.49458,0.78404 -2.71572,-1.07472 -6.68245,-5.59222 -10.66362,-12.13281 -12.24497,-20.11708 -0.47575,-2.40208 -1.04553,-4.54521 -1.26618,-4.7625 -0.60285,-0.59367 -1.24759,0.4887 -1.70973,2.87024 -0.21627,1.1145 -0.63848,3.29227 -0.93826,4.8395 -1.08125,5.58068 -1.23117,4.56188 -1.93153,-13.12534 -0.1708,-4.31352 -0.39473,-7.97898 -0.49763,-8.14546 -0.10289,-0.16649 -0.35404,-4.49538 -0.5581,-9.61975 -0.31222,-7.84055 -0.49083,-9.69947 -1.12703,-11.73029 -0.41581,-1.32728 -0.9684,-2.49474 -1.22798,-2.59435 -0.54959,-0.2109 -8.2957,4.15358 -9.7661,5.50262 -1.82593,1.67524 -2.94827,5.081 -3.78953,11.49942 -0.55245,4.21488 -0.86557,5.04041 -1.21828,3.21186 -0.44004,-2.2813 0.0627,-7.219 1.05311,-10.34246 0.73534,-2.31914 0.83674,-3.02844 0.50817,-3.55456 -0.3521,-0.5638 -0.17615,-0.90431 1.23728,-2.39439 3.06049,-3.22647 7.64475,-9.09605 7.53783,-9.65125 -0.15022,-0.78005 -2.60541,-1.84893 -4.30597,-1.87464 -2.1266,-0.0322 -3.15386,0.66856 -7.4894,5.1086 -4.06032,4.1582 -6.11578,6.98199 -8.41414,11.55934 -3.35393,6.67961 -3.68945,8.86176 -3.74268,24.34167 -0.0405,11.76611 -0.072,12.35291 -0.52081,9.70139 -0.607514,-3.58884 -1.552914,-14.67575 -1.552914,-18.21136 0,-4.93969 1.426594,-10.85651 3.879784,-16.09148 2.21095,-4.71805 5.08348,-8.74924 9.06236,-12.71775 2.00113,-1.99591 3.63841,-3.85714 3.63841,-4.13608 0,-1.30352 -4.89387,-2.46239 -8.29028,-1.96315 -3.06626,0.45072 -4.74275,1.12041 -8.134455,3.24937 -2.68116,1.68295 -10.280741,7.12083 -10.739154,7.68439 -0.09701,0.11927 -0.732014,0.6718 -1.411111,1.22785 -5.648469,4.62497 -12.459616,11.78211 -17.97492,18.88802 -1.894949,2.44145 -3.730331,4.67539 -4.078626,4.96432 -0.604226,0.50123 -0.607705,0.47588 -0.07587,-0.55285 0.745625,-1.44228 7.465755,-10.37928 9.80005,-13.03295 5.354475,-6.08706 12.54481,-12.5071 19.47312,-17.38698 3.930831,-2.76864 4.777419,-3.73559 3.649531,-4.1684 -0.648374,-0.24881 -9.780013,2.37807 -13.603521,3.91328 -3.136522,1.25938 -3.945519,1.30608 -2.476158,0.14292 2.964011,-2.34633 8.864612,-4.33326 14.987787,-5.0469 6.994567,-0.8152 8.448787,-1.53207 6.925297,-3.4139 l -0.68906,-0.85113 -8.84044,-0.061 c -4.862243,-0.0335 -8.980786,-0.14773 -9.152317,-0.25375 -0.171531,-0.10601 -0.659023,-1.14483 -1.083315,-2.30849 -0.424291,-1.16366 -0.938824,-2.2192 -1.143406,-2.34564 -0.668726,-0.41329 -1.424758,0.79119 -1.66057,2.64555 -0.127155,0.99991 -0.383741,1.83046 -0.570191,1.84566 -0.18645,0.0152 -1.042985,-1.29986 -1.903412,-2.92235 -1.888187,-3.56052 -3.710574,-6.28778 -5.625031,-8.41804 -1.366268,-1.52027 -1.453615,-1.56119 -2.062682,-0.96614 -0.596653,0.58291 -0.602294,0.75072 -0.09118,2.71252 l 0.544818,2.09117 -0.948149,-0.67514 c -1.456827,-1.03736 -4.709502,-4.63375 -9.012933,-9.96535 -1.359912,-1.68482 -4.846412,-7.13405 -5.477981,-8.56181 -1.084937,-2.45268 -2.405845,-2.4905 -2.419327,-0.0693 -0.003,0.53358 -0.162381,0.97014 -0.354243,0.97014 -0.701302,0 -5.331287,-10.11341 -7.509936,-16.40417 -2.108388,-6.08788 -5.194002,-19.65868 -5.194002,-22.84367 0,-0.94018 -0.256652,-2.21747 -0.570337,-2.83843 -0.662681,-1.31181 -4.264176,-6.121 -6.152162,-8.21518 -1.467915,-1.62823 -4.78349,-6.11627 -5.706471,-7.72441 -2.717048,-4.73401 -4.322947,-9.02769 -5.939588,-15.88063 -0.664945,-2.8187 -1.145915,-3.98568 -2.394145,-5.80891 -2.032901,-2.96935 -2.287575,-3.62562 -3.35966,-8.65756 -0.495817,-2.32716 -1.311906,-6.13621 -1.81353,-8.46454 -2.226156,-10.3329 -5.4632965,-27.14982 -6.3162382,-32.81281 -0.8519775,-5.65658 0.026689,-10.24057 2.4920632,-13.00105 1.840937,-2.0613 2.6713,-2.52483 6.128181,-3.4209 3.369067,-0.8733 5.704044,-0.79269 11.81383,0.40788 5.371593,1.05551 18.503899,4.4128 24.694447,6.31317 1.164167,0.35737 3.545417,1.07508 5.291667,1.5949 1.74625,0.51983 6.429376,1.98157 10.406945,3.24833 3.97757,1.26676 7.913895,2.51636 8.747388,2.7769 l 1.515442,0.47371 2.037727,-1.84007 c 1.120749,-1.01204 2.399003,-2.07819 2.840564,-2.36923 0.441561,-0.29105 1.739063,-1.27419 2.883339,-2.18476 6.250456,-4.97389 26.595575,-13.47841 41.108585,-17.18391 1.57562,-0.40229 5.22682,-1.1368 8.11378,-1.63224 2.88696,-0.49545 6.12214,-1.13099 7.18929,-1.41231 1.06715,-0.28133 4.95653,-0.9168 8.64306,-1.41216 3.68652,-0.49536 7.2584,-1.07638 7.9375,-1.29116 1.27471,-0.40315 3.01378,-1.56874 4.63374,-3.10569 1.016,-0.96394 5.64641,-6.54642 7.88987,-9.51212 0.77611,-1.02597 2.22905,-2.87861 3.22876,-4.11698 0.9997,-1.238375 2.98408,-3.864316 4.40972,-5.835428 6.18013,-8.544736 13.727,-17.760476 15.88944,-19.403141 4.42256,-3.359527 8.46137,-4.740266 12.63181,-4.318405 10.7646,1.088893 19.97645,13.489493 23.82603,32.073574 0.5225,2.52236 1.57747,6.57049 2.3444,8.99584 2.69416,8.52004 3.05399,9.82639 3.46361,12.57433 0.22722,1.52433 0.64447,3.88275 0.92722,5.24094 1.39684,6.7098 2.28819,12.90847 2.63788,18.34445 0.21218,3.29847 0.58702,6.48251 0.83297,7.07564 0.3289,0.79315 1.08937,1.41291 2.8749,2.34294 3.02951,1.57798 7.25973,3.10503 8.60153,3.10503 1.40546,0 1.68754,0.664 0.473,1.11344 -0.5513,0.20401 -2.35003,0.87039 -3.99716,1.48083 -2.00884,0.7445 -3.0336,1.31315 -3.11267,1.72726 -0.0768,0.40204 0.10247,0.61736 0.51391,0.61736 0.34749,0 1.92934,0.33096 3.51522,0.73546 l 2.88341,0.73546 3.6544,-0.72551 c 4.35094,-0.86379 7.35857,-1.26656 7.35857,-0.98542 0,0.48133 -1.69954,1.96275 -3.02305,2.63507 -1.70726,0.86726 -5.09084,3.48457 -5.09084,3.93795 0,0.72672 1.19208,1.4281 2.42721,1.4281 0.87688,0 1.99395,-0.40675 3.33529,-1.21447 1.10926,-0.66796 3.79867,-2.11358 5.97647,-3.2125 4.19298,-2.11577 6.37849,-3.33493 8.3304,-4.64701 0.65767,-0.44209 1.3522,-0.8038 1.54341,-0.8038 0.64345,0 -0.0729,2.16343 -2.21029,6.67526 -2.55731,5.39823 -2.71474,6.85293 -1.07196,9.9053 0.57434,1.06715 1.05056,2.05021 1.05826,2.18458 0.008,0.13436 -0.65775,0.29311 -1.47876,0.35278 -1.31331,0.0954 -1.53125,0.2357 -1.8129,1.16681 -0.17608,0.58208 -0.86515,2.52446 -1.53126,4.3164 -0.72299,1.94495 -1.12104,3.54186 -0.98763,3.9622 0.12292,0.38727 0.85774,1.54052 1.63294,2.56276 1.52052,2.00511 2.87726,4.69508 3.78433,7.50308 0.7073,2.18957 0.76987,12.8777 0.0895,15.28903 -0.58981,2.09037 -0.54201,5.12661 0.15942,10.12807 0.91411,6.51791 0.28168,13.42423 -1.73567,18.95406 -1.20703,3.30864 -2.33061,5.10872 -4.61401,7.39213 -1.49391,1.49391 -1.95864,2.20636 -1.95864,3.00267 0,2.24934 -2.05647,6.11159 -4.37987,8.22584 -1.68665,1.53482 -2.5476,4.0076 -3.38913,9.73409 -1.19125,8.10628 -0.85569,12.24472 1.33409,16.45303 0.48366,0.92952 0.8002,1.76922 0.7034,1.86602 -0.0968,0.0968 -0.93419,-0.22716 -1.86089,-0.71989 -0.9267,-0.49273 -2.21689,-0.89587 -2.86709,-0.89587 -1.79905,0 -1.6909,0.76978 0.90933,6.47266 0.88998,1.95193 0.80916,2.41355 -0.57325,3.27431 -1.98449,1.23565 -2.23567,1.56616 -1.80366,2.37337 0.2186,0.40845 0.76911,1.03499 1.22337,1.39231 1.23697,0.973 1.01095,1.30401 -0.8904,1.30401 -3.3036,0 -4.82438,2.55527 -2.41523,4.05815 0.81193,0.5065 1.63271,1.69486 2.89682,4.19411 1.60064,3.1646 1.8945,3.53699 3.17501,4.02357 3.8677,1.4697 9.53768,6.00103 12.44922,9.94918 2.71541,3.68217 2.98116,4.80289 3.26234,13.75833 0.21398,6.81508 0.35592,8.23365 1.00374,10.03183 2.3163,6.42946 0.62962,15.74431 -4.25516,23.49943 -1.03109,1.63696 -1.82901,3.40417 -2.07071,4.58611 -1.3325,6.51616 -5.56559,14.10311 -13.11203,23.50068 -4.4909,5.59251 -8.5354,9.21912 -12.18227,10.92357 -0.36404,0.17014 -0.65143,1.45552 -0.35278,1.57784 0.0485,0.0199 2.58068,0.14434 5.62705,0.27659 3.04638,0.13225 5.64513,0.34673 5.77501,0.47661 0.95142,0.95142 -3.85359,6.32841 -7.33019,8.20276 -1.02685,0.55361 -1.982,1.17781 -2.12256,1.38711 -0.14055,0.20929 -0.15546,2.7221 -0.0331,5.58401 l 0.22244,5.20347 h -1.11342 c -0.69673,0 -1.11341,-0.17733 -1.11341,-0.47384 z m -4.18157,-29.49949 c 1.63452,-0.62107 3.82879,-2.24918 3.82879,-2.8409 0,-0.12467 -1.23031,-1.49532 -2.73403,-3.0459 -3.01051,-3.10434 -4.92908,-5.99588 -3.7479,-5.64859 1.55294,0.4566 4.9829,0.93927 6.67459,0.93927 1.23286,0 2.67446,-0.35028 4.43313,-1.07717 1.43339,-0.59244 4.2668,-1.62807 6.29648,-2.3014 2.02967,-0.67333 4.07525,-1.57767 4.54573,-2.00964 1.01946,-0.93603 2.87645,-3.41309 2.87645,-3.83694 0,-0.16492 -0.67469,-0.30334 -1.49931,-0.3076 -2.3898,-0.0124 -4.14061,-1.03866 -6.2794,-3.68095 -4.13844,-5.11267 -4.67399,-5.87182 -4.35918,-6.17924 0.17591,-0.17178 2.12818,-0.35237 4.33839,-0.40131 6.69041,-0.14814 11.53625,-1.32277 13.33509,-3.23241 1.93623,-2.0555 5.04774,-9.07328 5.04774,-11.38479 0,-2.01379 -0.91523,-2.16559 -5.11528,-0.84845 -2.73728,0.85842 -4.41707,1.14949 -7.49652,1.29898 -5.90557,0.28669 -5.50513,-0.12992 3.14367,-3.27056 2.45663,-0.89207 5.16682,-2.06602 6.02265,-2.60877 2.44403,-1.54996 3.34335,-4.26726 1.96281,-5.9307 -0.55669,-0.67078 -0.9688,-0.53615 -1.33894,0.43741 -0.57582,1.51451 -4.53638,3.76601 -10.26117,5.83326 -1.52677,0.55133 -3.48291,1.48881 -4.34695,2.08329 -0.86405,0.59448 -1.70167,1.08088 -1.86137,1.08088 -0.15969,0 -0.72481,-0.46031 -1.25581,-1.0229 -0.61554,-0.65217 -1.82976,-1.29014 -3.35024,-1.76028 -2.43099,-0.75166 -3.55424,-1.29118 -3.25652,-1.56416 0.0914,-0.0838 2.30992,-0.39224 4.93006,-0.68541 3.97498,-0.44477 5.14338,-0.71817 7.05555,-1.65095 1.26042,-0.61485 3.64105,-1.50802 5.29028,-1.98481 4.13905,-1.19661 7.18623,-2.73426 7.71401,-3.89259 0.23413,-0.51387 0.51911,-1.61584 0.63328,-2.44882 0.17937,-1.30862 0.0839,-1.63821 -0.70242,-2.42452 -1.46356,-1.46356 -3.33452,-1.28364 -11.34903,1.09135 -2.13057,0.63136 2.68893,-2.75242 7.36706,-5.17243 0.55844,-0.28888 1.7175,-1.14331 2.57571,-1.89873 1.21391,-1.06852 1.53658,-1.57854 1.45324,-2.29698 -0.0871,-0.75097 -0.27189,-0.9067 -0.98907,-0.83359 -2.81276,0.28673 -14.82199,7.60823 -15.38399,9.37894 -0.26096,0.82221 -0.98969,1.64365 -1.45814,1.64365 -0.17159,0 -0.76825,-0.47625 -1.32592,-1.05833 -0.55768,-0.58208 -1.34144,-1.06076 -1.7417,-1.06374 -0.40026,-0.003 -0.94314,-0.14187 -1.20639,-0.30868 -0.54561,-0.34572 -0.53434,-0.3553 2.00562,-1.70581 2.09836,-1.11571 4.72346,-3.31576 7.51165,-6.29539 2.80546,-2.99808 3.22311,-3.71471 2.91095,-4.99484 -0.32173,-1.31941 -1.92848,-3.62219 -3.47449,-4.9796 -1.72492,-1.5145 -3.34939,-1.47712 -7.24037,0.16662 -4.21877,1.78221 -8.59449,3.14872 -11.66301,3.64227 -1.44347,0.23218 -2.86261,0.4861 -3.15366,0.56427 -0.29104,0.0782 -0.76309,-0.005 -1.04901,-0.18397 -0.42164,-0.2645 -0.2454,-0.57952 0.93296,-1.66764 0.99113,-0.91522 1.58786,-1.84603 1.87778,-2.92905 0.23373,-0.87312 0.83484,-2.42706 1.3358,-3.45318 0.82574,-1.69139 1.43861,-2.34047 5.77212,-6.1132 0.36045,-0.3138 0.65536,-0.82577 0.65536,-1.13771 0,-0.73553 -1.34283,-0.50006 -4.93889,0.86609 -7.59339,2.88473 -15.21795,9.59945 -17.33837,15.2694 -0.44106,1.17936 -2.11785,4.31929 -3.72622,6.97761 -1.60837,2.65832 -2.9243,4.92896 -2.9243,5.04588 0,0.11691 -0.31476,0.64271 -0.69946,1.16843 -0.38469,0.52572 -1.01829,1.88942 -1.40798,3.03046 -1.64479,4.81601 -3.22497,21.18559 -3.30731,34.2615 l -0.0533,8.46667 0.98585,2.10542 c 2.04137,4.35963 6.67736,9.36885 11.18498,12.08544 3.01462,1.81681 7.0691,3.59629 9.00632,3.95279 1.1584,0.21318 2.82056,0.61276 3.69368,0.88796 2.13225,0.67206 2.51886,0.65995 4.63788,-0.14521 z m -51.97357,-4.49152 c -0.0634,-0.329 -1.30531,-1.43532 -2.75989,-2.4585 -4.62295,-3.25185 -7.36635,-5.83625 -19.32984,-18.20958 -2.38586,-2.46758 -4.5401,-4.48652 -4.7872,-4.48652 -0.2471,0 -1.0984,-0.55563 -1.89177,-1.23472 -1.66015,-1.42103 -2.56506,-1.58835 -2.56506,-0.47427 0,1.07956 1.32983,2.7358 5.79493,7.21732 2.14855,2.15646 5.09709,5.14828 6.5523,6.64849 3.94321,4.06514 12.86069,11.2306 15.93513,12.80434 1.87741,0.96101 3.21556,1.04584 3.0514,0.19344 z m 16.55303,-2.66502 c 0.19149,-0.24253 0.43558,-1.33436 0.54242,-2.42628 0.10683,-1.09192 0.40097,-2.31634 0.65364,-2.72092 0.65535,-1.04939 -0.0488,-3.44378 -1.98785,-6.75905 -2.28659,-3.90954 -3.43878,-6.61862 -3.47977,-8.18178 -0.0321,-1.22558 0.14218,-1.53765 1.47932,-2.64835 l 1.51575,-1.25907 -0.0897,-4.3352 -0.0898,-4.3352 1.65544,-2.68248 c 0.91049,-1.47536 1.65543,-3.01873 1.65543,-3.4297 0,-0.70911 -0.12498,-0.73674 -2.45045,-0.54178 l -2.45046,0.20544 1.23273,-2.70506 c 0.67801,-1.48779 2.18145,-4.4544 3.34098,-6.59247 4.70273,-8.67144 8.08832,-15.77681 8.08832,-16.97508 0,-0.96406 -0.13844,-1.19983 -0.70454,-1.19983 -0.9804,0 -3.29647,2.17486 -5.54135,5.20348 -1.04268,1.4067 -1.97193,2.55764 -2.065,2.55764 -0.64843,0 2.0649,-5.95894 4.05812,-8.91233 1.47833,-2.19046 1.42127,-2.72934 -0.28899,-2.72934 -1.77661,0 -3.83902,0.74443 -6.8135,2.45934 -1.32169,0.76201 -2.40308,1.29896 -2.40308,1.19322 0,-0.24658 1.47166,-2.35987 1.8105,-2.59985 0.14134,-0.10011 0.74665,-1.11288 1.34513,-2.25061 0.8337,-1.58488 0.99525,-2.18055 0.69086,-2.54732 -0.32691,-0.3939 -0.78093,-0.26502 -2.56286,0.72749 -1.19107,0.66341 -3.0387,1.52702 -4.10585,1.91915 -2.42817,0.89223 -8.47692,2.15691 -10.31615,2.15691 -2.0635,0 -1.50544,-0.74881 1.21654,-1.63235 3.93448,-1.27712 6.61122,-2.91969 9.45239,-5.80042 2.85458,-2.89433 3.74007,-4.20517 3.41424,-5.05426 -0.30585,-0.79703 -1.90202,-0.14235 -5.26021,2.15753 -1.53141,1.04879 -2.92632,1.85729 -3.09982,1.79667 -0.43348,-0.15147 0.83838,-2.89634 2.38369,-5.14437 0.95528,-1.38969 1.17661,-1.96051 0.87653,-2.26059 -0.59598,-0.59597 -4.56657,1.47289 -7.14861,3.72477 -1.16506,1.01608 -3.45236,2.51179 -5.0829,3.32381 -2.85608,1.42234 -6.83075,2.72287 -7.1983,2.35532 -0.0977,-0.0977 0.16835,-0.64543 0.59113,-1.21727 1.4252,-1.92769 0.83758,-2.20783 -2.43048,-1.15874 -1.55813,0.50019 -3.23428,0.61553 -8.97167,0.61737 -8.36577,0.003 -9.19205,-0.19108 -17.61587,-4.1307 -9.28961,-4.34453 -10.67966,-4.85292 -13.2857,-4.85906 -1.19639,-0.003 -1.79475,0.18815 -2.28422,0.72901 -0.65033,0.7186 -0.64731,0.77509 0.15538,2.91041 0.45022,1.19768 0.9705,2.80635 1.15617,3.57483 0.69745,2.88671 1.35896,9.27925 1.35896,13.13242 0,2.19515 0.0954,3.99118 0.21207,3.99118 0.11664,0 1.32659,-1.03188 2.68878,-2.29306 2.49609,-2.311 3.37294,-2.81202 2.93267,-1.67569 -0.6202,1.60071 -0.89671,4.35616 -1.10632,11.0243 -0.25248,8.03209 -0.007,9.97871 2.02162,16.04014 1.18907,3.55264 4.28005,10.116 5.07464,10.77546 0.71146,0.59046 1.5821,0.17584 1.5821,-0.75342 0,-1.44932 -1.79403,-10.17221 -2.8742,-13.97487 -1.28993,-4.54112 -1.55551,-7.38689 -1.47374,-15.79147 0.034,-3.4925 0.0737,-8.00365 0.0882,-10.02477 0.0145,-2.02113 0.10407,-3.59711 0.199,-3.50218 0.0949,0.0949 0.58351,1.90732 1.08575,4.02755 0.72353,3.05445 0.96804,5.24681 1.17749,10.55773 0.28231,7.15878 0.59134,8.50397 2.03694,8.86679 1.30177,0.32673 2.30604,-0.61555 3.98938,-3.74312 1.93493,-3.59503 3.93422,-5.65882 6.79296,-7.01212 2.27688,-1.07786 10.80342,-3.39145 11.16528,-3.02959 0.11208,0.11209 -0.12924,0.47075 -0.53628,0.79703 -0.40704,0.32628 -2.80567,2.2121 -5.3303,4.19071 -6.31779,4.95141 -7.31217,6.30515 -8.38795,11.41921 -0.99699,4.73951 -0.45357,7.49813 1.74063,8.83614 2.27864,1.38952 3.20086,0.96354 7.61295,-3.5165 1.84327,-1.87165 3.73607,-3.70279 4.20622,-4.0692 1.23647,-0.96364 8.46739,-4.51666 8.89916,-4.37274 0.20088,0.067 -1.33296,2.41662 -3.40853,5.22147 -5.89377,7.96464 -6.75004,10.0928 -7.08166,17.6006 l -0.21179,4.79466 3.17058,4.81021 c 4.73122,7.17793 9.54977,11.95092 10.91839,10.81517 0.64106,-0.53199 0.54944,-4.04359 -0.15693,-6.01438 -0.53518,-1.49316 -0.55464,-2.09832 -0.17676,-5.49671 0.23355,-2.10035 0.68717,-5.12776 1.00805,-6.72758 0.64424,-3.21203 0.41431,-5.1442 -0.69245,-5.81882 -0.52994,-0.32303 -0.80657,-0.18235 -1.6662,0.84738 -0.56692,0.6791 -1.03503,1.11088 -1.04025,0.95951 -0.024,-0.69601 1.96061,-4.83391 3.24241,-6.76039 1.63685,-2.46011 17.63107,-18.50994 17.83528,-17.8973 0.0746,0.22396 -0.76844,2.11548 -1.87354,4.20338 -5.62187,10.6216 -6.56157,12.49236 -7.66603,15.26147 -1.05967,2.65684 -1.58786,4.68198 -2.16222,8.29028 -0.20351,1.27849 0.35067,7.43004 0.88986,9.87778 0.7355,3.33891 2.26859,5.81304 6.50082,10.49115 2.23608,2.47166 4.49591,4.72749 5.02185,5.01296 1.18533,0.64337 2.34674,0.68738 2.80553,0.1063 z m 59.55043,-15.85138 c 0.89229,-0.98766 1.22859,-1.66113 1.15124,-2.30544 -0.17756,-1.47896 -0.96111,-1.70641 -3.619,-1.05051 -3.10841,0.76708 -4.2294,1.33398 -4.35426,2.20203 -0.2112,1.46836 2.65852,3.08951 4.77247,2.69603 0.43397,-0.0808 1.35627,-0.77473 2.04955,-1.54211 z m -16.63286,-62.30989 c 1.97285,-0.97581 4.03282,-2.22003 4.57773,-2.76494 0.85844,-0.85843 0.96138,-1.17434 0.77087,-2.36568 -0.62742,-3.92367 -2.00503,-3.69226 -10.00194,1.68015 -3.35055,2.25093 -3.97338,3.40838 -2.63177,4.89083 0.94574,1.04504 3.13557,0.61208 7.28511,-1.44036 z m -122.39334,-4.21308 c 1.87791,-1.32535 2.26811,-2.04285 1.51858,-2.79238 -0.47622,-0.47622 -0.64537,-0.47573 -1.57406,0.005 -1.08974,0.56353 -3.63332,3.17505 -3.63332,3.73036 0,0.45224 0.77097,0.67102 1.47259,0.41788 0.32485,-0.11721 1.32214,-0.72937 2.21621,-1.36037 z m 45.67277,-0.0816 c 1.63421,-0.18788 4.01546,-0.68123 5.29167,-1.09635 3.42094,-1.11273 11.09497,-4.93692 14.22154,-7.08701 1.50091,-1.03215 5.48475,-3.73719 8.85297,-6.01121 6.96162,-4.70006 8.75546,-6.4121 9.56114,-9.12512 0.93454,-3.14692 0.87379,-3.20345 -2.91248,-2.70963 -1.42083,0.18531 -2.69058,0.22968 -2.82167,0.0986 -0.43574,-0.43574 0.97235,-1.13789 3.20225,-1.59682 2.60196,-0.5355 3.08469,-0.84874 3.08469,-2.00161 0,-2.61649 -2.01515,-2.91948 -6.5274,-0.98143 -1.59457,0.68488 -3.40815,1.3912 -4.03017,1.56959 -1.72269,0.49406 -1.20629,-0.31616 1.05667,-1.65788 3.19351,-1.89345 3.06841,-1.76329 2.28791,-2.38052 -0.82926,-0.65579 -0.52465,-1.00486 1.39215,-1.59535 2.39215,-0.73694 2.99861,-1.28186 2.99861,-2.69432 0,-1.25508 -0.009,-1.2625 -1.32291,-1.09461 -2.40221,0.30693 -6.22017,1.94245 -7.98596,3.42097 -0.94829,0.79401 -1.80496,1.36286 -1.90371,1.26411 -0.0988,-0.0988 0.23436,-0.80502 0.74025,-1.56948 0.81801,-1.23609 3.20003,-3.42382 7.10484,-6.52532 1.69239,-1.34423 1.55658,-2.20819 -0.51306,-3.2639 l -1.5875,-0.80977 1.12356,-0.01 c 0.61796,-0.005 1.57046,0.16248 2.11667,0.37323 0.5462,0.21074 1.9265,0.38537 3.06732,0.38805 1.63231,0.004 2.52369,-0.22692 4.1839,-1.08315 1.16032,-0.59843 3.28286,-1.36099 4.71675,-1.69458 1.43389,-0.3336 2.60708,-0.79351 2.60708,-1.02203 0,-0.47841 -1.76126,-1.88465 -3.44953,-2.75421 -0.63606,-0.32761 -2.18387,-0.6916 -3.43958,-0.80886 -4.93645,-0.46097 -1.58944,-1.16396 5.61543,-1.17944 4.24278,-0.009 4.75628,-0.0819 6.21257,-0.88039 3.66252,-2.00821 6.55317,-3.34301 7.23963,-3.34301 0.83614,0 1.57981,-0.62199 1.57981,-1.32131 0,-0.26106 -0.38966,-0.86431 -0.86591,-1.34056 -1.10429,-1.10429 -3.34142,-1.1525 -7.79501,-0.16798 -5.89217,1.30253 -9.6265,0.8573 -15.55511,-1.85456 -3.64634,-1.6679 -4.96786,-2.10217 -8.36544,-2.74901 -1.56381,-0.29773 -1.96707,-0.4926 -1.65854,-0.8015 0.28485,-0.2852 3.93951,-0.46126 12.13334,-0.58452 l 11.72569,-0.17639 1.35004,-1.11333 c 1.84647,-1.52272 4.09205,-4.29701 4.09205,-5.0555 0,-1.64471 -2.49588,-1.78386 -5.40219,-0.30118 -0.80129,0.40879 -1.91098,0.87349 -2.46598,1.03266 -1.12773,0.32343 -8.71208,-0.24207 -9.15243,-0.68242 -0.15508,-0.15508 1.10658,-0.98469 2.80368,-1.84359 3.7211,-1.88325 4.66707,-2.67739 7.65592,-6.42707 2.36054,-2.96143 3.16071,-3.7105 6.33327,-5.92881 2.28771,-1.59959 3.29789,-3.19766 2.76319,-4.37122 -0.65469,-1.43688 -10.64503,-6.88315 -12.62609,-6.88315 -1.74201,0 -6.07779,2.25 -6.2905,3.26439 -0.0914,0.4359 -0.23835,3.4913 -0.32654,6.78977 -0.17314,6.47624 -0.66948,8.87078 -2.47858,11.95778 -2.66931,4.55484 -10.61691,8.70892 -16.77737,8.76926 -2.29336,0.0225 -3.10715,-0.15437 -5.82822,-1.26644 -1.73947,-0.7109 -3.36322,-1.29254 -3.60834,-1.29254 -0.52318,0 -2.93038,4.96695 -2.93038,6.04646 0,0.71691 1.10271,1.95121 4.08515,4.57265 2.76284,2.42843 3.89582,4.51195 4.16223,7.6543 0.14071,1.65965 -0.28022,1.99833 -0.65043,0.52333 -0.4728,-1.88382 -3.43389,-5.03841 -4.72936,-5.03841 -0.15969,0 -0.4644,1.89298 -0.67713,4.20662 -0.46462,5.05322 -0.0836,9.68544 1.17741,14.31422 0.9396,3.44897 1.09406,5.7827 0.46266,6.99055 -0.22154,0.42381 -1.41493,1.93323 -2.65199,3.35427 -1.23706,1.42105 -2.48146,3.08792 -2.76534,3.70417 -0.28388,0.61625 -1.07694,1.89488 -1.76236,2.84139 -1.45401,2.00789 -1.813,3.15067 -1.37582,4.37977 0.46758,1.31457 2.48302,1.86655 7.64389,2.09349 4.35634,0.19156 4.48674,0.21989 3.91586,0.8507 -0.75683,0.83629 -2.64758,1.35759 -4.93304,1.36008 -1.51802,0.002 -2.0431,0.19241 -3.3276,1.20888 -1.46645,1.16044 -2.03572,1.37021 -6.33524,2.33442 -1.06715,0.23932 -3.42824,0.8898 -5.24686,1.44551 -4.77648,1.45953 -8.41882,1.26815 -3.97236,-0.20873 2.8978,-0.96249 4.94725,-2.48441 5.73075,-4.25563 0.38459,-0.86945 0.92444,-1.58081 1.19965,-1.58081 0.88423,0 2.99438,-2.13251 2.99438,-3.0261 0,-1.05952 -1.17924,-1.69114 -4.61729,-2.47311 -3.75678,-0.85446 -8.65586,-3.58337 -11.59151,-6.45677 -3.86496,-3.783 -4.95787,-5.33871 -4.95787,-7.0573 0,-1.18114 -0.28744,-1.85882 -1.43067,-3.37301 -1.62077,-2.1467 -2.07981,-2.40956 -3.68271,-2.10885 -1.43331,0.26889 -1.41992,0.30318 -2.32264,-5.95078 -0.75621,-5.23897 -1.34856,-6.94853 -2.40762,-6.94853 -0.91687,0 -1.4254,0.73588 -1.74149,2.52002 -0.25702,1.45073 -0.28616,1.36875 -0.51959,-1.46169 -0.3632,-4.40384 -0.44114,-4.58623 -1.95935,-4.58544 -0.91403,4.9e-4 -2.13778,0.51552 -4.26544,1.79516 -10.65711,6.40956 -22.23245,5.31064 -29.94498,-2.84284 -2.02156,-2.13715 -3.27873,-4.21488 -4.243744,-7.01369 l -0.930609,-2.69902 -1.53523,-0.11031 c -2.088071,-0.15003 -3.80659,1.02093 -5.136264,3.49972 -0.561222,1.04624 -1.539127,2.34039 -2.173122,2.87589 -0.633995,0.5355 -2.021102,2.20238 -3.082459,3.70417 -1.061358,1.50179 -2.660971,3.43827 -3.554695,4.30329 -1.970224,1.90693 -2.125345,2.66415 -0.478424,2.3354 3.837431,-0.76602 9.591617,-0.50409 15.610418,0.71059 3.088749,0.62335 5.322839,1.55834 4.687209,1.96163 -0.24963,0.15839 -4.200468,0.29041 -8.779637,0.29338 l -8.325761,0.005 -1.813771,1.98026 c -1.846569,2.01608 -2.759041,4.13488 -2.343943,5.44273 0.220993,0.69629 2.644175,3.95348 3.667824,4.93021 1.249396,1.19214 4.613534,3.16902 5.39284,3.16902 0.947045,0 1.961361,-0.6254 3.992802,-2.46185 0.779049,-0.70427 3.557175,-2.68439 6.173616,-4.40027 2.61643,-1.71588 4.83653,-3.22555 4.93354,-3.35484 0.60964,-0.81243 5.12791,-4.20905 5.2223,-3.92588 0.17308,0.51925 -1.98189,3.7318 -4.63303,6.90676 -3.32345,3.9801 -3.04525,4.92535 0.99823,3.39169 0.97014,-0.36796 3.14643,-0.83758 4.83621,-1.04359 1.68977,-0.20601 3.67415,-0.6816 4.40972,-1.05686 1.132,-0.57751 8.74052,-6.39512 9.27491,-7.09177 0.44072,-0.57453 4.65759,-3.89673 4.94613,-3.89673 0.63401,0 -0.84968,2.84096 -2.67145,5.11528 -3.755,4.68779 -9.1276,8.79071 -15.44281,11.79328 -1.33721,0.63577 -3.44387,2.08345 -4.73647,3.25486 -2.72734,2.47163 -7.707849,5.04415 -12.747328,6.58424 l -3.311646,1.01205 4.802903,0.20137 c 4.171841,0.17492 5.047311,0.31906 6.663031,1.09704 2.90723,1.39983 5.29038,2.2548 6.99946,2.51109 1.34386,0.20153 1.96394,0.0535 4.30474,-1.02775 2.90628,-1.34244 6.8847,-2.81261 12.08476,-4.46576 3.10929,-0.98848 3.20895,-1.05443 4.22681,-2.79724 0.57333,-0.98168 1.40255,-2.02085 1.8427,-2.30925 0.74249,-0.48649 0.80028,-0.47192 0.80028,0.20174 0,0.39936 -0.25552,1.11607 -0.56782,1.5927 -0.54168,0.82671 -0.53032,0.88048 0.24673,1.16793 0.50001,0.18496 1.77503,0.11814 3.30185,-0.17305 2.87392,-0.54809 4.78035,-0.61197 4.78035,-0.16016 0,0.38901 -0.87574,0.7433 -1.83726,0.7433 -0.39668,0 -2.11686,0.32766 -3.82262,0.72812 -3.17584,0.7456 -4.01881,1.38604 -3.07139,2.33347 0.38731,0.38731 0.70104,0.34748 1.84098,-0.23369 0.75576,-0.38531 1.45108,-0.62359 1.54516,-0.52951 0.0941,0.0941 0.10491,0.21735 0.0241,0.27393 -0.0808,0.0566 -0.82168,0.53508 -1.6463,1.06333 -1.62883,1.04345 -1.77375,1.34186 -0.974,2.00559 0.76824,0.63759 2.56153,0.18751 4.92609,-1.23636 2.37346,-1.42922 2.51698,-1.45539 3.00286,-0.54751 0.6039,1.1284 0.44275,1.5504 -1.42921,3.74262 -2.10271,2.46246 -2.63141,3.56108 -2.05054,4.26098 0.22195,0.26744 0.53344,0.48626 0.69218,0.48626 0.15875,0 1.48712,-1.11125 2.95193,-2.46945 1.46482,-1.35819 2.74424,-2.46944 2.84318,-2.46944 0.59525,0 -0.0662,1.16933 -1.7604,3.11189 -1.06716,1.22362 -1.94028,2.37139 -1.94028,2.55062 0,0.75282 8.84745,5.38551 15.16944,7.94299 3.10031,1.25419 3.69498,1.37224 7.9375,1.57576 2.52237,0.121 4.66549,0.24601 4.7625,0.2778 0.097,0.0318 1.51347,-0.0959 3.14768,-0.28379 z m 61.3089,-5.33396 c 7.73088,-2.59496 8.85224,-3.09948 8.42512,-3.79057 -0.58671,-0.94931 -6.55882,-0.0825 -9.39279,1.36326 -0.77001,0.39282 -1.40001,0.62353 -1.40001,0.51268 0,-0.11085 0.59531,-0.75925 1.32292,-1.4409 3.9377,-3.68899 10.21687,-7.09427 13.70923,-7.43471 1.91214,-0.18639 3.3123,-0.85038 3.3123,-1.57077 0,-0.16152 -0.635,-0.69453 -1.41112,-1.18447 -0.77611,-0.48994 -1.40781,-1.08724 -1.40378,-1.32734 0.004,-0.2401 0.91684,-1.01893 2.02847,-1.73072 3.12791,-2.00284 5.01976,-3.76574 5.01976,-4.67761 0,-0.44084 -0.45707,-1.42066 -1.01572,-2.17737 -2.91302,-3.94584 -7.22946,-6.4425 -12.38027,-7.16085 l -1.94985,-0.27194 1.69268,-0.75863 c 2.00873,-0.90029 5.43846,-1.82749 6.75991,-1.82749 1.10996,0 2.30714,-0.57371 2.30714,-1.10562 0,-0.20639 -0.25554,-0.91374 -0.56786,-1.57191 -0.93945,-1.97975 -3.2805,-2.23583 -7.89648,-0.86378 -1.6848,0.50079 -1.70463,0.49425 -1.83098,-0.60383 -0.13715,-1.19193 -0.36664,-1.17298 -3.99218,0.32964 -3.68624,1.52776 -3.84373,1.63477 -3.32533,2.25941 0.22721,0.27377 0.60719,0.49776 0.8444,0.49776 0.23721,0 0.71863,0.3175 1.06982,0.70556 0.78824,0.871 0.56992,0.87313 -2.96477,0.0289 -2.50885,-0.59922 -3.03643,-0.62301 -4.61015,-0.20787 -2.22511,0.58697 -3.78717,1.49032 -4.70395,2.72032 -1.02177,1.37085 -0.40425,1.9131 2.49926,2.19464 5.34933,0.51869 7.90897,1.06787 12.77822,2.74158 2.8134,0.96705 6.58179,2.16658 8.37419,2.66562 2.49644,0.69505 3.17382,1.00987 2.89523,1.34556 -0.20003,0.24102 -0.26053,0.84926 -0.13444,1.35164 l 0.22926,0.91343 -1.23655,-0.51666 c -1.17554,-0.49117 -1.33841,-0.46553 -3.30087,0.51966 -2.81099,1.41116 -5.25416,3.51074 -7.33608,6.3044 -0.95919,1.2871 -2.37452,2.8958 -3.14518,3.5749 -9.94812,8.76612 -11.32168,10.14253 -10.77679,10.79908 0.22358,0.2694 0.60059,0.48981 0.8378,0.48981 0.23721,0 0.71863,0.3175 1.06981,0.70555 0.35119,0.38806 0.97111,0.70688 1.3776,0.70848 0.40649,0.002 4.1064,-1.12736 8.22203,-2.50883 z m -94.21262,-9.61124 c 2.94706,-2.94706 2.42644,-3.486 -1.51232,-1.56553 -2.60439,1.26985 -2.96625,1.75527 -2.05725,2.75971 0.9503,1.05006 1.51387,0.86152 3.56957,-1.19418 z m -11.19739,-0.5116 c 0.66194,-0.33023 1.52295,-1.03239 1.91336,-1.56036 0.60584,-0.81932 0.64778,-1.09614 0.28627,-1.88956 -0.38281,-0.84018 -0.54991,-0.90593 -1.73696,-0.68343 -1.63682,0.30681 -6.27724,1.85122 -7.57521,2.52116 -2.20337,1.13724 -0.6378,2.19545 3.26319,2.20567 1.7966,0.005 3.03213,-0.18578 3.84935,-0.59348 z m 93.20043,-5.09833 c 3.51795,-1.83605 3.57821,-1.85262 6.95987,-1.91297 1.87616,-0.0335 3.66718,-0.0732 3.98005,-0.0882 0.31287,-0.015 1.18599,-0.52602 1.94028,-1.13554 0.75428,-0.60952 2.68111,-1.71944 4.28184,-2.46649 1.60073,-0.74705 2.91042,-1.51427 2.91042,-1.70494 0,-0.86728 -4.14111,-2.23206 -12.9221,-4.25871 -5.26784,-1.21581 -7.69743,-1.39053 -8.47827,-0.60969 -0.28929,0.28929 -0.61262,1.17198 -0.71852,1.96153 -0.21363,1.59268 -0.47508,1.44709 3.55357,1.97877 1.54866,0.20438 1.80082,0.35749 1.4701,0.89262 -0.1279,0.20693 -1.13598,0.37973 -2.24019,0.38399 -3.20132,0.0124 -4.69492,0.89052 -6.01802,3.53828 -0.6077,1.21611 -1.10491,2.70963 -1.10491,3.31893 0,2.53488 1.67373,2.56172 6.38588,0.10241 z m -131.543215,0.28046 c 2.955739,-0.89693 6.290372,-2.78392 8.958253,-5.06926 4.128582,-3.5366 3.313572,-3.74599 -2.927502,-0.75214 -1.975518,0.94766 -3.999581,1.82536 -4.497918,1.95043 -1.988172,0.499 -3.559958,-0.57951 -5.679824,-3.89733 -0.74077,-1.15938 -1.411553,-1.91387 -1.490628,-1.67665 -0.223893,0.67168 2.392741,8.47769 3.19026,9.51726 0.418122,0.54503 0.412448,0.5452 2.447359,-0.0723 z m 85.585235,-1.17189 c 1.40292,-1.64165 4.6475,-7.42626 4.63935,-8.27128 -0.0114,-1.18002 -1.27958,-3.77652 -1.97486,-4.04333 -0.88333,-0.33896 -6.55027,1.03971 -10.38155,2.52565 -1.83395,0.71129 -4.24688,1.50045 -5.36207,1.75368 -2.26707,0.51479 -3.08766,1.03866 -3.08766,1.97118 0,0.8195 1.71384,2.24678 3.80806,3.17134 0.913,0.40307 2.66515,1.38697 3.89368,2.18645 3.44809,2.24387 6.90461,2.53228 8.46505,0.70631 z m -94.61837,-6.29203 c 0.281504,-1.1216 -0.397153,-7.92333 -0.971452,-9.73622 -0.647697,-2.0446 -2.317629,-3.86672 -3.425072,-3.73724 -1.365075,0.15962 -1.864754,1.42988 -1.737807,4.41778 0.0595,1.40045 0.0079,2.43233 -0.114582,2.29306 -0.357099,-0.40593 -3.980663,-5.73616 -4.458903,-6.55901 -0.844653,-1.45329 -0.535856,-2.53294 1.239208,-4.33266 2.369331,-2.40223 3.79609,-3.59362 6.401432,-5.3454 3.110551,-2.09148 3.731464,-2.60698 4.204386,-3.49065 0.785134,-1.46703 0.625762,-1.51579 -4.95446,-1.51579 h -5.363263 l 1.306318,-1.33779 c 1.360746,-1.39353 1.702095,-2.54277 0.75526,-2.54277 -0.303083,0 -2.049165,0.34413 -3.880183,0.76473 -1.831018,0.4206 -3.420373,0.67348 -3.531899,0.56195 -0.111526,-0.11153 0.06251,-0.71578 0.386751,-1.34279 0.458399,-0.88645 0.5051,-1.32531 0.209964,-1.97306 -0.500524,-1.09854 -1.606831,-1.06855 -3.118586,0.0845 -0.661649,0.50467 -1.268013,0.85256 -1.347476,0.77309 -0.07946,-0.0795 -0.250088,-1.28079 -0.379166,-2.66961 -0.381607,-4.10595 -2.085177,-5.99581 -3.136544,-3.47953 -0.634441,1.51843 -1.933506,10.32732 -1.936004,13.12794 -0.0031,3.44959 3.117023,11.31799 5.701667,14.3787 0.829482,0.98226 1.030236,1.06457 1.662964,0.68182 0.640833,-0.38765 1.020377,-0.19462 3.467501,1.76352 1.511346,1.20935 3.319638,2.75461 4.018427,3.43391 5.719665,5.56016 7.065219,6.70315 7.891111,6.70315 0.653581,0 0.938428,-0.23643 1.110408,-0.92165 z m 77.61509,-4.55929 c 1.13916,-0.68618 2.98003,-1.57913 4.09082,-1.98432 1.52257,-0.5554 2.1925,-1.02974 2.72213,-1.92739 0.77033,-1.30562 1.56496,-1.49885 2.53893,-0.61742 0.83569,0.75629 1.86996,0.72307 4.58378,-0.14721 1.23566,-0.39626 3.18571,-0.89182 4.33344,-1.10123 2.79153,-0.50935 4.58775,-1.41929 4.72647,-2.39436 0.0608,-0.42706 -0.87709,-2.84943 -2.0841,-5.38304 -2.07405,-4.3536 -2.52649,-6.29968 -0.96681,-4.15859 0.38843,0.53323 0.92474,0.9695 1.1918,0.9695 0.69675,0 1.92503,-4.25901 1.92503,-6.67498 0,-1.97166 -0.0291,-2.03088 -1.36527,-2.78187 -2.29459,-1.28963 -2.29328,-1.28517 -2.39369,-8.12599 -0.0573,-3.90137 -0.36216,-8.14146 -0.81581,-11.34494 -2.86301,-20.21767 -2.61812,-17.14128 -2.6678,-33.51389 -0.0294,-9.68042 -0.18277,-15.48011 -0.4329,-16.36758 -0.8115,-2.87929 -2.17254,-2.20409 -2.54431,1.2622 -0.27433,2.5578 -0.30001,2.5174 -1.76906,-2.78208 -2.66919,-9.62891 -5.58599,-15.85974 -9.20462,-19.66282 -1.06346,-1.11767 -1.44818,-1.33254 -1.78422,-0.99649 -0.33605,0.33604 0.004,1.33228 1.57703,4.62028 3.74373,7.82527 3.83121,8.20496 4.11838,17.8751 0.22573,7.60137 0.33193,8.66496 1.03906,10.40694 1.34681,3.31777 1.78969,6.4843 1.34674,9.62888 -0.31844,2.26063 -0.2779,3.53658 0.22789,7.17367 0.33837,2.43318 0.52351,4.51567 0.41142,4.62776 -0.11209,0.11208 -1.19664,-0.74687 -2.41013,-1.90878 -2.8618,-2.7402 -3.93405,-3.42358 -4.9655,-3.16471 -1.10038,0.27618 -1.63344,1.5667 -2.00965,4.86529 -0.32701,2.86717 -0.83792,5.08112 -1.35889,5.88848 -0.34233,0.53054 -0.56752,-0.4403 -0.92867,-4.00364 -0.48585,-4.79376 -1.14573,-6.63608 -3.3946,-9.47747 -0.74714,-0.944 -1.27164,-1.85682 -1.16555,-2.02848 0.33182,-0.53689 1.84901,-0.34203 3.05315,0.39213 2.41326,1.47137 3.21766,0.26141 1.50451,-2.26306 -1.75741,-2.58969 -2.34941,-4.15527 -2.54396,-6.72761 -0.23205,-3.06826 0.25065,-3.67285 1.29617,-1.62347 1.44755,2.83744 5.86248,6.43357 7.24642,5.9025 1.32763,-0.50945 -0.27471,-5.07888 -3.79044,-10.80927 -1.91547,-3.1221 -3.79425,-7.87683 -3.30553,-8.36554 0.11779,-0.11779 0.82892,-0.03 1.58029,0.19513 2.90604,0.87068 3.03291,0.54311 1.60398,-4.1416 -1.59119,-5.2167 -5.88694,-15.14102 -6.79736,-15.70369 -0.66846,-0.41313 -1.13285,0.79864 -0.95505,2.4921 0.0988,0.94111 0.35079,3.69548 0.55994,6.12082 0.35373,4.1017 0.78271,7.51068 1.2652,10.05417 0.18922,0.99747 0.1714,1.01776 -0.30981,0.35278 -0.28081,-0.38806 -1.23483,-2.37243 -2.12005,-4.40972 -0.88521,-2.03729 -2.05321,-4.49792 -2.59556,-5.46806 -1.7168,-3.07101 -5.7579,-8.99583 -6.13572,-8.99583 -0.87295,0 -0.56697,1.23124 1.62342,6.53246 1.28133,3.1011 2.88212,6.98775 3.55729,8.63698 1.83527,4.48294 2.58017,8.24891 2.82818,14.29829 0.19994,4.87707 -0.0444,9.64708 -0.47221,9.21924 -0.0979,-0.0979 -0.32982,-1.42094 -0.51539,-2.94011 -0.35837,-2.93371 -2.39878,-10.31772 -3.43539,-12.4323 -0.34133,-0.69627 -1.36568,-2.54074 -2.27632,-4.09882 -0.99912,-1.70944 -2.3591,-4.92717 -3.42937,-8.11389 -2.32213,-6.91411 -2.66765,-7.7136 -4.41687,-10.21991 -1.52769,-2.1889 -4.78458,-5.46805 -5.43093,-5.46805 -0.65751,0 -0.39029,1.38686 0.67312,3.49346 0.57255,1.13422 2.1378,5.30143 3.47833,9.26045 1.34053,3.95903 2.70734,7.72039 3.03736,8.35858 0.33002,0.63818 0.54241,1.33323 0.47197,1.54454 -0.18589,0.55768 -4.5576,-5.43895 -8.32712,-11.42225 -3.79966,-6.03113 -5.3178,-7.85332 -8.33919,-10.00934 -3.34221,-2.38495 -10.09353,-6.16433 -11.01168,-6.16433 -0.8022,0 -1.13409,0.8175 -0.49279,1.21385 0.17545,0.10843 1.47455,2.14186 2.88689,4.51873 1.41234,2.37687 3.73717,6.03725 5.16629,8.13418 2.76425,4.05597 6.60306,11.23389 6.37458,11.91935 -0.0757,0.22704 -1.23671,-0.55488 -2.59125,-1.74514 -2.3119,-2.03151 -3.68885,-2.68801 -3.68885,-1.75877 0,0.69984 3.29194,5.92601 4.86126,7.71759 1.02978,1.17562 3.40699,4.56681 4.93632,7.04188 3.48721,5.64367 8.44779,11.28889 9.91981,11.28889 1.77391,0 2.35312,-1.80556 2.69722,-8.40804 0.13484,-2.58713 0.35611,-4.5715 0.49172,-4.40972 0.2152,0.25674 1.70663,4.79916 2.33077,7.0988 0.12052,0.44409 0.33463,3.38097 0.47579,6.52639 0.21204,4.72475 0.38614,5.99482 1.00146,7.30582 0.40964,0.87277 0.67599,1.65567 0.59189,1.73978 -0.0841,0.0841 -0.69966,-0.37702 -1.3679,-1.0247 -1.71593,-1.66315 -2.15345,-1.16581 -2.39977,2.72785 -0.18238,2.88284 -1.0193,6.21198 -1.66143,6.60883 -0.155,0.0958 -0.62796,-1.13433 -1.05102,-2.73361 -1.18222,-4.46905 -2.8105,-8.70693 -4.159,-10.82449 -2.35734,-3.70177 -7.00935,-8.88352 -8.86871,-9.87862 -1.41581,-0.75772 -1.1933,0.49779 0.98843,5.5772 2.14491,4.9937 5.21453,12.80936 6.02843,15.34921 0.24097,0.75196 1.59243,3.60946 3.00325,6.35 1.41082,2.74054 3.14378,6.49092 3.85103,8.33419 0.70725,1.84326 1.51311,3.82764 1.79081,4.40972 0.27769,0.58208 0.81072,1.85208 1.18449,2.82222 0.86853,2.25431 2.37561,5.70306 3.06799,7.02072 0.2958,0.56292 1.10355,2.5473 1.795,4.40972 0.69146,1.86243 1.8633,4.49748 2.60411,5.85567 0.91752,1.68218 1.52503,3.42541 1.90561,5.46806 0.30728,1.64924 0.73108,3.42377 0.94176,3.9434 0.84044,2.07288 2.01516,1.26105 2.81436,-1.94497 0.44147,-1.77092 1.20945,-2.45942 1.7946,-1.60886 0.20423,0.29686 0.27957,3.95948 0.18973,9.22363 -0.082,4.80218 -0.0315,8.73125 0.11209,8.73125 0.1436,0 1.19314,-0.56143 2.33231,-1.24761 z m 57.70454,-9.73197 c 3.14929,-0.66751 6.23221,-2.68492 6.26803,-4.10168 0.0373,-1.47546 -10.42402,1.03161 -11.9433,2.86222 -1.22859,1.48036 1.61191,2.10072 5.67527,1.23946 z m 14.39306,-0.68363 c 0.87313,-0.35771 3.25916,-1.15049 5.30229,-1.76174 6.4982,-1.94406 6.55767,-2.91498 0.16577,-2.70617 -3.84343,0.12556 -3.90587,0.14144 -6.52639,1.66014 -3.06902,1.77861 -3.88056,2.41321 -3.88056,3.03451 0,0.99332 2.20833,0.89194 4.93889,-0.22674 z M 125.0629,264.51248 c 1.46533,-0.75727 7.91551,-5.31565 10.11816,-7.15057 0.55237,-0.46015 0.50036,-0.68714 -0.70556,-3.07896 -0.71604,-1.42021 -1.65066,-3.3787 -2.07693,-4.35221 -1.06094,-2.42297 -3.44317,-4.99552 -4.11197,-4.44047 -0.41709,0.34616 -0.35166,0.74986 0.42261,2.60756 1.29003,3.09516 1.24522,6.33649 -0.12767,9.23582 -2.5537,5.393 -7.98705,7.87809 -12.57465,5.75136 -3.91397,-1.81445 -7.15368,-6.43261 -7.11572,-10.14334 0.0223,-2.1772 1.26075,-5.58383 2.73057,-7.51086 1.10073,-1.44312 1.1566,-2.01414 0.19708,-2.01414 -1.38643,0 -6.9111,3.19042 -9.15599,5.28746 -1.05174,0.98247 -1.0547,0.99611 -0.50886,2.34829 3.02887,7.50329 6.9287,11.95617 12.16772,13.89326 2.86542,1.05947 8.27503,0.84129 10.74121,-0.4332 z m 129.83789,-0.66518 c 0.13028,-0.2108 -0.27792,-0.91439 -0.9071,-1.56355 -0.62919,-0.64915 -1.7186,-1.9772 -2.42091,-2.95121 -0.70232,-0.97402 -2.05359,-2.65554 -3.00283,-3.73673 -0.94924,-1.08118 -1.62805,-2.06363 -1.50847,-2.18321 0.11959,-0.11958 1.55344,0.46963 3.18635,1.30935 2.90736,1.49513 2.988,1.51427 3.88971,0.92345 1.34187,-0.87923 1.17833,-1.85246 -0.45095,-2.68366 -3.22766,-1.64663 -9.43474,-7.41421 -10.96646,-10.18996 -0.79504,-1.44077 -0.70769,-6.93804 0.13524,-8.51009 0.66431,-1.23894 1.40701,-2.13391 1.77083,-2.13391 0.11087,0 0.20159,0.8564 0.20159,1.90311 0,3.61843 2.45478,9.38578 3.9949,9.38578 0.73174,0 0.74038,0.41505 -0.13584,-6.52639 -0.28088,-2.22524 -0.33681,-4.17905 -0.15145,-5.29167 l 0.29385,-1.76389 0.32084,1.5875 c 0.50761,2.51168 1.68202,5.65754 2.76112,7.39616 1.42114,2.2897 5.83034,7.06496 7.97834,8.6407 1.00792,0.7394 1.91575,1.56109 2.0174,1.82598 0.265,0.69058 2.19759,0.61331 2.47085,-0.0988 0.13591,-0.35416 -0.38811,-1.65853 -1.34432,-3.34628 -0.86188,-1.52123 -1.7609,-3.36348 -1.99784,-4.0939 -0.53613,-1.65277 -1.20742,-2.63734 -4.47876,-6.56894 -1.42977,-1.71833 -2.52904,-3.19479 -2.44282,-3.28101 0.20588,-0.20587 5.44607,2.9178 8.33332,4.96749 1.25056,0.88778 2.47529,1.61416 2.72161,1.61416 0.68847,0 1.14034,-1.12452 1.5125,-3.76405 0.29797,-2.11327 0.23671,-2.77379 -0.49819,-5.37153 -0.46086,-1.62908 -1.16814,-3.41502 -1.57172,-3.96875 -0.40359,-0.55373 -1.0797,-1.48108 -1.50248,-2.06078 -0.42278,-0.5797 -0.69614,-1.12655 -0.60746,-1.21523 0.0887,-0.0887 0.77149,-0.0236 1.51735,0.14462 2.21547,0.49967 5.08256,3.71295 6.37671,7.14668 0.65712,1.74349 1.43189,2.66809 1.86909,2.23053 0.4767,-0.47712 0.0993,-4.24079 -0.66665,-6.64845 -0.89885,-2.82537 -2.4399,-4.5654 -5.07452,-5.72974 -4.40842,-1.94827 -12.09046,-2.79966 -16.00222,-1.7735 -1.23414,0.32374 -2.32475,0.50776 -2.4236,0.40892 -0.45749,-0.4575 0.3992,-2.78178 1.42699,-3.87156 1.61997,-1.71767 3.38005,-2.10149 8.2433,-1.79762 3.6083,0.22546 3.99303,0.1922 3.99303,-0.34516 0,-0.32706 -0.13675,-0.86203 -0.3039,-1.18883 -0.16714,-0.32679 -0.40223,-1.34823 -0.52241,-2.26986 -0.27118,-2.07951 0.27724,-2.21798 1.5257,-0.38522 0.89222,1.3098 4.9126,4.51633 6.95601,5.5479 1.50018,0.75733 2.92794,0.74985 2.92794,-0.0153 0,-0.65833 -1.91338,-3.21676 -4.5751,-6.11747 l -1.78041,-1.94028 0.97289,-0.11941 c 2.14962,-0.26384 2.44263,-1.81225 0.80892,-4.27484 -0.57359,-0.86461 -0.96741,-1.64751 -0.87515,-1.73977 0.24845,-0.24845 2.56474,2.07863 3.38423,3.39999 0.79872,1.2879 1.71184,1.51686 1.71184,0.42925 0,-0.96769 -1.47657,-3.81539 -2.61116,-5.03586 -0.50652,-0.54486 -1.83278,-1.41228 -2.94725,-1.92761 -1.81173,-0.83775 -2.53998,-0.95189 -6.87701,-1.07786 -2.66788,-0.0775 -4.85069,-0.2127 -4.85069,-0.30045 0,-0.5068 0.93924,-1.83013 1.89233,-2.66616 1.06191,-0.93148 3.72333,-2.01157 8.16183,-3.31235 1.33972,-0.39262 2.53752,-1.03569 3.2632,-1.75193 1.07341,-1.05944 1.14653,-1.28685 1.14653,-3.56578 0,-1.42287 -0.17588,-2.61004 -0.42334,-2.8575 -0.79871,-0.79871 -2.56691,-0.47598 -4.19307,0.76534 -0.85646,0.65377 -2.31127,1.62136 -3.2329,2.15019 -2.3934,1.37334 -2.20803,0.51825 0.66451,-3.06527 1.28712,-1.60568 2.4955,-3.11584 2.6853,-3.3559 0.18981,-0.24007 0.25109,-0.68145 0.1362,-0.98086 -0.1832,-0.4774 -0.37253,-0.45946 -1.53877,0.14584 -3.41782,1.7739 -12.67836,10.3376 -15.2022,14.05826 -6.93986,10.23077 -12.21916,30.91787 -11.54647,45.24518 0.42163,8.98023 1.14191,14.77894 2.32124,18.68756 1.72618,5.72101 3.34936,7.40983 3.33447,3.46929 -0.004,-1.09474 0.11493,-1.91476 0.26459,-1.82226 0.14965,0.0925 0.2721,0.4763 0.2721,0.8529 0,1.26756 2.65548,3.40136 6.75045,5.42428 4.02144,1.98661 5.01037,2.27387 5.43922,1.57998 z M 52.170461,261.49653 c 0.210381,-0.92163 0.556362,-3.73945 0.768847,-6.26181 0.212486,-2.52236 0.54499,-5.22111 0.738898,-5.99722 0.193908,-0.77611 0.408999,-2.52236 0.47798,-3.88056 0.135384,-2.66563 0.672607,-7.12808 1.287819,-10.69728 0.453954,-2.63364 0.827927,-2.48124 1.554551,0.63352 0.643587,2.75881 1.154517,3.49205 5.797137,8.31958 2.06298,2.14514 4.136956,4.59962 4.608836,5.4544 1.338239,2.42413 2.493318,2.999 7.089626,3.52842 5.888927,0.6783 6.486854,0.6289 9.46695,-0.78214 4.035383,-1.91071 7.747626,-3.38084 9.70139,-3.84195 2.041244,-0.48177 2.79763,-0.89675 8.290275,-4.54835 4.7667,-3.16897 6.58664,-4.05852 10.18766,-4.97951 4.96772,-1.27052 13.23247,-0.83872 17.41721,0.90999 0.85918,0.35903 0.78447,-0.21675 -0.30781,-2.37226 -1.21566,-2.39897 -3.21211,-5.07374 -4.97473,-6.66495 -2.01214,-1.81646 -7.61119,-5.49652 -9.90842,-6.51246 -2.25733,-0.9983 -8.85801,-3.06854 -11.79655,-3.69986 -2.03806,-0.43787 -2.48132,-0.77983 -1.4993,-1.15667 0.77542,-0.29755 0.64553,-0.81757 -0.26458,-1.05925 -1.224987,-0.32529 -13.849567,0.42736 -17.055229,1.0168 -10.27025,1.88844 -21.730923,6.31904 -25.125009,9.71313 -1.620324,1.62032 -2.387024,1.6848 -1.136972,0.0956 l 0.772263,-0.98177 -2.963187,-0.58323 c -3.912662,-0.77011 -6.969779,-2.35938 -9.437628,-4.90625 -1.458152,-1.50484 -4.256479,-6.59628 -5.471777,-9.95566 -0.473243,-1.30817 -1.195782,-3.0358 -1.605641,-3.83919 -0.477314,-0.93562 -0.85626,-2.61693 -1.054149,-4.67708 -0.19401,-2.01977 -0.695371,-4.26986 -1.347625,-6.04809 -2.652317,-7.23097 -2.076773,-9.64296 2.600638,-10.89878 0.388056,-0.10418 3.04048,-0.43332 5.894276,-0.7314 2.853796,-0.29809 5.433484,-0.6359 5.73264,-0.7507 1.655552,-0.63529 -0.530408,-1.80136 -4.57136,-2.43852 -1.66434,-0.26242 -5.62413,-1.48206 -6.879167,-2.11881 -1.578871,-0.80106 -2.405912,-1.75372 -3.836615,-4.41938 -2.594193,-4.83346 -3.358632,-8.0129 -3.789883,-15.76277 l -0.240476,-4.32153 h 1.08277 c 2.892141,0 15.566664,3.01255 22.482817,5.34385 5.83104,1.96552 12.276923,5.99417 15.289,9.55556 2.116644,2.50266 2.423059,-0.1433 0.365896,-3.1596 -2.10755,-3.09017 -7.666779,-8.29364 -10.744186,-10.05661 -8.009263,-4.58832 -11.504359,-5.72802 -28.929895,-9.43364 -3.669867,-0.78042 -6.875773,-1.41958 -7.124235,-1.42036 -0.517036,-0.002 -2.487352,2.12198 -3.207994,3.45758 -0.897519,1.66342 -0.203376,4.67821 3.839067,16.67376 2.132692,6.32856 3.877964,12.04733 3.878381,12.70838 4.18e-4,0.66105 0.38859,3.50379 0.862605,6.31719 0.474015,2.8134 1.038985,6.54403 1.25549,8.29028 0.476367,3.84221 1.049636,5.41901 4.617267,12.7 1.521154,3.10445 3.249373,6.9846 3.840487,8.62258 1.824128,5.05464 4.145864,8.83447 8.049969,13.1055 l 1.803066,1.97253 -1.353768,2.78997 c -0.744573,1.53449 -1.687508,3.77562 -2.095411,4.98029 -0.712325,2.10373 -0.720495,2.31158 -0.20668,5.25802 1.171626,6.7186 3.097554,14.2527 4.476229,17.5107 0.550489,1.30088 0.888778,1.67569 1.512412,1.67569 0.669471,0 0.867048,-0.27919 1.185825,-1.67569 z m 66.713229,-8.25608 c 2.29307,-1.69534 2.28902,-5.07017 -0.009,-7.14591 -1.20896,-1.09222 -1.64133,-1.26676 -3.13796,-1.26676 -2.15417,0 -3.5854,1.0756 -4.45254,3.3462 -0.99812,2.61352 -0.13984,4.76951 2.31,5.80275 1.32145,0.55734 4.05385,0.17696 5.28907,-0.73628 z m 76.85499,-7.54072 c 3.7382,-0.39599 10.0399,-5.38366 12.10693,-9.58239 0.75099,-1.52547 1.18588,-2.99527 1.28283,-4.33559 0.28902,-3.99567 -2.0026,-9.1972 -4.76946,-10.82573 -1.42794,-0.84046 -1.68898,-0.87061 -6.5862,-0.76072 -2.80463,0.0629 -5.2141,0.22965 -5.35438,0.37048 -0.51141,0.51343 0.64911,1.30267 2.25559,1.53397 2.41143,0.34719 3.72757,0.98358 5.17515,2.50232 2.37904,2.49597 3.11355,4.14071 3.28194,7.34905 0.22927,4.36817 -0.46688,6.34621 -3.20704,9.1124 -2.40748,2.43036 -3.82803,3.0587 -6.91507,3.0587 -2.42958,0 -5.93251,-1.58285 -7.30843,-3.30242 -0.56175,-0.70206 -1.43993,-2.42903 -1.95151,-3.83772 -0.95848,-2.63926 -1.8094,-3.39982 -2.19395,-1.96097 -0.35786,1.33897 -0.69736,8.23303 -0.45331,9.20537 0.48793,1.94406 0.80009,2.02285 7.21548,1.82101 3.23781,-0.10186 6.57745,-0.25835 7.42143,-0.34776 z m -4.17675,-9.77959 c 1.89091,-1.28695 2.64224,-2.56522 2.64224,-4.49537 0,-1.87658 -0.83716,-3.11541 -2.79249,-4.1323 -1.28942,-0.67059 -3.66614,-0.44538 -4.91508,0.46572 -1.89784,1.38448 -2.69918,4.82802 -1.53647,6.60255 0.66305,1.01193 3.23693,2.35248 4.51757,2.35287 0.50488,1.5e-4 1.44278,-0.35691 2.08423,-0.79347 z M 43.008001,229.96137 c 0.500891,-0.89652 0.465457,-0.98975 -0.938603,-2.46945 -3.263219,-3.43902 -5.589505,-7.70083 -8.541848,-15.64887 -1.009018,-2.71639 -2.351655,-5.97076 -2.983638,-7.23194 -0.631982,-1.26118 -1.523642,-3.32493 -1.981465,-4.58611 -0.457823,-1.26118 -1.42573,-3.41893 -2.150904,-4.795 -1.463037,-2.7762 -3.474466,-8.33332 -3.478439,-9.61012 -0.0014,-0.45274 -0.310162,-2.04024 -0.68612,-3.52777 -1.811952,-7.16928 -6.34217,-32.3308 -6.362188,-35.33656 -0.0089,-1.3411 0.628323,-3.34242 1.31557,-4.1316 0.338194,-0.38835 1.329274,-1.08304 2.202399,-1.54375 1.376333,-0.72624 2.033298,-0.83093 4.93889,-0.78707 2.854108,0.0431 4.581506,0.36817 11.641668,2.19086 21.882689,5.64934 30.184459,8.70793 38.000507,14.00036 3.874587,2.62357 8.413596,7.50084 11.875762,12.76078 0.925911,1.4067 1.830034,2.55764 2.009161,2.55764 1.196961,0 -0.784552,-14.98241 -2.398171,-18.13281 l -0.52402,-1.02308 1.712133,0.2317 c 0.941673,0.12743 3.013431,0.55631 4.603906,0.95305 1.73872,0.43372 3.708031,0.67894 4.938889,0.615 1.889566,-0.0982 2.055077,-0.17449 2.150545,-0.99154 0.07404,-0.63371 -0.367145,-1.43549 -1.552947,-2.82222 -1.514211,-1.77079 -1.59134,-1.9467 -0.898632,-2.04958 0.41676,-0.0619 2.183085,0.61279 3.925167,1.4993 3.260227,1.65907 5.654927,2.12762 5.654927,1.10645 0,-0.27796 -0.30083,-0.60087 -0.66852,-0.71757 -0.36769,-0.1167 -1.42524,-1.02117 -2.35011,-2.00993 -0.92487,-0.98876 -2.36763,-2.32142 -3.206131,-2.96146 l -1.524554,-1.16372 1.182871,-0.73106 c 0.848871,-0.52463 1.494684,-0.66869 2.287154,-0.51019 1.30394,0.26078 1.41753,-0.16649 0.31054,-1.16809 -1.12886,-1.02139 -2.867932,-1.52147 -5.291005,-1.52147 -1.750181,0 -2.488764,0.21361 -4.445275,1.28563 -5.603341,3.07022 -9.109216,6.10555 -10.125401,8.76639 -0.3339,0.8743 -0.73538,1.58964 -0.892176,1.58964 -0.156796,0 -2.873667,-0.85441 -6.03749,-1.89869 -8.840058,-2.91784 -13.220157,-4.3201 -16.688517,-5.34273 -27.694634,-8.1656 -37.705187,-10.15726 -42.238004,-8.40351 -5.711748,2.20988 -5.604201,6.34338 0.943302,36.2553 0.470451,2.14923 1.097858,5.09832 1.394238,6.55353 2.463991,12.09805 2.780452,13.21039 4.468505,15.70661 1.373835,2.03156 2.620918,5.20091 3.328337,8.45867 2.469218,11.37106 4.231989,15.03906 11.102977,23.10328 1.072854,1.25917 2.15012,2.50186 2.393925,2.76154 0.243806,0.25967 0.61167,0.78677 0.817478,1.17133 0.533221,0.99633 2.099331,0.74081 2.765307,-0.45117 z m 19.08088,-5.09458 c 1.977866,-1.57648 9.996339,-4.86341 15.698613,-6.43518 9.025376,-2.48774 16.863205,-3.27284 24.870836,-2.49126 6.07094,0.59255 8.53865,0.61145 8.72286,0.0668 0.47405,-1.4016 -12.036131,-6.38716 -22.833973,-9.0998 -8.439807,-2.12025 -10.303857,-2.29627 -24.317052,-2.29627 -7.447166,0 -12.766766,0.13557 -12.885942,0.3284 -0.303992,0.49187 0.341772,0.76413 2.196982,0.92629 2.520132,0.22026 6.187553,0.91197 6.783787,1.27948 0.886413,0.54637 -9.077481,0.0484 -12.237695,-0.61155 -1.588996,-0.33185 -3.148085,-0.50398 -3.464643,-0.38251 -0.511021,0.1961 -0.488153,0.34362 0.203937,1.31557 0.428723,0.60208 1.273437,1.39655 1.877142,1.76547 2.521218,1.54073 9.074135,3.45009 12.103399,3.52663 1.018283,0.0257 0.619044,0.18666 -1.657141,0.66799 -5.197067,1.09897 -8.937249,2.83741 -8.305121,3.86021 0.186064,0.30106 0.741031,0.37403 1.731825,0.22771 3.227246,-0.4766 6.220519,-0.62336 6.220519,-0.305 0,0.89227 -3.840312,3.27631 -5.277614,3.27631 -0.395785,0 -0.719609,0.14366 -0.719609,0.31925 0,0.34238 4.522587,3.08336 7.296221,4.42197 1.737063,0.83834 2.584561,0.76181 3.992669,-0.36054 z m 123.894509,-3.99071 c 1.10538,-0.94624 2.57783,-2.0715 3.27211,-2.5006 2.86992,-1.7737 7.74327,-2.36665 15.00284,-1.82544 l 4.7625,0.35505 2.99861,-2.03802 c 4.50065,-3.05889 4.86191,-3.19537 9.45054,-3.57025 5.41908,-0.44272 8.28025,-0.92276 10.6906,-1.79364 1.86505,-0.67385 3.84775,-2.0919 3.84775,-2.75194 0,-0.40551 -0.9105,-0.72873 -2.05732,-0.73034 -1.92268,-0.003 -3.75998,-1.73723 -5.38249,-5.08142 -0.7993,-1.64746 -1.36789,-1.81336 -3.89436,-1.13632 -6.43084,1.72333 -6.00822,1.66371 -5.74757,0.81081 0.44885,-1.4687 2.5011,-3.94705 4.0734,-4.91913 1.31707,-0.81428 2.19319,-1.03234 5.19556,-1.29313 3.469,-0.30132 4.65368,-0.69897 5.96046,-2.0007 0.48773,-0.48584 4.07609,-1.90101 4.82027,-1.90101 0.70361,0 4.15932,-1.64652 4.97224,-2.36909 0.38953,-0.34624 1.34203,-1.4108 2.11666,-2.3657 0.77464,-0.9549 2.95539,-3.24969 4.84611,-5.09955 2.40023,-2.34835 3.32548,-3.47458 3.0659,-3.73188 -0.24127,-0.23915 -2.90787,-0.33179 -7.59649,-0.2639 -5.25276,0.0761 -8.06559,-0.0405 -10.30548,-0.42704 -3.07422,-0.53052 -6.76967,-1.81192 -6.76967,-2.34739 0,-0.15548 2.26219,-0.19886 5.02709,-0.0964 4.70831,0.17447 5.22841,0.12679 8.20208,-0.7519 3.92233,-1.15902 6.28908,-2.18326 6.02654,-2.60806 -0.10947,-0.17713 -0.61493,-0.42643 -1.12324,-0.55401 -4.49809,-1.12894 -14.9395,-8.44842 -13.74948,-9.63844 0.11374,-0.11375 1.21647,-0.0208 2.4505,0.2066 2.44179,0.44992 4.56716,0.53685 4.90345,0.20056 0.11707,-0.11707 -0.66304,-1.26801 -1.73358,-2.55764 -2.10281,-2.53315 -2.08618,-2.45239 -1.33705,-6.48992 0.22899,-1.23419 0.18775,-1.32291 -0.61497,-1.32291 -0.58871,0 -1.18818,0.43601 -1.89825,1.38066 -1.05741,1.40674 -3.87573,3.55822 -4.66107,3.55822 -0.30661,0 -0.43877,-0.85275 -0.45103,-2.91041 l -0.0174,-2.91042 -1.2522,2.46945 c -1.76162,3.47406 -3.70971,6.257 -4.10398,5.86273 -0.17875,-0.17875 -0.4378,-2.16817 -0.57567,-4.42095 -0.37273,-6.09028 -1.4439,-6.58443 -2.33538,-1.07736 -0.47247,2.91868 -0.93502,4.09817 -1.41781,3.61537 -0.37523,-0.37522 -0.84858,-6.76277 -0.66093,-8.91868 0.18947,-2.17685 -0.17837,-4.23334 -0.75721,-4.23334 -0.58213,0 -2.58784,4.17424 -3.00878,6.26181 -0.73819,3.66084 -1.36334,2.29327 -1.37075,-2.99861 -0.005,-3.697 -0.31163,-4.20742 -1.52525,-2.54038 -0.71199,0.978 -1.98478,4.45336 -2.04877,5.59422 -0.0228,0.40618 -0.24217,-1.30082 -0.48752,-3.79335 -0.31851,-3.23573 -0.60863,-4.69439 -1.01439,-5.10015 -0.79835,-0.79836 -1.20297,-0.25686 -1.6615,2.22358 -0.41686,2.255 -2.00734,5.72991 -2.99686,6.5476 -0.5665,0.46814 -0.59666,0.4249 -0.38373,-0.55027 0.54567,-2.49912 0.67826,-4.40972 0.30602,-4.40972 -0.20925,0 -1.11415,0.635 -2.01087,1.41111 -0.89673,0.77611 -1.95087,1.41111 -2.34254,1.41111 -0.6191,0 -0.67975,-0.14979 -0.46425,-1.14653 0.36767,-1.70056 1.64546,-4.05818 3.47501,-6.41166 1.63586,-2.10432 1.99794,-3.02838 1.18386,-3.02133 -0.91114,0.008 -3.95261,1.08376 -5.48502,1.94024 -0.8743,0.48866 -1.63952,0.83858 -1.7005,0.7776 -0.061,-0.061 0.76498,-1.27509 1.83545,-2.69805 2.0393,-2.7108 3.67438,-5.6203 3.67438,-6.53827 0,-1.02038 -0.90652,-0.53836 -3.00966,1.6003 -2.34702,2.38666 -5.38158,4.75461 -5.69345,4.44274 -0.11181,-0.11181 0.45128,-0.9469 1.2513,-1.85577 0.80002,-0.90888 1.45458,-1.77953 1.45458,-1.93479 0,-1.46638 -3.16766,0.1859 -6.27131,3.27118 -1.88853,1.87735 -2.54813,2.35568 -2.54813,1.84789 0,-1.34634 0.7207,-3.15175 2.46381,-6.17203 0.97323,-1.68633 1.76952,-3.24404 1.76952,-3.46157 0,-0.69975 -1.06503,-0.42411 -2.75866,0.71397 -2.62203,1.76194 -3.92766,3.14595 -5.11012,5.41691 -1.60924,3.09061 -1.64477,1.51139 -0.0718,-3.19014 0.80113,-2.39448 1.14687,-3.92104 0.93585,-4.13206 -0.72173,-0.72173 -4.49785,3.04878 -5.99776,5.98884 -1.27269,2.49469 -0.93018,4.51496 1.26168,7.44195 1.0659,1.42339 0.9019,1.67363 -0.66717,1.01803 -1.61342,-0.67413 -3.36578,-2.48916 -4.2971,-4.45078 -1.04716,-2.20564 -1.78547,-2.13744 -1.92043,0.17738 -0.0865,1.48399 0.10754,2.20198 1.12039,4.14514 0.67377,1.29264 1.11773,2.34921 0.98659,2.34793 -0.48667,-0.005 -2.11404,-1.26683 -3.00359,-2.32939 -2.5685,-3.06806 -3.76124,-7.482 -3.76124,-13.91913 0,-2.31565 -0.087,-4.21027 -0.19331,-4.21027 -0.48671,0 -2.00811,2.16835 -3.15264,4.49323 -2.12949,4.32561 -2.64237,6.46777 -2.6406,11.02899 0.002,4.67002 0.45005,7.09715 2.44073,13.21599 1.28279,3.943 1.77325,6.53957 1.23524,6.53957 -0.10665,0 -0.66694,-0.24461 -1.24508,-0.54358 -0.57815,-0.29898 -1.20569,-0.44809 -1.39455,-0.33137 -0.42308,0.26148 -0.11037,0.88274 2.30486,4.57912 3.78835,5.79786 4.5752,7.94762 5.82288,15.90871 1.02228,6.52286 2.28644,9.66768 3.88625,9.66768 0.43906,0 0.65653,-0.38848 0.79487,-1.41987 0.44826,-3.34199 6.61747,-13.11542 11.8383,-18.75454 4.23477,-4.57405 11.97776,-9.59722 15.4552,-10.02635 l 1.71313,-0.21141 -3.07307,1.57105 c -9.97808,5.10113 -19.47291,16.18988 -22.46249,26.23332 -1.17474,3.9465 -0.84998,7.88364 0.67358,8.16605 0.57995,0.10749 0.86827,-0.1263 5.90533,-4.78857 5.10206,-4.72243 9.62714,-8.04362 14.4052,-10.57272 2.6264,-1.39019 7.76609,-2.5604 11.95978,-2.72302 l 3.88056,-0.15048 -3.87004,0.67245 c -2.12852,0.36985 -4.90665,1.0206 -6.17361,1.4461 -3.79388,1.27417 -11.57961,5.94538 -15.79733,9.47792 -3.61475,3.02754 -2.67806,3.59408 2.38125,1.44025 5.34596,-2.27586 8.13695,-3.03563 14.46389,-3.93741 8.46235,-1.20614 14.60503,-0.96312 20.02339,0.79217 1.6538,0.53575 1.07656,1.01481 -0.70673,0.58652 -0.82576,-0.19831 -4.51763,-0.37571 -8.20416,-0.39422 -7.0925,-0.0356 -10.33358,0.34422 -17.22633,2.01874 -5.76996,1.40175 -5.57918,2.02285 0.82217,2.67661 4.25762,0.43483 8.88091,1.52042 11.57838,2.71869 1.79401,0.79694 0.60228,1.05123 -1.61715,0.34506 -0.91902,-0.29241 -2.38533,-0.64068 -3.25846,-0.77393 -0.87312,-0.13324 -1.905,-0.31298 -2.29305,-0.39942 -0.38806,-0.0864 -4.2372,-0.24937 -8.55365,-0.36208 l -7.84809,-0.20492 -2.20607,1.33212 c -4.81651,2.9084 -6.59982,4.15457 -6.40242,4.47398 0.11361,0.18382 0.64012,0.23899 1.17002,0.1226 0.52991,-0.11638 1.42761,-0.0305 1.99489,0.19089 l 1.03143,0.40249 -1.23181,0.93499 c -2.23883,1.69937 -5.238,5.00553 -6.06642,6.68739 -1.15434,2.34351 -1.14647,7.62604 0.0166,11.18094 1.15601,3.53319 3.14065,6.8836 4.07306,6.87603 0.21246,-0.002 1.2907,-0.77733 2.39607,-1.72356 z m -62.51117,-0.4243 c 0,-0.96935 -3.09529,-6.17451 -5.75887,-9.68433 -3.27429,-4.31457 -5.32993,-7.68057 -6.77592,-11.09523 -1.06111,-2.50578 -2.35368,-7.10135 -2.07557,-7.37945 0.0959,-0.0959 0.79687,0.50656 1.55766,1.33886 1.26193,1.38053 2.11659,1.65479 2.11659,0.67923 0,-0.20945 -1.40108,-2.46227 -3.11351,-5.00626 -3.36981,-5.00621 -7.31561,-11.77642 -7.02998,-12.06205 0.0974,-0.0974 0.65653,0.22629 1.24248,0.71933 1.08383,0.91199 2.55101,1.20786 2.55101,0.51444 0,-0.21011 -0.78769,-1.88304 -1.75043,-3.71762 -0.96273,-1.83458 -1.84132,-3.92486 -1.95241,-4.64507 -0.87178,-5.65178 -3.011271,-9.24697 -5.502853,-9.24697 -0.696236,0 -0.745352,0.13271 -0.554893,1.49931 0.114924,0.82461 0.45307,2.36733 0.751435,3.42826 0.298364,1.06093 0.536772,2.64844 0.529794,3.52778 l -0.01269,1.59882 -0.781063,-0.95419 c -0.429585,-0.5248 -1.095024,-1.55668 -1.478754,-2.29305 -1.111467,-2.13291 -3.078775,-5.04304 -3.4092,-5.04304 -0.166558,0 -0.302832,1.49601 -0.302832,3.32447 0,1.82847 -0.155502,4.09065 -0.345559,5.02709 -0.190058,0.93643 -0.434695,2.43523 -0.543639,3.33067 -0.108944,0.89543 -0.409389,1.91704 -0.667654,2.27024 -0.44452,0.60792 -0.543446,0.58367 -1.854131,-0.45441 -2.115134,-1.67522 -7.090674,-4.6811 -8.671981,-5.23901 -1.530869,-0.54013 -3.086482,-0.65717 -3.086482,-0.23223 0,0.84273 3.194543,4.49055 8.340445,9.52387 3.223471,3.15296 5.690715,5.73264 5.482764,5.73264 -0.207952,0 -1.712195,-0.53783 -3.342762,-1.19519 -5.856117,-2.36086 -11.949895,-3.36112 -12.972206,-2.12931 -0.613706,0.73947 -0.0978,1.05421 2.235333,1.36371 2.147932,0.28493 3.930311,1.15229 6.973089,3.39332 2.60106,1.91571 3.736476,3.0486 3.396311,3.38876 -0.349322,0.34932 -3.957237,-0.54544 -7.003654,-1.7369 -1.667509,-0.65217 -2.957883,-0.96345 -3.351389,-0.80847 -0.548592,0.21605 -0.389629,0.48003 1.114288,1.85041 1.778041,1.62016 4.810071,3.75497 6.679059,4.70262 1.494211,0.75763 0.350348,0.85136 -2.138649,0.17525 -1.133682,-0.30795 -4.705737,-0.73288 -7.937901,-0.94429 -5.507707,-0.36025 -6.116791,-0.33611 -9.70139,0.38444 -5.090164,1.02318 -11.465472,3.96445 -10.558659,4.87126 0.34768,0.34768 6.54403,-0.5905 7.638667,-1.15656 0.606336,-0.31355 1.997199,-0.51738 3.530387,-0.51738 2.894574,0 9.442582,0.90116 10.847309,1.49284 0.822911,0.34661 0.423426,0.44706 -3.084478,0.77559 -4.027947,0.37723 -5.258978,0.91392 -3.305679,1.44116 1.308605,0.35323 4.58907,0.94705 12.330971,2.23213 8.776229,1.45677 12.214518,2.33722 17.682328,4.52796 4.857008,1.94601 5.720818,2.16637 5.720818,1.45941 0,-0.22997 -0.86629,-1.93654 -1.9251,-3.79236 -4.984726,-8.73698 -8.976242,-19.83704 -9.585907,-26.65756 -0.309739,-3.46516 0.287278,-2.66953 1.588265,2.11666 2.402735,8.8394 6.204722,17.93403 10.544652,25.22362 2.73452,4.59303 4.30265,6.15222 8.68062,8.63109 2.04442,1.15759 4.71678,2.93138 5.93856,3.94176 2.19651,1.81647 3.10336,2.25594 3.10336,1.50393 z m 105.48057,-71.12097 c 1.06715,-1.47432 2.12975,-3.17282 2.36134,-3.77445 0.57869,-1.50338 0.55753,-6.72525 -0.0655,-16.16295 -0.78607,-11.90747 -1.73677,-18.24939 -4.11353,-27.44064 -1.54775,-5.985346 -2.24318,-7.825116 -3.66009,-9.68278 -1.41356,-1.853274 -5.64104,-4.923781 -8.80973,-6.398687 -3.61415,-1.682257 -5.7786,-1.912541 -8.02985,-0.854328 -2.10837,0.99105 -6.77938,5.850852 -11.03496,11.480964 -1.75439,2.321058 -4.88056,6.371221 -6.94703,9.000371 -2.06648,2.62914 -4.59982,6.12311 -5.62964,7.76438 -2.48239,3.95629 -5.8835,10.82823 -6.00704,12.13726 -0.13926,1.47556 0.78012,1.53208 1.70689,0.10493 0.411,-0.6329 1.3389,-2.06302 2.06201,-3.17804 1.90468,-2.93697 5.31681,-6.23011 7.40603,-7.14774 0.97853,-0.42979 4.55727,-1.67767 7.95276,-2.77306 3.62103,-1.16816 6.97585,-2.48894 8.11389,-3.19442 1.06715,-0.66154 3.69512,-2.24645 5.83992,-3.52203 5.06786,-3.014 5.74101,-3.73709 6.47054,-6.950574 0.64892,-2.858456 1.205,-3.386459 1.74322,-1.655213 0.19916,0.640638 1.15295,3.704797 2.11953,6.809237 3.30426,10.61257 3.54195,11.91043 2.57195,14.04341 -0.69898,1.53701 -4.83467,5.80826 -6.43301,6.64385 -1.72174,0.90012 -6.64442,4.71169 -6.65608,5.15372 -0.0155,0.58701 1.08326,0.55759 2.71526,-0.0727 0.73153,-0.28252 2.31873,-0.7622 3.5271,-1.06596 1.20837,-0.30376 3.05857,-1.0251 4.11155,-1.60299 1.05299,-0.57789 2.09712,-1.0507 2.3203,-1.0507 0.22317,0 0.81031,0.91281 1.30474,2.02847 0.8337,1.8812 0.92081,2.59196 1.19978,9.78958 0.43276,11.16531 0.7676,14.30367 1.52249,14.26959 0.21828,-0.01 1.27,-1.22418 2.33716,-2.69849 z m -67.73334,-22.59516 c 2.99437,-1.49746 5.83385,-4.14752 7.76111,-7.24336 0.6791,-1.09087 1.3141,-1.98993 1.41111,-1.99792 0.097,-0.008 0.18718,1.22487 0.20038,2.73969 0.0241,2.76735 0.6982,6.06038 1.24059,6.06038 0.16002,0 0.38587,-0.59532 0.5019,-1.32292 0.69689,-4.37043 1.57859,-6.56763 4.44397,-11.07442 3.1069,-4.88666 7.13706,-10.16836 10.54649,-13.82162 1.06716,-1.143472 2.49591,-2.845162 3.175,-3.781533 0.6791,-0.936371 2.42535,-3.095927 3.88056,-4.799013 1.45521,-1.703086 3.12208,-3.759284 3.70417,-4.569328 1.2958,-1.803273 4.09985,-4.824124 5.18051,-5.581045 1.05092,-0.736097 4.35225,-0.728284 6.93603,0.01642 3.09355,0.891629 6.68729,2.827031 9.4911,5.111424 1.4067,1.146104 2.55764,1.91777 2.55764,1.714812 0,-1.373652 -3.7768,-6.837023 -6.17801,-8.936873 -2.8619,-2.502724 -5.04044,-3.421528 -8.67024,-3.656693 -3.02543,-0.196008 -3.20946,-0.16357 -5.51787,0.972576 -1.55767,0.766653 -3.18848,1.980677 -4.68997,3.491362 -2.65382,2.670073 -2.72063,2.748903 -8.09287,9.547958 -3.46748,4.388408 -5.08361,6.495476 -9.1998,11.994443 -5.80026,7.74878 -11.17321,14.13224 -13.82251,16.42217 -3.41076,2.94811 -6.07448,4.02719 -11.82666,4.79101 -1.79475,0.23832 -3.26319,0.54422 -3.26319,0.67977 0,0.13555 0.4492,0.43252 0.99821,0.65993 0.54902,0.22741 1.93808,1.19513 3.08681,2.1505 1.14873,0.95537 2.40609,1.74118 2.79415,1.74623 0.38805,0.005 1.89618,-0.58622 3.35139,-1.31395 z"
       id="path1" /></g></svg>
