<?xml version="1.0" encoding="UTF-8" standalone="no"?>
<!-- Created with Inkscape (http://www.inkscape.org/) -->

<svg
   width="60.474712mm"
   height="17.26763mm"
   viewBox="0 0 60.474711 17.26763"
   version="1.1"
   id="svg1"
   xml:space="preserve"
   inkscape:version="1.4.1 (93de688d07, 2025-03-30)"
   sodipodi:docname="frontFootprintPair.svg"
   inkscape:export-filename="finales/afficheAssocA4.pdf"
   inkscape:export-xdpi="96"
   inkscape:export-ydpi="96"
   xmlns:inkscape="http://www.inkscape.org/namespaces/inkscape"
   xmlns:sodipodi="http://sodipodi.sourceforge.net/DTD/sodipodi-0.dtd"
   xmlns="http://www.w3.org/2000/svg"
   xmlns:svg="http://www.w3.org/2000/svg"><sodipodi:namedview
     id="namedview1"
     pagecolor="#505050"
     bordercolor="#eeeeee"
     borderopacity="1"
     inkscape:showpageshadow="0"
     inkscape:pageopacity="0"
     inkscape:pagecheckerboard="0"
     inkscape:deskcolor="#505050"
     inkscape:document-units="mm"
     showgrid="false"
     showguides="true"
     inkscape:zoom="4.9780317"
     inkscape:cx="131.27678"
     inkscape:cy="46.604765"
     inkscape:window-width="2560"
     inkscape:window-height="1259"
     inkscape:window-x="2560"
     inkscape:window-y="181"
     inkscape:window-maximized="1"
     inkscape:current-layer="svg1"
     inkscape:export-bgcolor="#55555500"><inkscape:grid
       id="grid1"
       units="mm"
       originx="-49.145679"
       originy="-139.93733"
       spacingx="105"
       spacingy="148.5"
       empcolor="#0099e5"
       empopacity="0.30196078"
       color="#08e500"
       opacity="0.14901961"
       empspacing="5"
       enabled="true"
       visible="false"
       dotted="false" /><inkscape:grid
       id="grid42"
       units="mm"
       originx="-49.145679"
       originy="-139.93733"
       spacingx="52.500001"
       spacingy="37.124999"
       empcolor="#0099e5"
       empopacity="0.30196078"
       color="#0099e5"
       opacity="0.14901961"
       empspacing="5"
       enabled="true"
       visible="false"
       dotted="true" /><inkscape:grid
       id="grid6"
       units="mm"
       originx="-49.145679"
       originy="-139.93733"
       spacingx="0.99999998"
       spacingy="1"
       empcolor="#0099e5"
       empopacity="0.30196078"
       color="#0099e5"
       opacity="0.14901961"
       empspacing="5"
       enabled="true"
       visible="false" /><inkscape:page
       x="0"
       y="0"
       width="60.474712"
       height="17.26763"
       id="page1"
       margin="0"
       bleed="0" /></sodipodi:namedview><defs
     id="defs1" /><g
     id="g2"
     inkscape:label="paires de pattes avant"
     style="display:inline;opacity:1"
     transform="matrix(2.9372356,0,0,2.9372356,-406.56802,-580.95795)"><g
       id="g1"
       inkscape:label="droite"><path
         id="path126"
         style="display:inline;opacity:1;fill:#000000;stroke:#000000;stroke-width:0;stroke-linecap:round;stroke-linejoin:round;stroke-opacity:0.811286"
         transform="matrix(0.99318715,0.11653024,-0.12207407,0.99252102,3.262705e-6,-1.5604241e-6)"
         d="m 178.9149,178.98744 c 0,0.31068 -0.67359,0.59417 -1.10201,0.53391 -0.39016,-0.0549 -0.88064,-0.1459 -1.02848,-0.301 -0.0612,-0.0642 -0.0845,-0.14867 -0.0965,-0.23955 -0.0439,-0.33273 0.54593,-0.55562 1.11515,-0.56252 0.56169,-0.007 1.11179,0.25849 1.1118,0.56916 z"
         sodipodi:nodetypes="ssssss" /><path
         id="path127"
         style="display:inline;opacity:1;fill:#000000;baseline-shift:baseline;overflow:visible;vector-effect:none;stroke-linecap:round;stroke-linejoin:round;enable-background:accumulate;stop-color:#000000;stop-opacity:1"
         transform="matrix(0.98699134,0.16077329,-0.13669552,0.99061314,3.262705e-6,-1.5604241e-6)"
         d="m 179.54514,171.77124 c 0.0172,0.1539 -0.11894,0.32316 -1.05298,0.40558 -0.89668,0.0791 -1.47449,-0.0941 -1.49247,-0.39874 -0.0183,-0.31049 0.72229,-0.39479 1.25944,-0.43318 0.81103,-0.058 1.26413,0.23037 1.28601,0.42634 z"
         sodipodi:nodetypes="sssss" /><path
         id="path128"
         style="display:inline;opacity:1;fill:#000000;baseline-shift:baseline;overflow:visible;vector-effect:none;stroke-width:0.979736;stroke-linecap:round;stroke-linejoin:round;enable-background:accumulate;stop-color:#000000;stop-opacity:1"
         d="m 153.46253,200.03637 c 3.2e-4,0.14344 -0.16614,0.36588 -1.13065,0.24293 -1.0525,-0.13417 -1.46577,-0.24225 -1.49225,-0.54972 -0.0306,-0.35486 0.79212,-0.27614 1.34644,-0.24288 0.77814,0.0467 1.27612,0.39919 1.27646,0.54967 z"
         sodipodi:nodetypes="sssss"
         transform="translate(3.262705e-6)" /><path
         id="path129"
         style="display:inline;opacity:1;fill:#000000;stroke:#000000;stroke-width:0;stroke-linecap:round;stroke-linejoin:round;stroke-opacity:0.811286"
         transform="matrix(0.99416001,0.10791631,-0.10753046,0.9942018,3.262705e-6,-1.5604241e-6)"
         d="m 178.80305,180.66255 c -0.0125,0.11694 -0.4489,0.52269 -0.95472,0.51277 -0.58078,-0.0114 -1.04192,-0.324 -1.0486,-0.50209 -0.01,-0.26765 0.30323,-0.49185 1.00665,-0.49488 0.6051,-0.003 1.01915,0.27438 0.99667,0.4842 z"
         sodipodi:nodetypes="sssss" /><path
         id="path130"
         style="display:inline;opacity:1;fill:#000000;stroke:#000000;stroke-width:0;stroke-linecap:round;stroke-linejoin:round;stroke-opacity:0.811286"
         transform="rotate(2.8548868,3.2941579e-5,6.4686686e-5)"
         d="m 168.77769,191.95632 c 0.002,0.19323 -1.54332,0.41036 -2.29645,0.59001 -0.31183,0.0744 -0.60754,0.17799 -0.90591,0.2926 -0.29211,0.11222 -0.5832,0.23589 -1.22421,0.26843 -0.56878,0.0289 -0.76907,-0.6221 -0.74841,-0.81558 0.0598,-0.55951 1.2611,-1.08117 2.5851,-0.90586 1.42284,0.18839 2.58721,0.34152 2.58988,0.5704 z"
         sodipodi:nodetypes="sssssss" /></g><g
       id="g3"
       inkscape:label="gauche"><path
         id="path140"
         style="display:inline;opacity:1;fill:#000000;stroke:#000000;stroke-width:0;stroke-linecap:round;stroke-linejoin:round;stroke-opacity:0.811286"
         d="m 143.26821,201.25182 c -0.26912,0.16965 -0.3536,0.18144 -0.6744,0.24215 -0.14805,0.028 -0.56179,-0.0702 -0.79795,-0.15817 -0.23128,-0.0861 -0.404,-0.1997 -0.52185,-0.3538 -0.0538,-0.0703 -0.0821,-0.15874 -0.0699,-0.23544 0.0303,-0.18947 0.25732,-0.25778 0.56595,-0.2891 0.20604,-0.0209 0.35164,-0.0363 0.60711,-0.0187 0.31749,0.0219 0.60283,0.18044 0.71349,0.26986 0.51538,0.41646 0.26175,0.49012 0.17755,0.5432 z"
         sodipodi:nodetypes="sssssssss"
         transform="translate(3.262705e-6)" /><path
         id="path141"
         style="display:inline;opacity:1;fill:#000000;baseline-shift:baseline;overflow:visible;vector-effect:none;stroke-width:0.999852;stroke-linecap:round;stroke-linejoin:round;enable-background:accumulate;stop-color:#000000;stop-opacity:1"
         d="m 141.19835,201.65279 c -0.003,0.0454 -0.003,0.10503 -0.099,0.14076 -0.17899,0.0663 -0.6721,0.12654 -1.13397,0.0785 -0.15868,-0.0165 -0.46248,-0.13754 -0.74457,-0.27023 -0.2867,-0.13485 -0.54613,-0.28218 -0.53787,-0.43523 0.0155,-0.28683 0.99996,-0.27227 1.472,-0.19478 0.8899,0.14609 1.05827,0.48384 1.04337,0.681 z"
         sodipodi:nodetypes="sssssss"
         transform="translate(3.262705e-6)" /><path
         id="path142"
         style="display:inline;opacity:1;fill:#000000;baseline-shift:baseline;overflow:visible;vector-effect:none;stroke-width:0.968605;stroke-linecap:round;stroke-linejoin:round;enable-background:accumulate;stop-color:#000000;stop-opacity:1"
         d="m 140.73149,202.45106 c 0.0754,0.0729 0.17668,0.16881 0.0645,0.31528 -0.1397,0.18239 -0.59337,0.1704 -1.0106,0.15329 -0.20266,-0.008 -0.60229,-0.0534 -0.9688,-0.22233 -0.22128,-0.10196 -0.37293,-0.25101 -0.39688,-0.386 -0.022,-0.12418 0.28412,-0.19141 0.63843,-0.20665 0.20543,-0.009 0.42293,0.007 0.61276,0.0204 0.56934,0.0392 0.94792,0.21704 1.06061,0.32598 z"
         sodipodi:nodetypes="sssssssss"
         transform="translate(3.262705e-6)" /><path
         id="path143"
         style="display:inline;opacity:1;fill:#000000;stroke:#000000;stroke-width:0;stroke-linecap:round;stroke-linejoin:round;stroke-opacity:0.811286"
         d="m 145.86553,201.33523 c -0.01,0.14343 -0.0919,0.32744 -0.31034,0.44321 -0.13578,0.072 -0.32237,0.1086 -0.58223,0.11998 -0.60239,0.0264 -0.74727,-0.20251 -0.92887,-0.39857 -0.18473,-0.19945 -0.15449,-0.35912 0.10608,-0.4841 0.17773,-0.0853 0.45758,-0.093 0.77791,-0.0844 0.60489,0.0162 0.95415,0.15505 0.93745,0.40392 z"
         sodipodi:nodetypes="sssssss"
         transform="translate(3.262705e-6)" /><path
         id="path144"
         style="display:inline;opacity:1;fill:#000000;stroke:#000000;stroke-width:0;stroke-linecap:round;stroke-linejoin:round;stroke-opacity:0.811286"
         d="m 146.15509,202.48083 c 0.36326,0.1317 0.76216,0.45284 -0.59242,0.57137 -0.31935,0.028 -0.36118,0.0122 -0.96612,0.10388 -0.52797,0.08 -1.07064,0.25175 -1.98735,0.45852 -1.22021,0.27523 -1.23863,-0.56229 -1.24181,-0.75537 -0.0143,-0.86895 1.29445,-0.79704 2.62993,-0.81107 1.22169,-0.0128 1.94258,0.35465 2.15777,0.43267 z"
         sodipodi:nodetypes="sssssss"
         transform="translate(3.262705e-6)" /></g></g></svg>
