<?xml version="1.0" encoding="UTF-8" standalone="no"?>
<!-- Created with Inkscape (http://www.inkscape.org/) -->

<svg
   width="61.941158mm"
   height="16.701963mm"
   viewBox="0 0 61.941157 16.701963"
   version="1.1"
   id="svg1"
   xml:space="preserve"
   inkscape:version="1.4.1 (93de688d07, 2025-03-30)"
   sodipodi:docname="rearFootprintPair.svg"
   inkscape:export-filename="finales/afficheAssocA4.pdf"
   inkscape:export-xdpi="96"
   inkscape:export-ydpi="96"
   xmlns:inkscape="http://www.inkscape.org/namespaces/inkscape"
   xmlns:sodipodi="http://sodipodi.sourceforge.net/DTD/sodipodi-0.dtd"
   xmlns="http://www.w3.org/2000/svg"
   xmlns:svg="http://www.w3.org/2000/svg"><sodipodi:namedview
     id="namedview1"
     pagecolor="#505050"
     bordercolor="#eeeeee"
     borderopacity="1"
     inkscape:showpageshadow="0"
     inkscape:pageopacity="0"
     inkscape:pagecheckerboard="0"
     inkscape:deskcolor="#505050"
     inkscape:document-units="mm"
     showgrid="false"
     showguides="true"
     inkscape:zoom="2.4890159"
     inkscape:cx="71.715091"
     inkscape:cy="86.781287"
     inkscape:window-width="2560"
     inkscape:window-height="1229"
     inkscape:window-x="2560"
     inkscape:window-y="211"
     inkscape:window-maximized="1"
     inkscape:current-layer="g2"
     inkscape:export-bgcolor="#55555500"><inkscape:grid
       id="grid1"
       units="mm"
       originx="-63.270432"
       originy="-163.16992"
       spacingx="105"
       spacingy="148.5"
       empcolor="#0099e5"
       empopacity="0.30196078"
       color="#08e500"
       opacity="0.14901961"
       empspacing="5"
       enabled="true"
       visible="false"
       dotted="false" /><inkscape:grid
       id="grid42"
       units="mm"
       originx="-63.270432"
       originy="-163.16992"
       spacingx="52.500001"
       spacingy="37.124999"
       empcolor="#0099e5"
       empopacity="0.30196078"
       color="#0099e5"
       opacity="0.14901961"
       empspacing="5"
       enabled="true"
       visible="false"
       dotted="true" /><inkscape:grid
       id="grid6"
       units="mm"
       originx="-63.270432"
       originy="-163.16992"
       spacingx="0.99999998"
       spacingy="1"
       empcolor="#0099e5"
       empopacity="0.30196078"
       color="#0099e5"
       opacity="0.14901961"
       empspacing="5"
       enabled="true"
       visible="false" /><inkscape:page
       x="5.4511361e-16"
       y="0"
       width="61.941154"
       height="16.701963"
       id="page1"
       margin="0"
       bleed="0" /></sodipodi:namedview><defs
     id="defs1" /><g
     id="g2"
     inkscape:label="paire de pattes arriere"
     style="display:inline;opacity:1"
     transform="matrix(2.9372356,0,0,2.9372356,-420.69277,-604.19054)"><g
       id="g1"
       inkscape:label="droite"><path
         id="path145"
         style="display:inline;opacity:1;fill:#000000;stroke:#000000;stroke-width:0;stroke-linecap:round;stroke-linejoin:round;stroke-opacity:0.811286"
         transform="matrix(0.99318715,0.11653024,-0.12207407,0.99252102,4.795575,7.7059905)"
         d="m 178.30478,179.45894 c -0.18786,0.17413 -0.49839,0.22334 -0.93423,0.22264 -0.39949,-6.4e-4 -0.77673,-0.0893 -1.06662,-0.20489 -0.19073,-0.076 -0.67319,-0.35454 -0.0868,-0.61764 0.22676,-0.10174 0.52254,-0.1396 0.89919,-0.13522 0.37896,0.004 0.56012,0.0359 0.86195,0.11116 0.32349,0.0807 0.67457,0.30129 0.32648,0.62395 z"
         sodipodi:nodetypes="sssssss" /><path
         id="path146"
         style="display:inline;opacity:1;baseline-shift:baseline;overflow:visible;vector-effect:none;fill:#000000;stroke-width:0.999852;stroke-linecap:round;stroke-linejoin:round;enable-background:accumulate;stop-color:#000000;stop-opacity:1"
         d="m 153.39221,199.06625 c 0.27726,0.22061 0.21216,0.3275 -0.0181,0.43429 -0.13499,0.0626 -0.65628,0.15899 -1.1696,0.11238 -0.56511,-0.0513 -1.0517,-0.21725 -1.28006,-0.3869 -0.0946,-0.0703 -0.25226,-0.3087 0.19893,-0.37284 0.33968,-0.0483 0.72814,-0.0846 1.04133,-0.0564 0.8084,0.073 1.07283,0.14633 1.22754,0.26944 z"
         sodipodi:nodetypes="sssssss"
         transform="translate(4.795575,7.7059905)" /><path
         id="path147"
         style="display:inline;opacity:1;baseline-shift:baseline;overflow:visible;vector-effect:none;fill:#000000;stroke-width:0.979736;stroke-linecap:round;stroke-linejoin:round;enable-background:accumulate;stop-color:#000000;stop-opacity:1"
         d="m 154.05164,200.51799 c -0.13332,0.0529 -0.37566,0.16052 -1.32702,0.11891 -0.64283,-0.0281 -1.07053,-0.16226 -1.23387,-0.2562 -0.20072,-0.11544 -0.20852,-0.27221 0.08,-0.35862 0.41967,-0.12569 0.79534,-0.13308 1.22513,-0.1013 0.77742,0.0575 1.75981,0.39712 1.25579,0.59721 z"
         sodipodi:nodetypes="ssssss"
         transform="translate(4.795575,7.7059905)" /><path
         id="path148"
         style="display:inline;opacity:1;fill:#000000;stroke:#000000;stroke-width:0;stroke-linecap:round;stroke-linejoin:round;stroke-opacity:0.811286"
         transform="matrix(0.99416001,0.10791631,-0.10753046,0.9942018,4.795575,7.7059905)"
         d="m 178.38587,180.70783 c 0.0146,0.25076 -0.42728,0.31207 -0.81815,0.3337 -0.16461,0.009 -0.38543,0.0647 -0.92118,-0.0959 -0.30565,-0.0917 -0.45752,-0.39459 -0.20958,-0.64672 0.095,-0.0966 0.61365,-0.2382 1.31293,-0.1622 0.58528,0.0636 0.62137,0.31983 0.63598,0.57116 z"
         sodipodi:nodetypes="ssssss" /><path
         id="path149"
         style="display:inline;opacity:1;fill:#000000;stroke:#000000;stroke-width:0;stroke-linecap:round;stroke-linejoin:round;stroke-opacity:0.811286"
         d="m 159.39648,200.03844 c -0.44229,0.17533 -0.59145,0.17339 -1.4075,0.31821 -0.3133,0.0556 -0.95936,0.39802 -1.24764,0.53605 -0.7214,0.34542 -1.59477,0.10389 -1.83001,-0.10227 -0.14454,-0.12667 -0.70032,-0.49606 -0.253,-0.88999 0.63126,-0.55591 1.62788,-0.4989 2.50118,-0.47248 0.69395,0.021 1.31476,0.10854 1.77607,0.16268 0.54437,0.0639 0.73362,0.33969 0.4609,0.4478 z"
         sodipodi:nodetypes="ssssssss"
         transform="translate(4.795575,7.7059905)" /></g><g
       id="g3"
       inkscape:label="gauche"><path
         id="path150"
         style="display:inline;opacity:1;fill:#000000;stroke:#000000;stroke-width:0;stroke-linecap:round;stroke-linejoin:round;stroke-opacity:0.811286"
         d="m 142.58173,201.51954 c -0.14318,0.0469 -0.6027,0.0787 -0.85376,0.0568 -0.29949,-0.0262 -0.52182,-0.0674 -0.72855,-0.13676 -0.0839,-0.0282 -0.3126,-0.1155 -0.44197,-0.25197 -0.0741,-0.0782 -0.27598,-0.34873 0.36544,-0.55162 0.19746,-0.0625 0.41572,-0.0218 0.67119,-0.004 0.31749,0.0219 0.86856,0.20115 1.06489,0.3236 0.49522,0.30889 0.0407,0.52555 -0.0772,0.56418 z"
         sodipodi:nodetypes="ssssssss"
         transform="translate(4.795575,7.7059905)" /><path
         id="path151"
         style="display:inline;opacity:1;baseline-shift:baseline;overflow:visible;vector-effect:none;fill:#000000;stroke-width:0.999852;stroke-linecap:round;stroke-linejoin:round;enable-background:accumulate;stop-color:#000000;stop-opacity:1"
         d="m 140.78317,201.6363 c 0.58714,0.25128 0.2688,0.43827 0.16765,0.48595 -0.21536,0.10152 -0.55413,0.10494 -1.01821,0.0888 -0.23723,-0.008 -0.42882,-0.0402 -1.12078,-0.20408 -0.33996,-0.0805 -0.573,-0.42895 -0.15753,-0.54065 0.2774,-0.0746 0.39016,-0.0597 0.82708,-0.0542 0.42476,0.005 0.87413,0.0411 1.30179,0.22416 z"
         sodipodi:nodetypes="sssssss"
         transform="translate(4.795575,7.7059905)" /><path
         id="path152"
         style="display:inline;opacity:1;baseline-shift:baseline;overflow:visible;vector-effect:none;fill:#000000;stroke-width:0.968605;stroke-linecap:round;stroke-linejoin:round;enable-background:accumulate;stop-color:#000000;stop-opacity:1"
         d="m 141.47099,202.81112 c 0.29563,0.18095 0.0801,0.33338 -0.0492,0.37109 -0.38526,0.11234 -0.76527,0.0924 -1.18216,0.0685 -0.39283,-0.0225 -0.75021,-0.12637 -1.04735,-0.24506 -0.46566,-0.18602 -0.16346,-0.35416 0.0868,-0.41701 0.19913,-0.05 0.66378,-0.0839 1.02704,-0.0558 0.48658,0.0377 0.88391,0.10624 1.16485,0.2782 z"
         sodipodi:nodetypes="sssssss"
         transform="translate(4.795575,7.7059905)" /><path
         id="path153"
         style="display:inline;opacity:1;fill:#000000;stroke:#000000;stroke-width:0;stroke-linecap:round;stroke-linejoin:round;stroke-opacity:0.811286"
         d="m 145.43873,201.19001 c 0.10985,0.0928 0.25906,0.30577 0.0369,0.41427 -0.18126,0.0885 -0.37679,0.19555 -1.07006,0.12619 -0.5468,-0.0547 -0.73117,-0.22939 -0.88546,-0.39651 -0.16377,-0.17737 -0.0408,-0.38599 0.22597,-0.46963 0.18811,-0.059 0.43523,-0.0445 0.75517,-0.0265 0.47256,0.0266 0.7007,0.15227 0.93745,0.3522 z"
         sodipodi:nodetypes="sssssss"
         transform="translate(4.795575,7.7059905)"
         inkscape:label="path153" /><path
         id="path154"
         style="display:inline;opacity:1;fill:#000000;stroke:#000000;stroke-width:0;stroke-linecap:round;stroke-linejoin:round;stroke-opacity:0.811286"
         d="m 146.7339,202.22943 c 0.42446,0.20206 0.54681,0.34018 -0.0626,0.49664 -0.25834,0.0663 -1.08041,0.21039 -1.5798,0.43141 -0.4965,0.21974 -0.66921,0.51662 -1.3047,0.51894 -0.29411,0.001 -0.86702,0.0485 -1.17761,-0.19921 -0.58205,-0.46417 -0.72836,-0.86329 -0.2099,-1.20556 0.50411,-0.33278 1.502,-0.24214 2.10959,-0.24688 0.98201,-0.008 2.01833,0.10627 2.22501,0.20466 z"
         sodipodi:nodetypes="ssssssss"
         transform="translate(4.795575,7.7059905)" /></g></g></svg>
