<?xml version="1.0" encoding="UTF-8" standalone="no"?>
<!-- Created with Inkscape (http://www.inkscape.org/) -->

<svg
   width="2560"
   height="1440"
   viewBox="0 0 2560 1440"
   version="1.1"
   id="svg1"
   xml:space="preserve"
   inkscape:version="1.4 (e7c3feb100, 2024-10-09)"
   sodipodi:docname="maquette.svg"
   inkscape:export-filename="maquette.png"
   inkscape:export-xdpi="96"
   inkscape:export-ydpi="96"
   xmlns:inkscape="http://www.inkscape.org/namespaces/inkscape"
   xmlns:sodipodi="http://sodipodi.sourceforge.net/DTD/sodipodi-0.dtd"
   xmlns="http://www.w3.org/2000/svg"
   xmlns:svg="http://www.w3.org/2000/svg"><sodipodi:namedview
     id="namedview1"
     pagecolor="#505050"
     bordercolor="#eeeeee"
     borderopacity="1"
     inkscape:showpageshadow="0"
     inkscape:pageopacity="0"
     inkscape:pagecheckerboard="0"
     inkscape:deskcolor="#505050"
     inkscape:document-units="px"
     showgrid="false"
     showguides="true"
     inkscape:zoom="1"
     inkscape:cx="1149.5"
     inkscape:cy="910"
     inkscape:window-width="2560"
     inkscape:window-height="1349"
     inkscape:window-x="2560"
     inkscape:window-y="91"
     inkscape:window-maximized="1"
     inkscape:current-layer="layer40"><inkscape:grid
       id="grid41"
       units="px"
       originx="1280"
       originy="720"
       spacingx="1"
       spacingy="1"
       empcolor="#0099e5"
       empopacity="0.30196078"
       color="#0099e5"
       opacity="0.14901961"
       empspacing="10"
       enabled="true"
       visible="false" /><sodipodi:guide
       position="1354.4644,1065"
       orientation="0,1"
       id="guide291"
       inkscape:locked="false"
       inkscape:label=""
       inkscape:color="rgb(0,134,229)" /><sodipodi:guide
       position="1550.2686,746"
       orientation="0,1"
       id="guide292"
       inkscape:locked="false"
       inkscape:label=""
       inkscape:color="rgb(0,134,229)" /><sodipodi:guide
       position="1830.6795,475"
       orientation="0,1"
       id="guide293"
       inkscape:locked="false"
       inkscape:label=""
       inkscape:color="rgb(0,134,229)" /><inkscape:page
       x="0"
       y="0"
       width="2560"
       height="1440"
       id="page2"
       margin="0"
       bleed="0" /></sodipodi:namedview><defs
     id="defs1" /><g
     inkscape:label="Background"
     inkscape:groupmode="layer"
     id="layer1"
     style="fill:none"
     sodipodi:insensitive="true"><rect
       style="fill:#333333;fill-opacity:1;stroke-width:0"
       id="rect1"
       width="2559.1013"
       height="1438.6517"
       x="1.0715624e-08"
       y="1.3483144" /></g><g
     inkscape:groupmode="layer"
     id="layer40"
     inkscape:label="Footer"><rect
       style="opacity:1;fill:#333333;fill-opacity:1;stroke:none;stroke-width:0;stroke-linecap:round;stroke-linejoin:round;stroke-dasharray:none;stroke-opacity:1"
       id="rect293"
       width="2561.6499"
       height="100.1"
       x="-2.548645"
       y="1339.9257" /><text
       xml:space="preserve"
       style="font-style:normal;font-variant:normal;font-weight:500;font-stretch:normal;font-size:18.6667px;font-family:Montserrat;-inkscape-font-specification:'Montserrat, Medium';font-variant-ligatures:normal;font-variant-caps:normal;font-variant-numeric:normal;font-variant-east-asian:normal;text-align:start;writing-mode:lr-tb;direction:ltr;text-anchor:start;opacity:1;fill:#d4d4d4;fill-opacity:1;stroke:none;stroke-width:0;stroke-linecap:round;stroke-linejoin:round;stroke-dasharray:none;stroke-opacity:1"
       x="1146.7322"
       y="1413"
       id="text294"><tspan
         sodipodi:role="line"
         id="tspan294"
         x="1146.7322"
         y="1413"
         style="fill:#a8333e;fill-opacity:1">Facebook: LesChatsTaffions</tspan></text><text
       xml:space="preserve"
       style="font-style:normal;font-variant:normal;font-weight:500;font-stretch:normal;font-size:32px;font-family:Montserrat;-inkscape-font-specification:'Montserrat, Medium';font-variant-ligatures:normal;font-variant-caps:normal;font-variant-numeric:normal;font-variant-east-asian:normal;text-align:start;writing-mode:lr-tb;direction:ltr;text-anchor:start;opacity:1;fill:#d4d4d4;fill-opacity:1;stroke:none;stroke-width:0;stroke-linecap:round;stroke-linejoin:round;stroke-dasharray:none;stroke-opacity:1"
       x="836.51978"
       y="1382.009"
       id="text293"><tspan
         sodipodi:role="line"
         id="tspan293"
         x="836.51978"
         y="1382.009"
         style="font-style:normal;font-variant:normal;font-weight:500;font-stretch:normal;font-size:18.6667px;font-family:Montserrat;-inkscape-font-specification:'Montserrat, Medium';font-variant-ligatures:normal;font-variant-caps:normal;font-variant-numeric:normal;font-variant-east-asian:normal">associationleschatstaffions@gmail.com | 06 35 97 84 06 | 10, rue de la chayère, 90710 Étueffont</tspan></text></g><g
     inkscape:groupmode="layer"
     id="layer2"
     inkscape:label="Content"><g
       inkscape:groupmode="layer"
       id="layer33"
       inkscape:label="Evenements"
       transform="translate(0.279248,264.04202)"><rect
         style="fill:#4a4a4a;fill-opacity:1;stroke:none;stroke-width:0;stroke-dasharray:none;stroke-opacity:1"
         id="rect290"
         width="1200.4417"
         height="150"
         x="680.74402"
         y="701.28046" /><text
         xml:space="preserve"
         style="font-style:normal;font-variant:normal;font-weight:500;font-stretch:normal;font-size:32px;font-family:Montserrat;-inkscape-font-specification:'Montserrat, Medium';font-variant-ligatures:normal;font-variant-caps:normal;font-variant-numeric:normal;font-variant-east-asian:normal;text-align:start;writing-mode:lr-tb;direction:ltr;text-anchor:start;fill:#d4d4d4;fill-opacity:1;stroke:none;stroke-width:1;stroke-dasharray:none;stroke-opacity:1"
         x="1177.7489"
         y="755.8465"
         id="text290"
         inkscape:label="NosChatsTxt"><tspan
           sodipodi:role="line"
           id="tspan290"
           x="1177.7489"
           y="755.8465"
           style="font-style:normal;font-variant:normal;font-weight:500;font-stretch:normal;font-size:32px;font-family:Montserrat;-inkscape-font-specification:'Montserrat, Medium';font-variant-ligatures:normal;font-variant-caps:normal;font-variant-numeric:normal;font-variant-east-asian:normal;fill:#d4d4d4;fill-opacity:1">Événements</tspan></text><text
         xml:space="preserve"
         style="font-style:normal;font-variant:normal;font-weight:500;font-stretch:normal;font-size:32px;font-family:Montserrat;-inkscape-font-specification:'Montserrat, Medium';font-variant-ligatures:normal;font-variant-caps:normal;font-variant-numeric:normal;font-variant-east-asian:normal;text-align:start;writing-mode:lr-tb;direction:ltr;text-anchor:start;opacity:1;fill:#666663;fill-opacity:1;stroke:none;stroke-width:0;stroke-linecap:round;stroke-linejoin:round;stroke-dasharray:none;stroke-opacity:1"
         x="1047.2592"
         y="820.7464"
         id="text291"><tspan
           sodipodi:role="line"
           id="tspan291"
           x="1047.2592"
           y="820.7464"
           style="fill:#d4d4d4;fill-opacity:1">Journée d’adoption le 20 mai</tspan></text></g><g
       inkscape:groupmode="layer"
       id="layer32"
       inkscape:label="Nos Chats"
       transform="translate(0,-10)"><rect
         style="fill:#4a4a4a;fill-opacity:1;stroke:#a8d5ba;stroke-width:0.558496;stroke-dasharray:none;stroke-opacity:1"
         id="rect286"
         width="1200.4417"
         height="249.4415"
         x="680.74402"
         y="705.29437" /><text
         xml:space="preserve"
         style="font-style:normal;font-variant:normal;font-weight:500;font-stretch:normal;font-size:21.3333px;font-family:Montserrat;-inkscape-font-specification:'Montserrat, Medium';font-variant-ligatures:normal;font-variant-caps:normal;font-variant-numeric:normal;font-variant-east-asian:normal;text-align:start;writing-mode:lr-tb;direction:ltr;text-anchor:start;fill:#d4d4d4;fill-opacity:1;stroke:none;stroke-width:1;stroke-dasharray:none;stroke-opacity:1"
         x="1182.14"
         y="750.46326"
         id="text286"
         inkscape:label="NosChatsTxt"><tspan
           sodipodi:role="line"
           id="tspan286"
           x="1182.14"
           y="750.46326"
           style="font-style:normal;font-variant:normal;font-weight:500;font-stretch:normal;font-size:32px;font-family:Montserrat;-inkscape-font-specification:'Montserrat, Medium';font-variant-ligatures:normal;font-variant-caps:normal;font-variant-numeric:normal;font-variant-east-asian:normal;fill:#d4d4d4;fill-opacity:1">Nos Chats</tspan></text><rect
         style="opacity:1;fill:#666663;fill-opacity:1;stroke:none;stroke-width:0;stroke-linecap:round;stroke-linejoin:round;stroke-dasharray:none;stroke-opacity:1"
         id="rect287"
         width="150"
         height="150"
         x="957.45135"
         y="778.86414" /><rect
         style="opacity:1;fill:#666663;fill-opacity:1;stroke:none;stroke-width:0;stroke-linecap:round;stroke-linejoin:round;stroke-dasharray:none;stroke-opacity:1"
         id="rect288"
         width="150"
         height="150"
         x="1190.34"
         y="778.86414" /><rect
         style="opacity:1;fill:#666663;fill-opacity:1;stroke:none;stroke-width:0;stroke-linecap:round;stroke-linejoin:round;stroke-dasharray:none;stroke-opacity:1"
         id="rect289"
         width="150"
         height="150"
         x="1413.9446"
         y="778.86414" /></g><g
       inkscape:groupmode="layer"
       id="layer27"
       inkscape:label="Hero"
       transform="translate(0,10)"><g
         inkscape:groupmode="layer"
         id="layer28"
         inkscape:label="Background"><rect
           style="fill:#4a4a4a;fill-opacity:1;stroke:#a8d5ba;stroke-width:0.611847;stroke-dasharray:none;stroke-opacity:1"
           id="rect2"
           width="1200.3882"
           height="299.38815"
           x="679.35657"
           y="364.39514" /><g
           id="g108"
           style="opacity:0.25;fill:#333333;fill-opacity:1"
           transform="matrix(-0.10204734,0.3182183,-0.37803792,-0.1212305,1362.1435,319.58535)"><path
             id="path104"
             style="display:inline;opacity:1;fill:#333333;fill-opacity:1;stroke:#000000;stroke-width:0;stroke-linecap:round;stroke-linejoin:round;stroke-opacity:0.811286"
             d="m 769.27519,450.04253 c -2.9876,1.88334 -3.92544,2.01423 -7.48676,2.68819 -1.64356,0.31084 -6.23663,-0.77931 -8.85833,-1.7559 -2.56753,-0.95583 -4.48495,-2.21694 -5.79325,-3.92766 -0.59725,-0.78043 -0.91142,-1.76223 -0.77598,-2.61371 0.33637,-2.10337 2.8566,-2.86171 6.28281,-3.2094 2.28733,-0.23202 3.90369,-0.40298 6.73975,-0.2076 3.52457,0.24312 6.69224,2.00313 7.92071,2.99582 5.72142,4.62327 2.90578,5.441 1.97105,6.03026 z" /><path
             id="path105"
             style="baseline-shift:baseline;display:inline;overflow:visible;opacity:1;vector-effect:none;fill:#333333;fill-opacity:1;stroke-width:11.0997;stroke-linecap:round;stroke-linejoin:round;enable-background:accumulate;stop-color:#000000;stop-opacity:1"
             d="m 746.29692,454.49384 c -0.0333,0.504 -0.0333,1.16598 -1.09903,1.56263 -1.98704,0.73602 -7.46123,1.40477 -12.58862,0.87146 -1.76156,-0.18318 -5.13415,-1.52689 -8.26574,-2.99992 -3.18276,-1.49702 -6.06278,-3.13259 -5.97109,-4.83165 0.17207,-3.18421 11.10092,-3.02257 16.34121,-2.16232 9.8791,1.62179 11.74824,5.37128 11.58283,7.56002 z" /><path
             id="path106"
             style="baseline-shift:baseline;display:inline;overflow:visible;opacity:1;vector-effect:none;fill:#333333;fill-opacity:1;stroke-width:10.7528;stroke-linecap:round;stroke-linejoin:round;enable-background:accumulate;stop-color:#000000;stop-opacity:1"
             d="m 741.11414,463.35573 c 0.83704,0.80929 1.96139,1.87402 0.71604,3.50003 -1.55086,2.02478 -6.58722,1.89168 -11.21904,1.70173 -2.2498,-0.0888 -6.68624,-0.59281 -10.755,-2.46816 -2.45651,-1.1319 -4.14003,-2.78656 -4.40591,-4.28513 -0.24423,-1.37857 3.15412,-2.12491 7.08744,-2.2941 2.28056,-0.0999 4.6951,0.0777 6.80247,0.22647 6.32045,0.43517 10.52321,2.40944 11.77422,3.61882 z" /><path
             id="path107"
             style="display:inline;opacity:1;fill:#333333;fill-opacity:1;stroke:#000000;stroke-width:0;stroke-linecap:round;stroke-linejoin:round;stroke-opacity:0.811286"
             d="m 798.10898,450.96849 c -0.11101,1.59227 -1.02021,3.63503 -3.4452,4.92024 -1.50734,0.7993 -3.57874,1.20561 -6.46354,1.33194 -6.68735,0.29308 -8.29572,-2.24814 -10.31173,-4.42467 -2.05075,-2.21417 -1.71504,-3.98672 1.17764,-5.37417 1.97304,-0.94695 5.07976,-1.03243 8.63586,-0.93696 6.7151,0.17985 10.59236,1.72127 10.40697,4.48407 z" /><path
             id="path108"
             style="display:inline;opacity:1;fill:#333333;fill-opacity:1;stroke:#000000;stroke-width:0;stroke-linecap:round;stroke-linejoin:round;stroke-opacity:0.811286"
             d="m 801.32349,463.68621 c 4.03268,1.46205 8.46102,5.02715 -6.57667,6.34299 -3.54522,0.31084 -4.00959,0.13544 -10.72525,1.15321 -5.86118,0.88811 -11.88556,2.79477 -22.06229,5.0902 -13.54599,3.05542 -13.75048,-6.24219 -13.78578,-8.38564 -0.15875,-9.64653 14.37016,-8.84823 29.1958,-9.00398 13.56243,-0.1421 21.56529,3.9371 23.95419,4.80322 z" /></g><g
           id="g192"
           style="opacity:0.25;fill:#333333;fill-opacity:1"
           transform="matrix(0.07286859,-0.33060864,-0.3902559,-0.06173125,1276.4974,814.84495)"><path
             id="path188"
             style="display:inline;opacity:1;fill:#333333;fill-opacity:1;stroke:#000000;stroke-width:0;stroke-linecap:round;stroke-linejoin:round;stroke-opacity:0.811286"
             d="m 769.27519,450.04253 c -2.9876,1.88334 -3.92544,2.01423 -7.48676,2.68819 -1.64356,0.31084 -6.23663,-0.77931 -8.85833,-1.7559 -2.56753,-0.95583 -4.48495,-2.21694 -5.79325,-3.92766 -0.59725,-0.78043 -0.91142,-1.76223 -0.77598,-2.61371 0.33637,-2.10337 2.8566,-2.86171 6.28281,-3.2094 2.28733,-0.23202 3.90369,-0.40298 6.73975,-0.2076 3.52457,0.24312 6.69224,2.00313 7.92071,2.99582 5.72142,4.62327 2.90578,5.441 1.97105,6.03026 z" /><path
             id="path189"
             style="baseline-shift:baseline;display:inline;overflow:visible;opacity:1;vector-effect:none;fill:#333333;fill-opacity:1;stroke-width:11.0997;stroke-linecap:round;stroke-linejoin:round;enable-background:accumulate;stop-color:#000000;stop-opacity:1"
             d="m 746.29692,454.49384 c -0.0333,0.504 -0.0333,1.16598 -1.09903,1.56263 -1.98704,0.73602 -7.46123,1.40477 -12.58862,0.87146 -1.76156,-0.18318 -5.13415,-1.52689 -8.26574,-2.99992 -3.18276,-1.49702 -6.06278,-3.13259 -5.97109,-4.83165 0.17207,-3.18421 11.10092,-3.02257 16.34121,-2.16232 9.8791,1.62179 11.74824,5.37128 11.58283,7.56002 z" /><path
             id="path190"
             style="baseline-shift:baseline;display:inline;overflow:visible;opacity:1;vector-effect:none;fill:#333333;fill-opacity:1;stroke-width:10.7528;stroke-linecap:round;stroke-linejoin:round;enable-background:accumulate;stop-color:#000000;stop-opacity:1"
             d="m 741.11414,463.35573 c 0.83704,0.80929 1.96139,1.87402 0.71604,3.50003 -1.55086,2.02478 -6.58722,1.89168 -11.21904,1.70173 -2.2498,-0.0888 -6.68624,-0.59281 -10.755,-2.46816 -2.45651,-1.1319 -4.14003,-2.78656 -4.40591,-4.28513 -0.24423,-1.37857 3.15412,-2.12491 7.08744,-2.2941 2.28056,-0.0999 4.6951,0.0777 6.80247,0.22647 6.32045,0.43517 10.52321,2.40944 11.77422,3.61882 z" /><path
             id="path191"
             style="display:inline;opacity:1;fill:#333333;fill-opacity:1;stroke:#000000;stroke-width:0;stroke-linecap:round;stroke-linejoin:round;stroke-opacity:0.811286"
             d="m 798.10898,450.96849 c -0.11101,1.59227 -1.02021,3.63503 -3.4452,4.92024 -1.50734,0.7993 -3.57874,1.20561 -6.46354,1.33194 -6.68735,0.29308 -8.29572,-2.24814 -10.31173,-4.42467 -2.05075,-2.21417 -1.71504,-3.98672 1.17764,-5.37417 1.97304,-0.94695 5.07976,-1.03243 8.63586,-0.93696 6.7151,0.17985 10.59236,1.72127 10.40697,4.48407 z" /><path
             id="path192"
             style="display:inline;opacity:1;fill:#333333;fill-opacity:1;stroke:#000000;stroke-width:0;stroke-linecap:round;stroke-linejoin:round;stroke-opacity:0.811286"
             d="m 801.32349,463.68621 c 4.03268,1.46205 8.46102,5.02715 -6.57667,6.34299 -3.54522,0.31084 -4.00959,0.13544 -10.72525,1.15321 -5.86118,0.88811 -11.88556,2.79477 -22.06229,5.0902 -13.54599,3.05542 -13.75048,-6.24219 -13.78578,-8.38564 -0.15875,-9.64653 14.37016,-8.84823 29.1958,-9.00398 13.56243,-0.1421 21.56529,3.9371 23.95419,4.80322 z" /></g><g
           id="g217"
           style="opacity:0.25;fill:#333333;fill-opacity:1"
           transform="matrix(0.33667095,0.05322721,-0.04554986,0.39341627,1034.3436,275.84056)"><path
             id="path213"
             style="display:inline;opacity:1;fill:#333333;fill-opacity:1;stroke:#000000;stroke-width:0;stroke-linecap:round;stroke-linejoin:round;stroke-opacity:0.811286"
             d="m 769.27519,450.04253 c -2.9876,1.88334 -3.92544,2.01423 -7.48676,2.68819 -1.64356,0.31084 -6.23663,-0.77931 -8.85833,-1.7559 -2.56753,-0.95583 -4.48495,-2.21694 -5.79325,-3.92766 -0.59725,-0.78043 -0.91142,-1.76223 -0.77598,-2.61371 0.33637,-2.10337 2.8566,-2.86171 6.28281,-3.2094 2.28733,-0.23202 3.90369,-0.40298 6.73975,-0.2076 3.52457,0.24312 6.69224,2.00313 7.92071,2.99582 5.72142,4.62327 2.90578,5.441 1.97105,6.03026 z" /><path
             id="path214"
             style="baseline-shift:baseline;display:inline;overflow:visible;opacity:1;vector-effect:none;fill:#333333;fill-opacity:1;stroke-width:11.0997;stroke-linecap:round;stroke-linejoin:round;enable-background:accumulate;stop-color:#000000;stop-opacity:1"
             d="m 746.29692,454.49384 c -0.0333,0.504 -0.0333,1.16598 -1.09903,1.56263 -1.98704,0.73602 -7.46123,1.40477 -12.58862,0.87146 -1.76156,-0.18318 -5.13415,-1.52689 -8.26574,-2.99992 -3.18276,-1.49702 -6.06278,-3.13259 -5.97109,-4.83165 0.17207,-3.18421 11.10092,-3.02257 16.34121,-2.16232 9.8791,1.62179 11.74824,5.37128 11.58283,7.56002 z" /><path
             id="path215"
             style="baseline-shift:baseline;display:inline;overflow:visible;opacity:1;vector-effect:none;fill:#333333;fill-opacity:1;stroke-width:10.7528;stroke-linecap:round;stroke-linejoin:round;enable-background:accumulate;stop-color:#000000;stop-opacity:1"
             d="m 741.11414,463.35573 c 0.83704,0.80929 1.96139,1.87402 0.71604,3.50003 -1.55086,2.02478 -6.58722,1.89168 -11.21904,1.70173 -2.2498,-0.0888 -6.68624,-0.59281 -10.755,-2.46816 -2.45651,-1.1319 -4.14003,-2.78656 -4.40591,-4.28513 -0.24423,-1.37857 3.15412,-2.12491 7.08744,-2.2941 2.28056,-0.0999 4.6951,0.0777 6.80247,0.22647 6.32045,0.43517 10.52321,2.40944 11.77422,3.61882 z" /><path
             id="path216"
             style="display:inline;opacity:1;fill:#333333;fill-opacity:1;stroke:#000000;stroke-width:0;stroke-linecap:round;stroke-linejoin:round;stroke-opacity:0.811286"
             d="m 798.10898,450.96849 c -0.11101,1.59227 -1.02021,3.63503 -3.4452,4.92024 -1.50734,0.7993 -3.57874,1.20561 -6.46354,1.33194 -6.68735,0.29308 -8.29572,-2.24814 -10.31173,-4.42467 -2.05075,-2.21417 -1.71504,-3.98672 1.17764,-5.37417 1.97304,-0.94695 5.07976,-1.03243 8.63586,-0.93696 6.7151,0.17985 10.59236,1.72127 10.40697,4.48407 z" /><path
             id="path217"
             style="display:inline;opacity:1;fill:#333333;fill-opacity:1;stroke:#000000;stroke-width:0;stroke-linecap:round;stroke-linejoin:round;stroke-opacity:0.811286"
             d="m 801.32349,463.68621 c 4.03268,1.46205 8.46102,5.02715 -6.57667,6.34299 -3.54522,0.31084 -4.00959,0.13544 -10.72525,1.15321 -5.86118,0.88811 -11.88556,2.79477 -22.06229,5.0902 -13.54599,3.05542 -13.75048,-6.24219 -13.78578,-8.38564 -0.15875,-9.64653 14.37016,-8.84823 29.1958,-9.00398 13.56243,-0.1421 21.56529,3.9371 23.95419,4.80322 z" /></g><g
           id="g246"
           style="opacity:0.25;fill:#333333;fill-opacity:1"
           transform="matrix(-0.07564748,0.33018309,-0.3789967,-0.1114742,1364.0831,320.51922)"><path
             id="path242"
             style="display:inline;opacity:1;fill:#333333;fill-opacity:1;stroke:#000000;stroke-width:0;stroke-linecap:round;stroke-linejoin:round;stroke-opacity:0.811286"
             d="m 769.27519,450.04253 c -2.9876,1.88334 -3.92544,2.01423 -7.48676,2.68819 -1.64356,0.31084 -6.23663,-0.77931 -8.85833,-1.7559 -2.56753,-0.95583 -4.48495,-2.21694 -5.79325,-3.92766 -0.59725,-0.78043 -0.91142,-1.76223 -0.77598,-2.61371 0.33637,-2.10337 2.8566,-2.86171 6.28281,-3.2094 2.28733,-0.23202 3.90369,-0.40298 6.73975,-0.2076 3.52457,0.24312 6.69224,2.00313 7.92071,2.99582 5.72142,4.62327 2.90578,5.441 1.97105,6.03026 z" /><path
             id="path243"
             style="baseline-shift:baseline;display:inline;overflow:visible;opacity:1;vector-effect:none;fill:#333333;fill-opacity:1;stroke-width:11.0997;stroke-linecap:round;stroke-linejoin:round;enable-background:accumulate;stop-color:#000000;stop-opacity:1"
             d="m 746.29692,454.49384 c -0.0333,0.504 -0.0333,1.16598 -1.09903,1.56263 -1.98704,0.73602 -7.46123,1.40477 -12.58862,0.87146 -1.76156,-0.18318 -5.13415,-1.52689 -8.26574,-2.99992 -3.18276,-1.49702 -6.06278,-3.13259 -5.97109,-4.83165 0.17207,-3.18421 11.10092,-3.02257 16.34121,-2.16232 9.8791,1.62179 11.74824,5.37128 11.58283,7.56002 z" /><path
             id="path244"
             style="baseline-shift:baseline;display:inline;overflow:visible;opacity:1;vector-effect:none;fill:#333333;fill-opacity:1;stroke-width:10.7528;stroke-linecap:round;stroke-linejoin:round;enable-background:accumulate;stop-color:#000000;stop-opacity:1"
             d="m 741.11414,463.35573 c 0.83704,0.80929 1.96139,1.87402 0.71604,3.50003 -1.55086,2.02478 -6.58722,1.89168 -11.21904,1.70173 -2.2498,-0.0888 -6.68624,-0.59281 -10.755,-2.46816 -2.45651,-1.1319 -4.14003,-2.78656 -4.40591,-4.28513 -0.24423,-1.37857 3.15412,-2.12491 7.08744,-2.2941 2.28056,-0.0999 4.6951,0.0777 6.80247,0.22647 6.32045,0.43517 10.52321,2.40944 11.77422,3.61882 z" /><path
             id="path245"
             style="display:inline;opacity:1;fill:#333333;fill-opacity:1;stroke:#000000;stroke-width:0;stroke-linecap:round;stroke-linejoin:round;stroke-opacity:0.811286"
             d="m 798.10898,450.96849 c -0.11101,1.59227 -1.02021,3.63503 -3.4452,4.92024 -1.50734,0.7993 -3.57874,1.20561 -6.46354,1.33194 -6.68735,0.29308 -8.29572,-2.24814 -10.31173,-4.42467 -2.05075,-2.21417 -1.71504,-3.98672 1.17764,-5.37417 1.97304,-0.94695 5.07976,-1.03243 8.63586,-0.93696 6.7151,0.17985 10.59236,1.72127 10.40697,4.48407 z" /><path
             id="path246"
             style="display:inline;opacity:1;fill:#333333;fill-opacity:1;stroke:#000000;stroke-width:0;stroke-linecap:round;stroke-linejoin:round;stroke-opacity:0.811286"
             d="m 801.32349,463.68621 c 4.03268,1.46205 8.46102,5.02715 -6.57667,6.34299 -3.54522,0.31084 -4.00959,0.13544 -10.72525,1.15321 -5.86118,0.88811 -11.88556,2.79477 -22.06229,5.0902 -13.54599,3.05542 -13.75048,-6.24219 -13.78578,-8.38564 -0.15875,-9.64653 14.37016,-8.84823 29.1958,-9.00398 13.56243,-0.1421 21.56529,3.9371 23.95419,4.80322 z" /></g><g
           id="g256"
           style="opacity:0.25;fill:#333333;fill-opacity:1"
           transform="matrix(-0.04423474,-0.33564146,0.39411324,-0.02802092,1259.9699,803.07727)"><path
             id="path252"
             style="display:inline;opacity:1;fill:#333333;fill-opacity:1;stroke:#000000;stroke-width:0;stroke-linecap:round;stroke-linejoin:round;stroke-opacity:0.811286"
             d="m 769.27519,450.04253 c -2.9876,1.88334 -3.92544,2.01423 -7.48676,2.68819 -1.64356,0.31084 -6.23663,-0.77931 -8.85833,-1.7559 -2.56753,-0.95583 -4.48495,-2.21694 -5.79325,-3.92766 -0.59725,-0.78043 -0.91142,-1.76223 -0.77598,-2.61371 0.33637,-2.10337 2.8566,-2.86171 6.28281,-3.2094 2.28733,-0.23202 3.90369,-0.40298 6.73975,-0.2076 3.52457,0.24312 6.69224,2.00313 7.92071,2.99582 5.72142,4.62327 2.90578,5.441 1.97105,6.03026 z" /><path
             id="path253"
             style="baseline-shift:baseline;display:inline;overflow:visible;opacity:1;vector-effect:none;fill:#333333;fill-opacity:1;stroke-width:11.0997;stroke-linecap:round;stroke-linejoin:round;enable-background:accumulate;stop-color:#000000;stop-opacity:1"
             d="m 746.29692,454.49384 c -0.0333,0.504 -0.0333,1.16598 -1.09903,1.56263 -1.98704,0.73602 -7.46123,1.40477 -12.58862,0.87146 -1.76156,-0.18318 -5.13415,-1.52689 -8.26574,-2.99992 -3.18276,-1.49702 -6.06278,-3.13259 -5.97109,-4.83165 0.17207,-3.18421 11.10092,-3.02257 16.34121,-2.16232 9.8791,1.62179 11.74824,5.37128 11.58283,7.56002 z" /><path
             id="path254"
             style="baseline-shift:baseline;display:inline;overflow:visible;opacity:1;vector-effect:none;fill:#333333;fill-opacity:1;stroke-width:10.7528;stroke-linecap:round;stroke-linejoin:round;enable-background:accumulate;stop-color:#000000;stop-opacity:1"
             d="m 741.11414,463.35573 c 0.83704,0.80929 1.96139,1.87402 0.71604,3.50003 -1.55086,2.02478 -6.58722,1.89168 -11.21904,1.70173 -2.2498,-0.0888 -6.68624,-0.59281 -10.755,-2.46816 -2.45651,-1.1319 -4.14003,-2.78656 -4.40591,-4.28513 -0.24423,-1.37857 3.15412,-2.12491 7.08744,-2.2941 2.28056,-0.0999 4.6951,0.0777 6.80247,0.22647 6.32045,0.43517 10.52321,2.40944 11.77422,3.61882 z" /><path
             id="path255"
             style="display:inline;opacity:1;fill:#333333;fill-opacity:1;stroke:#000000;stroke-width:0;stroke-linecap:round;stroke-linejoin:round;stroke-opacity:0.811286"
             d="m 798.10898,450.96849 c -0.11101,1.59227 -1.02021,3.63503 -3.4452,4.92024 -1.50734,0.7993 -3.57874,1.20561 -6.46354,1.33194 -6.68735,0.29308 -8.29572,-2.24814 -10.31173,-4.42467 -2.05075,-2.21417 -1.71504,-3.98672 1.17764,-5.37417 1.97304,-0.94695 5.07976,-1.03243 8.63586,-0.93696 6.7151,0.17985 10.59236,1.72127 10.40697,4.48407 z" /><path
             id="path256"
             style="display:inline;opacity:1;fill:#333333;fill-opacity:1;stroke:#000000;stroke-width:0;stroke-linecap:round;stroke-linejoin:round;stroke-opacity:0.811286"
             d="m 801.32349,463.68621 c 4.03268,1.46205 8.46102,5.02715 -6.57667,6.34299 -3.54522,0.31084 -4.00959,0.13544 -10.72525,1.15321 -5.86118,0.88811 -11.88556,2.79477 -22.06229,5.0902 -13.54599,3.05542 -13.75048,-6.24219 -13.78578,-8.38564 -0.15875,-9.64653 14.37016,-8.84823 29.1958,-9.00398 13.56243,-0.1421 21.56529,3.9371 23.95419,4.80322 z" /></g><g
           id="g266"
           style="opacity:0.25;fill:#333333;fill-opacity:1"
           transform="matrix(0.33667095,-0.05322721,-0.04554986,-0.39341627,1062.5998,822.02454)"><path
             id="path262"
             style="display:inline;opacity:1;fill:#333333;fill-opacity:1;stroke:#000000;stroke-width:0;stroke-linecap:round;stroke-linejoin:round;stroke-opacity:0.811286"
             d="m 769.27519,450.04253 c -2.9876,1.88334 -3.92544,2.01423 -7.48676,2.68819 -1.64356,0.31084 -6.23663,-0.77931 -8.85833,-1.7559 -2.56753,-0.95583 -4.48495,-2.21694 -5.79325,-3.92766 -0.59725,-0.78043 -0.91142,-1.76223 -0.77598,-2.61371 0.33637,-2.10337 2.8566,-2.86171 6.28281,-3.2094 2.28733,-0.23202 3.90369,-0.40298 6.73975,-0.2076 3.52457,0.24312 6.69224,2.00313 7.92071,2.99582 5.72142,4.62327 2.90578,5.441 1.97105,6.03026 z" /><path
             id="path263"
             style="baseline-shift:baseline;display:inline;overflow:visible;opacity:1;vector-effect:none;fill:#333333;fill-opacity:1;stroke-width:11.0997;stroke-linecap:round;stroke-linejoin:round;enable-background:accumulate;stop-color:#000000;stop-opacity:1"
             d="m 746.29692,454.49384 c -0.0333,0.504 -0.0333,1.16598 -1.09903,1.56263 -1.98704,0.73602 -7.46123,1.40477 -12.58862,0.87146 -1.76156,-0.18318 -5.13415,-1.52689 -8.26574,-2.99992 -3.18276,-1.49702 -6.06278,-3.13259 -5.97109,-4.83165 0.17207,-3.18421 11.10092,-3.02257 16.34121,-2.16232 9.8791,1.62179 11.74824,5.37128 11.58283,7.56002 z" /><path
             id="path264"
             style="baseline-shift:baseline;display:inline;overflow:visible;opacity:1;vector-effect:none;fill:#333333;fill-opacity:1;stroke-width:10.7528;stroke-linecap:round;stroke-linejoin:round;enable-background:accumulate;stop-color:#000000;stop-opacity:1"
             d="m 741.11414,463.35573 c 0.83704,0.80929 1.96139,1.87402 0.71604,3.50003 -1.55086,2.02478 -6.58722,1.89168 -11.21904,1.70173 -2.2498,-0.0888 -6.68624,-0.59281 -10.755,-2.46816 -2.45651,-1.1319 -4.14003,-2.78656 -4.40591,-4.28513 -0.24423,-1.37857 3.15412,-2.12491 7.08744,-2.2941 2.28056,-0.0999 4.6951,0.0777 6.80247,0.22647 6.32045,0.43517 10.52321,2.40944 11.77422,3.61882 z" /><path
             id="path265"
             style="display:inline;opacity:1;fill:#333333;fill-opacity:1;stroke:#000000;stroke-width:0;stroke-linecap:round;stroke-linejoin:round;stroke-opacity:0.811286"
             d="m 798.10898,450.96849 c -0.11101,1.59227 -1.02021,3.63503 -3.4452,4.92024 -1.50734,0.7993 -3.57874,1.20561 -6.46354,1.33194 -6.68735,0.29308 -8.29572,-2.24814 -10.31173,-4.42467 -2.05075,-2.21417 -1.71504,-3.98672 1.17764,-5.37417 1.97304,-0.94695 5.07976,-1.03243 8.63586,-0.93696 6.7151,0.17985 10.59236,1.72127 10.40697,4.48407 z" /><path
             id="path266"
             style="display:inline;opacity:1;fill:#333333;fill-opacity:1;stroke:#000000;stroke-width:0;stroke-linecap:round;stroke-linejoin:round;stroke-opacity:0.811286"
             d="m 801.32349,463.68621 c 4.03268,1.46205 8.46102,5.02715 -6.57667,6.34299 -3.54522,0.31084 -4.00959,0.13544 -10.72525,1.15321 -5.86118,0.88811 -11.88556,2.79477 -22.06229,5.0902 -13.54599,3.05542 -13.75048,-6.24219 -13.78578,-8.38564 -0.15875,-9.64653 14.37016,-8.84823 29.1958,-9.00398 13.56243,-0.1421 21.56529,3.9371 23.95419,4.80322 z" /></g><g
           id="g280"
           style="opacity:0.25;fill:#333333;fill-opacity:1"
           transform="matrix(-0.12080886,-0.31625484,0.37689225,-0.11858603,1347.555,815.31631)"><path
             id="path276"
             style="display:inline;opacity:1;fill:#333333;fill-opacity:1;stroke:#000000;stroke-width:0;stroke-linecap:round;stroke-linejoin:round;stroke-opacity:0.811286"
             d="m 769.27519,450.04253 c -2.9876,1.88334 -3.92544,2.01423 -7.48676,2.68819 -1.64356,0.31084 -6.23663,-0.77931 -8.85833,-1.7559 -2.56753,-0.95583 -4.48495,-2.21694 -5.79325,-3.92766 -0.59725,-0.78043 -0.91142,-1.76223 -0.77598,-2.61371 0.33637,-2.10337 2.8566,-2.86171 6.28281,-3.2094 2.28733,-0.23202 3.90369,-0.40298 6.73975,-0.2076 3.52457,0.24312 6.69224,2.00313 7.92071,2.99582 5.72142,4.62327 2.90578,5.441 1.97105,6.03026 z" /><path
             id="path277"
             style="baseline-shift:baseline;display:inline;overflow:visible;opacity:1;vector-effect:none;fill:#333333;fill-opacity:1;stroke-width:11.0997;stroke-linecap:round;stroke-linejoin:round;enable-background:accumulate;stop-color:#000000;stop-opacity:1"
             d="m 746.29692,454.49384 c -0.0333,0.504 -0.0333,1.16598 -1.09903,1.56263 -1.98704,0.73602 -7.46123,1.40477 -12.58862,0.87146 -1.76156,-0.18318 -5.13415,-1.52689 -8.26574,-2.99992 -3.18276,-1.49702 -6.06278,-3.13259 -5.97109,-4.83165 0.17207,-3.18421 11.10092,-3.02257 16.34121,-2.16232 9.8791,1.62179 11.74824,5.37128 11.58283,7.56002 z" /><path
             id="path278"
             style="baseline-shift:baseline;display:inline;overflow:visible;opacity:1;vector-effect:none;fill:#333333;fill-opacity:1;stroke-width:10.7528;stroke-linecap:round;stroke-linejoin:round;enable-background:accumulate;stop-color:#000000;stop-opacity:1"
             d="m 741.11414,463.35573 c 0.83704,0.80929 1.96139,1.87402 0.71604,3.50003 -1.55086,2.02478 -6.58722,1.89168 -11.21904,1.70173 -2.2498,-0.0888 -6.68624,-0.59281 -10.755,-2.46816 -2.45651,-1.1319 -4.14003,-2.78656 -4.40591,-4.28513 -0.24423,-1.37857 3.15412,-2.12491 7.08744,-2.2941 2.28056,-0.0999 4.6951,0.0777 6.80247,0.22647 6.32045,0.43517 10.52321,2.40944 11.77422,3.61882 z" /><path
             id="path279"
             style="display:inline;opacity:1;fill:#333333;fill-opacity:1;stroke:#000000;stroke-width:0;stroke-linecap:round;stroke-linejoin:round;stroke-opacity:0.811286"
             d="m 798.10898,450.96849 c -0.11101,1.59227 -1.02021,3.63503 -3.4452,4.92024 -1.50734,0.7993 -3.57874,1.20561 -6.46354,1.33194 -6.68735,0.29308 -8.29572,-2.24814 -10.31173,-4.42467 -2.05075,-2.21417 -1.71504,-3.98672 1.17764,-5.37417 1.97304,-0.94695 5.07976,-1.03243 8.63586,-0.93696 6.7151,0.17985 10.59236,1.72127 10.40697,4.48407 z" /><path
             id="path280"
             style="display:inline;opacity:1;fill:#333333;fill-opacity:1;stroke:#000000;stroke-width:0;stroke-linecap:round;stroke-linejoin:round;stroke-opacity:0.811286"
             d="m 801.32349,463.68621 c 4.03268,1.46205 8.46102,5.02715 -6.57667,6.34299 -3.54522,0.31084 -4.00959,0.13544 -10.72525,1.15321 -5.86118,0.88811 -11.88556,2.79477 -22.06229,5.0902 -13.54599,3.05542 -13.75048,-6.24219 -13.78578,-8.38564 -0.15875,-9.64653 14.37016,-8.84823 29.1958,-9.00398 13.56243,-0.1421 21.56529,3.9371 23.95419,4.80322 z" /></g><g
           id="g285"
           style="opacity:0.25;fill:#333333;fill-opacity:1"
           transform="matrix(-0.03893649,-0.33629727,0.3945061,-0.02180263,1295.7403,770.94077)"><path
             id="path281"
             style="display:inline;opacity:1;fill:#333333;fill-opacity:1;stroke:#000000;stroke-width:0;stroke-linecap:round;stroke-linejoin:round;stroke-opacity:0.811286"
             d="m 769.27519,450.04253 c -2.9876,1.88334 -3.92544,2.01423 -7.48676,2.68819 -1.64356,0.31084 -6.23663,-0.77931 -8.85833,-1.7559 -2.56753,-0.95583 -4.48495,-2.21694 -5.79325,-3.92766 -0.59725,-0.78043 -0.91142,-1.76223 -0.77598,-2.61371 0.33637,-2.10337 2.8566,-2.86171 6.28281,-3.2094 2.28733,-0.23202 3.90369,-0.40298 6.73975,-0.2076 3.52457,0.24312 6.69224,2.00313 7.92071,2.99582 5.72142,4.62327 2.90578,5.441 1.97105,6.03026 z" /><path
             id="path282"
             style="baseline-shift:baseline;display:inline;overflow:visible;opacity:1;vector-effect:none;fill:#333333;fill-opacity:1;stroke-width:11.0997;stroke-linecap:round;stroke-linejoin:round;enable-background:accumulate;stop-color:#000000;stop-opacity:1"
             d="m 746.29692,454.49384 c -0.0333,0.504 -0.0333,1.16598 -1.09903,1.56263 -1.98704,0.73602 -7.46123,1.40477 -12.58862,0.87146 -1.76156,-0.18318 -5.13415,-1.52689 -8.26574,-2.99992 -3.18276,-1.49702 -6.06278,-3.13259 -5.97109,-4.83165 0.17207,-3.18421 11.10092,-3.02257 16.34121,-2.16232 9.8791,1.62179 11.74824,5.37128 11.58283,7.56002 z" /><path
             id="path283"
             style="baseline-shift:baseline;display:inline;overflow:visible;opacity:1;vector-effect:none;fill:#333333;fill-opacity:1;stroke-width:10.7528;stroke-linecap:round;stroke-linejoin:round;enable-background:accumulate;stop-color:#000000;stop-opacity:1"
             d="m 741.11414,463.35573 c 0.83704,0.80929 1.96139,1.87402 0.71604,3.50003 -1.55086,2.02478 -6.58722,1.89168 -11.21904,1.70173 -2.2498,-0.0888 -6.68624,-0.59281 -10.755,-2.46816 -2.45651,-1.1319 -4.14003,-2.78656 -4.40591,-4.28513 -0.24423,-1.37857 3.15412,-2.12491 7.08744,-2.2941 2.28056,-0.0999 4.6951,0.0777 6.80247,0.22647 6.32045,0.43517 10.52321,2.40944 11.77422,3.61882 z" /><path
             id="path284"
             style="display:inline;opacity:1;fill:#333333;fill-opacity:1;stroke:#000000;stroke-width:0;stroke-linecap:round;stroke-linejoin:round;stroke-opacity:0.811286"
             d="m 798.10898,450.96849 c -0.11101,1.59227 -1.02021,3.63503 -3.4452,4.92024 -1.50734,0.7993 -3.57874,1.20561 -6.46354,1.33194 -6.68735,0.29308 -8.29572,-2.24814 -10.31173,-4.42467 -2.05075,-2.21417 -1.71504,-3.98672 1.17764,-5.37417 1.97304,-0.94695 5.07976,-1.03243 8.63586,-0.93696 6.7151,0.17985 10.59236,1.72127 10.40697,4.48407 z" /><path
             id="path285"
             style="display:inline;opacity:1;fill:#333333;fill-opacity:1;stroke:#000000;stroke-width:0;stroke-linecap:round;stroke-linejoin:round;stroke-opacity:0.811286"
             d="m 801.32349,463.68621 c 4.03268,1.46205 8.46102,5.02715 -6.57667,6.34299 -3.54522,0.31084 -4.00959,0.13544 -10.72525,1.15321 -5.86118,0.88811 -11.88556,2.79477 -22.06229,5.0902 -13.54599,3.05542 -13.75048,-6.24219 -13.78578,-8.38564 -0.15875,-9.64653 14.37016,-8.84823 29.1958,-9.00398 13.56243,-0.1421 21.56529,3.9371 23.95419,4.80322 z" /></g></g><text
         xml:space="preserve"
         style="font-style:normal;font-variant:normal;font-weight:500;font-stretch:normal;font-size:21.3333px;font-family:Montserrat;-inkscape-font-specification:'Montserrat, Medium';font-variant-ligatures:normal;font-variant-caps:normal;font-variant-numeric:normal;font-variant-east-asian:normal;text-align:start;writing-mode:lr-tb;direction:ltr;text-anchor:start;fill:#d4d4d4;fill-opacity:1;stroke:none;stroke-width:1;stroke-dasharray:none;stroke-opacity:1"
         x="1034.1245"
         y="457.54523"
         id="text64"
         inkscape:label="heroText"><tspan
           sodipodi:role="line"
           id="tspan64"
           x="1034.1245"
           y="457.54523"
           style="font-style:normal;font-variant:normal;font-weight:800;font-stretch:normal;font-size:37.3333px;font-family:Montserrat;-inkscape-font-specification:'Montserrat, Ultra-Bold';font-variant-ligatures:normal;font-variant-caps:normal;font-variant-numeric:normal;font-variant-east-asian:normal;fill:#d4d4d4;fill-opacity:1">Aidez nos félins des rues</tspan></text><rect
         style="fill:#357862;fill-opacity:1;stroke:none;stroke-width:0;stroke-linecap:round;stroke-linejoin:round;stroke-dasharray:none;stroke-opacity:1"
         id="rect64"
         width="200"
         height="50"
         x="1179.7217"
         y="524.11603"
         rx="10"
         ry="10" /><text
         xml:space="preserve"
         style="font-style:normal;font-variant:normal;font-weight:800;font-stretch:normal;font-size:37.3333px;font-family:Montserrat;-inkscape-font-specification:'Montserrat, Ultra-Bold';font-variant-ligatures:normal;font-variant-caps:normal;font-variant-numeric:normal;font-variant-east-asian:normal;text-align:start;writing-mode:lr-tb;direction:ltr;text-anchor:start;fill:#e8ecef;fill-opacity:1;stroke:none;stroke-width:0;stroke-linecap:round;stroke-linejoin:round;stroke-dasharray:none;stroke-opacity:1"
         x="1225.9512"
         y="555.12134"
         id="text65"><tspan
           sodipodi:role="line"
           id="tspan65"
           x="1225.9512"
           y="555.12134"
           style="font-style:normal;font-variant:normal;font-weight:500;font-stretch:normal;font-size:21.3333px;font-family:Montserrat;-inkscape-font-specification:'Montserrat, Medium';font-variant-ligatures:normal;font-variant-caps:normal;font-variant-numeric:normal;font-variant-east-asian:normal">Participer</tspan></text><g
         inkscape:groupmode="layer"
         id="layer25"
         inkscape:label="button"
         transform="translate(23.971682,-321.88397)"><rect
           style="fill:#357862;fill-opacity:1;stroke:none;stroke-width:0;stroke-linecap:round;stroke-linejoin:round;stroke-dasharray:none;stroke-opacity:1"
           id="rect108"
           width="200"
           height="50"
           x="1155.75"
           y="846"
           rx="10"
           ry="10" /><text
           xml:space="preserve"
           style="font-style:normal;font-variant:normal;font-weight:800;font-stretch:normal;font-size:37.3333px;font-family:Montserrat;-inkscape-font-specification:'Montserrat, Ultra-Bold';font-variant-ligatures:normal;font-variant-caps:normal;font-variant-numeric:normal;font-variant-east-asian:normal;text-align:start;writing-mode:lr-tb;direction:ltr;text-anchor:start;fill:#e8ecef;fill-opacity:1;stroke:none;stroke-width:0;stroke-linecap:round;stroke-linejoin:round;stroke-dasharray:none;stroke-opacity:1"
           x="1201.9795"
           y="877.00531"
           id="text108"><tspan
             sodipodi:role="line"
             id="tspan108"
             x="1201.9795"
             y="877.00531"
             style="font-style:normal;font-variant:normal;font-weight:500;font-stretch:normal;font-size:21.3333px;font-family:Montserrat;-inkscape-font-specification:'Montserrat, Medium';font-variant-ligatures:normal;font-variant-caps:normal;font-variant-numeric:normal;font-variant-east-asian:normal">Participer</tspan></text></g></g></g><g
     inkscape:groupmode="layer"
     id="layer3"
     inkscape:label="Header"
     transform="translate(-1.4008794e-6,-44.173695)"><g
       id="g41"
       style="display:inline"
       transform="matrix(11.101363,0,0,11.101363,-610.80148,-1727.4566)"
       inkscape:label="logo"><g
         id="g21"
         style="display:inline;opacity:1;fill:#000000"><path
           style="display:inline;opacity:1;fill:#000000;stroke-width:0.264999"
           d="m 156.23724,163.88936 c -0.93345,-0.20618 -1.46138,-0.44158 -2.85044,-0.45811 -1.38906,-0.0165 -0.81442,1.00045 -0.69867,1.40973 0.11576,0.40928 0.6813,1.44902 1.03835,1.73757 0.31419,0.25391 0.63003,0.40989 1.01864,0.41816 0.10213,-0.0242 0.48766,-0.006 -0.0735,-0.51758 -0.63418,-0.5778 -0.90948,-1.48374 -1.10983,-1.93807 -0.11114,-0.25204 -0.14266,-0.60689 0.003,-0.69594 0.17444,-0.10627 1.19461,0.041 1.19461,0.041 0,0 1.59037,0.27919 2.06196,0.41039 0.53852,0.14983 2.23965,0.69485 2.45876,0.7858 0.21911,0.0909 0.19711,-0.0826 -0.0233,-0.18675 -0.13244,-0.0626 -0.35729,-0.17387 -0.78072,-0.33387 -0.42344,-0.16 -1.3058,-0.46613 -2.23925,-0.6723 z"
           id="path14" /><path
           style="display:inline;opacity:1;fill:#000000;stroke-width:0.264999"
           d="m 151.071,165.00635 c 0,0 0.40926,0.97052 0.74251,1.3564 0.33325,0.38587 0.6665,0.66066 0.87698,0.73082 0.21047,0.0702 0.56711,0.14031 0.78343,0.11108 0.21632,-0.0292 0.43848,-0.0409 0.15786,-0.36833 -0.82673,-0.81912 -1.1327,-1.48967 -1.57272,-2.55493 -0.22217,-0.53788 -0.57288,-1.35754 -0.16374,-1.32716 1.28179,0.0952 3.20896,0.447 3.97564,0.63143 1.23946,0.29817 1.80364,0.46773 2.09597,0.58174 0.29233,0.114 0.93876,0.30142 1.31839,0.49716 0.41933,0.21621 0.38966,0.0916 0.28046,-0.0353 -0.27058,-0.22606 -0.58247,-0.37153 -0.734,-0.43806 -0.14974,-0.0657 -0.65437,-0.29568 -1.20394,-0.47399 -0.54958,-0.17832 -2.43801,-0.78344 -3.76809,-1.00561 -1.33008,-0.22217 -1.9732,-0.26017 -2.55201,-0.17247 -0.58314,0.0883 -0.75128,0.34494 -0.7162,0.86236 0.0223,0.60095 0.25917,1.05814 0.47946,1.60483 z"
           id="path21" /></g><g
         id="g23"
         style="display:inline;fill:#000000"><path
           style="display:inline;fill:#000000;stroke-width:0.264999"
           d="m 182.63278,164.76927 c 0,0 2.53421,-0.88884 3.92327,-0.90537 1.38906,-0.0165 0.81442,1.00045 0.69867,1.40973 -0.11576,0.40928 -0.41755,0.8723 -0.64079,1.16169 -0.22324,0.28938 -0.38447,0.47128 -0.77308,0.47955 -0.38861,0.008 -0.7152,0.0909 -0.12816,-0.59944 0.58705,-0.6904 1.02113,-1.57923 1.00459,-1.85622 -0.0165,-0.27699 0.0248,-0.20671 -0.11162,-0.31006 -0.13643,-0.10335 -1.00459,0.11989 -1.00459,0.11989 0,0 -1.72806,0.33073 -2.19935,0.46302 -0.47129,0.13229 -1.14928,0.37621 -1.36839,0.46716 -0.21911,0.0909 -0.19017,-0.0207 -0.11989,-0.0786 0.0703,-0.0579 0.71934,-0.3514 0.71934,-0.3514 z"
           id="path22" /><path
           style="display:inline;fill:#000000;stroke-width:0.264999"
           d="m 189.61436,164.49186 c 0,0 -0.70743,1.67795 -1.04068,2.06383 -0.33325,0.38587 -0.54372,0.64896 -0.7542,0.71912 -0.21047,0.0702 -0.70158,0.17539 -0.9179,0.14616 -0.21632,-0.0292 -0.46772,-0.076 -0.34495,-0.26894 0.12278,-0.19293 0.6022,-0.5905 0.90037,-1.03483 0.29817,-0.44434 0.85359,-1.57272 1.01729,-2.05798 0.16371,-0.48526 0.39172,-0.92375 -0.0175,-0.95298 -0.40926,-0.0292 -0.24555,-0.076 -1.07576,0.0117 -0.83021,0.0877 -1.98782,0.14617 -3.16882,0.52619 -1.18099,0.38002 -2.14274,0.74251 -2.43507,0.85652 -0.29233,0.114 -0.62265,0.2514 -0.71035,0.29525 -0.0877,0.0438 -0.18709,0.0585 -0.18124,-0.0146 0.006,-0.0731 0.0409,-0.11108 0.18416,-0.19001 0.14324,-0.0789 1.46163,-0.66651 2.0112,-0.84482 0.54958,-0.17832 2.08137,-0.66066 3.41145,-0.88283 1.33008,-0.22217 1.99074,-0.35371 2.55201,-0.17247 0.56126,0.18124 0.84482,0.36833 0.80974,0.88575 -0.0351,0.51741 -0.23971,0.91498 -0.23971,0.91498 z"
           id="path23" /></g><g
         id="g24"
         style="display:inline"><path
           style="display:inline;opacity:1;fill:#000000"
           d="m 161.80936,173.67935 c -0.5225,-0.44038 -0.9154,-0.66154 -1.85494,-0.91676 -1.14786,-0.31181 -1.88372,-0.32812 -2.81264,-0.0749 -0.50198,0.13683 -0.97163,0.39711 -1.31604,0.68251 -0.41651,0.28894 -0.61903,0.35366 -1.17482,0.36917 -0.47332,0.0132 -0.36644,-0.3338 -0.0509,-0.57705 0.53316,-0.41098 0.72932,-0.61206 2.23314,-0.95767 1.36628,-0.314 2.98773,-0.056 4.19694,0.35697 0.49763,0.16993 0.81843,0.37313 1.1912,0.65168 0.26359,0.1602 0.44007,0.39583 0.62759,0.63098 0.13302,0.16681 0.35006,0.53991 -0.0529,0.47219 -0.46686,-0.0785 -0.62433,-0.33166 -0.98671,-0.6371 z"
           id="path24" /></g><g
         id="g25"
         style="display:inline"><path
           style="display:inline;opacity:1;fill:#000000"
           d="m 178.75409,173.68335 c 0.5225,-0.44038 0.9154,-0.66154 1.85494,-0.91676 1.14786,-0.31181 1.88372,-0.32812 2.81264,-0.0749 0.50198,0.13683 0.97163,0.39711 1.31604,0.68251 0.41651,0.28894 0.61903,0.35366 1.17482,0.36917 0.47332,0.0132 0.36644,-0.3338 0.0509,-0.57705 -0.53316,-0.41098 -0.72932,-0.61206 -2.23314,-0.95767 -1.36628,-0.314 -2.98773,-0.056 -4.19694,0.35697 -0.49763,0.16993 -0.81843,0.37313 -1.1912,0.65168 -0.26359,0.1602 -0.44007,0.39583 -0.62759,0.63098 -0.13302,0.16681 -0.35006,0.53991 0.0529,0.47219 0.46686,-0.0785 0.62433,-0.33166 0.98671,-0.6371 z"
           id="path25" /></g><g
         id="g28"
         style="display:inline;opacity:1;fill:#000000"
         transform="matrix(-1,0,0,1,340.64314,0)"><path
           style="display:inline;opacity:1;fill:#000000;stroke-width:0.264999"
           d="m 160.06903,176.98471 c 0,0 -6.99244,0.1754 -11.91521,-1.04068 -1.51959,-0.37539 -2.57659,-0.60919 -3.2751,-0.86474 -0.22362,-0.0818 -0.69012,-0.19762 -1.13241,-0.35532 -0.46663,-0.16637 -0.7022,-0.55942 -0.20539,-0.46082 0.51421,0.10206 1.82119,0.56127 2.99342,0.8156 1.17222,0.25432 2.71133,0.70794 4.47246,0.93118 1.76114,0.22324 3.98943,0.48369 5.61827,0.61185 1.62884,0.12816 3.44785,0.27699 3.44785,0.27699 0,0 0.28008,0.03 0.32246,0.0403 0.0424,0.0104 0.093,0.0259 -0.0372,0.0341 -0.13022,0.008 -0.28914,0.0115 -0.28914,0.0115 z"
           id="path26"
           transform="translate(1.6916667e-5)" /><path
           style="display:inline;opacity:1;fill:#000000;stroke-width:0.264999"
           d="m 155.9384,177.57053 c 0,0 -6.48964,-0.11693 -9.45967,0.0702 -2.97003,0.18709 -4.05748,0.10524 -5.89329,0.47941 -1.83581,0.37418 -1.7138,0.42244 -2.08097,0.5576 -0.36717,0.13515 -0.8798,0.44108 -0.8798,0.44108 0,0 -0.0868,0.0331 -0.091,0.14056 -0.004,0.10749 0.11576,0.0744 0.11576,0.0744 0,0 0.14056,-0.0165 0.47129,-0.13229 0.33073,-0.11575 1.64951,-0.47956 1.94303,-0.5209 0.29352,-0.0413 1.08727,-0.24391 1.76113,-0.31419 0.67386,-0.0703 1.47517,-0.15509 2.21517,-0.2047 0.74001,-0.0496 2.40022,-0.15881 3.17743,-0.17948 0.77722,-0.0207 7.19578,-0.0623 7.19578,-0.0623 0,0 4.57647,-0.0248 5.07256,-0.0455 0.49609,-0.0207 0.65319,0.004 0.64492,-0.0744 -0.008,-0.0786 -0.49196,-0.11576 -0.49196,-0.11576 0,0 -2.47633,-0.0992 -3.02617,-0.11162 -0.54984,-0.0124 -0.67426,-0.002 -0.67426,-0.002 z"
           id="path27"
           transform="translate(1.6916667e-5)" /><path
           style="display:inline;opacity:1;fill:#000000;stroke-width:0.264999"
           d="m 159.63649,178.90254 c 0,0 -2.60755,0.0234 -5.68282,0.33325 -3.07527,0.30987 -5.04555,1.09914 -5.84068,1.54933 -0.79512,0.45018 -1.16346,1.01145 -1.16346,1.01145 0,0 -0.0981,0.16029 -0.0709,0.26467 0.0271,0.10439 0.0582,0.0238 0.15943,-0.0672 0.10129,-0.0909 0.19637,-0.16123 0.52917,-0.38447 0.3328,-0.22324 0.3328,-0.29352 1.0542,-0.6904 0.7214,-0.39687 2.12287,-0.74827 2.96416,-0.89504 0.84129,-0.14676 2.39778,-0.42167 4.84105,-0.63665 2.44326,-0.21497 3.14192,-0.31419 3.14192,-0.31419 0,0 0.52814,-0.0796 0.60462,-0.10645 0.0765,-0.0269 0.16536,-0.0507 -0.0341,-0.0568 -0.19947,-0.006 -0.50257,-0.007 -0.50257,-0.007 z"
           id="path28"
           transform="translate(1.6916667e-5)" /></g><g
         id="g35"
         style="display:inline;opacity:1;fill:#000000"><path
           style="display:inline;opacity:1;fill:#000000;stroke-width:0.264999"
           d="m 159.53986,176.86895 c 0,0 -6.99244,0.1754 -11.91521,-1.04068 -1.51959,-0.37539 -2.57659,-0.60919 -3.2751,-0.86474 -0.22362,-0.0818 -0.69012,-0.19762 -1.13241,-0.35532 -0.46663,-0.16637 -0.7022,-0.55942 -0.20539,-0.46082 0.51421,0.10206 1.82119,0.56127 2.99342,0.8156 1.17222,0.25432 2.71133,0.70794 4.47246,0.93118 1.76114,0.22324 3.98943,0.48369 5.61827,0.61185 1.62884,0.12816 3.44785,0.27699 3.44785,0.27699 0,0 0.28008,0.03 0.32246,0.0403 0.0424,0.0104 0.093,0.0259 -0.0372,0.0341 -0.13022,0.008 -0.28914,0.0115 -0.28914,0.0115 z"
           id="path29" /><path
           style="display:inline;opacity:1;fill:#000000;stroke-width:0.264999"
           d="m 155.9384,177.57053 c 0,0 -6.48964,-0.11693 -9.45967,0.0702 -2.97003,0.18709 -4.05748,0.10524 -5.89329,0.47941 -1.83581,0.37418 -1.7138,0.42244 -2.08097,0.5576 -0.36717,0.13515 -0.8798,0.44108 -0.8798,0.44108 0,0 -0.0868,0.0331 -0.091,0.14056 -0.004,0.10749 0.11576,0.0744 0.11576,0.0744 0,0 0.14056,-0.0165 0.47129,-0.13229 0.33073,-0.11575 1.64951,-0.47956 1.94303,-0.5209 0.29352,-0.0413 1.08727,-0.24391 1.76113,-0.31419 0.67386,-0.0703 1.47517,-0.15509 2.21517,-0.2047 0.74001,-0.0496 2.40022,-0.15881 3.17743,-0.17948 0.77722,-0.0207 7.19578,-0.0623 7.19578,-0.0623 0,0 4.57647,-0.0248 5.07256,-0.0455 0.49609,-0.0207 0.65319,0.004 0.64492,-0.0744 -0.008,-0.0786 -0.49196,-0.11576 -0.49196,-0.11576 0,0 -2.47633,-0.0992 -3.02617,-0.11162 -0.54984,-0.0124 -0.67426,-0.002 -0.67426,-0.002 z"
           id="path34" /><path
           style="display:inline;opacity:1;fill:#000000;stroke-width:0.264999"
           d="m 159.44632,178.886 c 0,0 -2.60755,0.0234 -5.68282,0.33325 -3.07527,0.30987 -5.04555,1.09914 -5.84068,1.54933 -0.79512,0.45018 -1.16346,1.01145 -1.16346,1.01145 0,0 -0.0981,0.16029 -0.0709,0.26467 0.0271,0.10439 0.0582,0.0238 0.15943,-0.0672 0.10129,-0.0909 0.19637,-0.16123 0.52917,-0.38447 0.3328,-0.22324 0.3328,-0.29352 1.0542,-0.6904 0.7214,-0.39687 2.12287,-0.74827 2.96416,-0.89504 0.84129,-0.14676 2.39778,-0.42167 4.84105,-0.63665 2.44326,-0.21497 3.14192,-0.31419 3.14192,-0.31419 0,0 0.52814,-0.0796 0.60462,-0.10645 0.0765,-0.0269 0.16536,-0.0507 -0.0341,-0.0568 -0.19947,-0.006 -0.50257,-0.007 -0.50257,-0.007 z"
           id="path35" /></g><g
         id="g40"
         style="display:inline;opacity:1"><path
           id="path39"
           style="display:inline;opacity:1;fill:#000000;stroke-width:0.264999"
           d="m 170.29054,178.42102 c 0,0 0.72101,-0.0336 1.03075,0.27619 0.30974,0.30974 0.2904,0.40033 0.29486,0.545 0.005,0.16959 -0.12123,0.4855 -0.51879,0.74567 -0.39756,0.26017 -0.10232,0.38295 0.10231,0.59635 0.20463,0.2134 0.65774,0.45311 1.4704,0.50865 0.81267,0.0555 2.21583,0.0789 2.64847,-0.36541 0.43265,-0.44434 0.31864,-0.54373 0.63435,-0.69574 0.31571,-0.15201 0.7279,-0.0672 0.85359,-0.0175 0.12571,0.0497 0.35957,0.0877 0.34203,0.33325 -0.0175,0.24556 -0.12863,0.45895 -0.23971,0.55542 -0.11108,0.0965 -0.15786,0.20171 -0.6782,0.43849 -0.52034,0.23679 -0.68404,0.21632 -1.24238,0.29525 -0.55834,0.0789 -0.82729,0.1257 -1.35932,0.11108 -0.53203,-0.0146 -0.82436,-0.0438 -1.69257,-0.2894 -0.86821,-0.24555 -1.39401,-0.52599 -1.63995,-0.86528 0.0144,-0.72376 -0.006,-1.44807 -0.006,-2.17202 z m 5.3e-4,-3e-5 c 0,0 -0.70964,-0.0326 -1.01938,0.27722 -0.30974,0.30974 -0.2904,0.40033 -0.29486,0.545 -0.005,0.16959 0.12123,0.4855 0.51879,0.74567 0.39756,0.26017 0.10232,0.38295 -0.10231,0.59635 -0.20463,0.2134 -0.65774,0.45311 -1.4704,0.50865 -0.81267,0.0555 -2.21583,0.0789 -2.64847,-0.36541 -0.43265,-0.44434 -0.31864,-0.54373 -0.63435,-0.69574 -0.31571,-0.15201 -0.7279,-0.0672 -0.85359,-0.0175 -0.12571,0.0497 -0.35957,0.0877 -0.34203,0.33325 0.0175,0.24556 0.12863,0.45895 0.23971,0.55542 0.11108,0.0965 0.15786,0.20171 0.6782,0.43849 0.52034,0.23679 0.68404,0.21632 1.24238,0.29525 0.55834,0.0789 0.82729,0.1257 1.35932,0.11108 0.53203,-0.0146 0.82436,-0.0438 1.69257,-0.2894 0.86821,-0.24555 1.39401,-0.52599 1.63995,-0.86528 0.0134,-0.72377 -0.006,-1.4491 -0.006,-2.17305 z" /></g></g><text
       xml:space="preserve"
       style="font-weight:500;font-size:32px;font-family:Roboto;-inkscape-font-specification:'Roboto, Medium';text-align:start;writing-mode:lr-tb;direction:ltr;text-anchor:start;fill:#a8d5ba;fill-opacity:1;stroke:#a8d5ba;stroke-width:0;stroke-dasharray:none;stroke-opacity:1"
       x="1050.5696"
       y="117.10843"
       id="text43"
       transform="translate(1.4008792e-6,55.644438)"
       inkscape:label="title"><tspan
         sodipodi:role="line"
         id="tspan43"
         x="1050.5696"
         y="117.10843"
         style="font-style:normal;font-variant:normal;font-weight:bold;font-stretch:normal;font-size:48px;font-family:Montserrat;-inkscape-font-specification:'Montserrat, Bold';font-variant-ligatures:normal;font-variant-caps:normal;font-variant-numeric:normal;font-variant-east-asian:normal;fill:#a8d5ba;fill-opacity:1;stroke:none;stroke-width:0;stroke-dasharray:none;stroke-opacity:1">Les Chats Taffions</tspan></text></g><g
     inkscape:groupmode="layer"
     id="layer22"
     inkscape:label="NavBar"
     style="opacity:1"><rect
       style="fill:#3c3c3c;fill-opacity:1;stroke:#a8d5ba;stroke-width:1;stroke-dasharray:none;stroke-opacity:1"
       id="rect43"
       width="1200"
       height="50"
       x="679.72168"
       y="303.40085"
       sodipodi:insensitive="true"
       inkscape:label="bar" /><g
       inkscape:groupmode="layer"
       id="layer23"
       inkscape:label="NavLinks"
       transform="translate(326.05975)"
       style="display:inline;fill:#e8ecef;fill-opacity:1;stroke:none"><text
         xml:space="preserve"
         style="font-style:normal;font-variant:normal;font-weight:500;font-stretch:normal;font-size:21.3333px;font-family:Montserrat;-inkscape-font-specification:'Montserrat, Medium';font-variant-ligatures:normal;font-variant-caps:normal;font-variant-numeric:normal;font-variant-east-asian:normal;text-align:start;writing-mode:lr-tb;direction:ltr;text-anchor:start;fill:#d4d4d4;fill-opacity:1;stroke:none;stroke-width:1;stroke-dasharray:none;stroke-opacity:1"
         x="594.02209"
         y="336.4115"
         id="text54"
         inkscape:label="home"><tspan
           sodipodi:role="line"
           id="tspan54"
           x="594.02209"
           y="336.4115">Accueil</tspan></text><text
         xml:space="preserve"
         style="font-style:normal;font-variant:normal;font-weight:500;font-stretch:normal;font-size:21.3333px;font-family:Montserrat;-inkscape-font-specification:'Montserrat, Medium';font-variant-ligatures:normal;font-variant-caps:normal;font-variant-numeric:normal;font-variant-east-asian:normal;text-align:start;writing-mode:lr-tb;direction:ltr;text-anchor:start;fill:#d4d4d4;fill-opacity:1;stroke:none;stroke-width:1;stroke-dasharray:none;stroke-opacity:1"
         x="731.52209"
         y="334.9075"
         id="text55"
         inkscape:label="about"><tspan
           sodipodi:role="line"
           id="tspan55"
           x="731.52209"
           y="334.9075">À Propos</tspan></text><text
         xml:space="preserve"
         style="font-style:normal;font-variant:normal;font-weight:500;font-stretch:normal;font-size:21.3333px;font-family:Montserrat;-inkscape-font-specification:'Montserrat, Medium';font-variant-ligatures:normal;font-variant-caps:normal;font-variant-numeric:normal;font-variant-east-asian:normal;text-align:start;writing-mode:lr-tb;direction:ltr;text-anchor:start;fill:#d4d4d4;fill-opacity:1;stroke:none;stroke-width:1;stroke-dasharray:none;stroke-opacity:1"
         x="1006.5221"
         y="334.40616"
         id="text57"
         inkscape:label="participate"><tspan
           sodipodi:role="line"
           id="tspan57"
           x="1006.5221"
           y="334.40616">Participer</tspan></text><text
         xml:space="preserve"
         style="font-style:normal;font-variant:normal;font-weight:500;font-stretch:normal;font-size:21.3333px;font-family:Montserrat;-inkscape-font-specification:'Montserrat, Medium';font-variant-ligatures:normal;font-variant-caps:normal;font-variant-numeric:normal;font-variant-east-asian:normal;text-align:start;writing-mode:lr-tb;direction:ltr;text-anchor:start;display:inline;fill:#d4d4d4;fill-opacity:1;stroke:none;stroke-width:1;stroke-dasharray:none;stroke-opacity:1"
         x="1144.0221"
         y="335.40881"
         id="text58"
         inkscape:label="contact us"><tspan
           sodipodi:role="line"
           id="tspan58"
           x="1144.0221"
           y="335.40881">Contactez-nous</tspan></text></g><g
       inkscape:groupmode="layer"
       id="layer24"
       inkscape:label="NavLinksHover"
       style="display:inline"><text
         xml:space="preserve"
         style="font-style:normal;font-variant:normal;font-weight:500;font-stretch:normal;font-size:21.3333px;font-family:Montserrat;-inkscape-font-specification:'Montserrat, Medium';font-variant-ligatures:normal;font-variant-caps:normal;font-variant-numeric:normal;font-variant-east-asian:normal;text-align:start;writing-mode:lr-tb;direction:ltr;text-anchor:start;opacity:1;fill:#a8333e;fill-opacity:1;stroke:none;stroke-width:1;stroke-dasharray:none;stroke-opacity:1"
         x="869.02209"
         y="335.91016"
         id="text61"
         transform="translate(326.05975)"
         inkscape:label="our cats"><tspan
           sodipodi:role="line"
           id="tspan61"
           x="869.02209"
           y="335.91016">Nos Chats</tspan></text></g></g></svg>
